<?xml version="1.0" encoding="UTF-8"?>
<!DOCTYPE svg PUBLIC "-//W3C//DTD SVG 1.1//EN" "http://www.w3.org/Graphics/SVG/1.1/DTD/svg11.dtd">
<svg xmlns="http://www.w3.org/2000/svg" version="1.1" width="250px" height="250px" style="shape-rendering:geometricPrecision; text-rendering:geometricPrecision; image-rendering:optimizeQuality; fill-rule:evenodd; clip-rule:evenodd" xmlns:xlink="http://www.w3.org/1999/xlink">
<g><path style="opacity:0.909" fill="#040303" d="M 45.5,5.5 C 97.8344,5.33334 150.168,5.50001 202.5,6C 226.683,10.5176 240.183,25.0176 243,49.5C 243.667,99.5 243.667,149.5 243,199.5C 240.174,223.991 226.674,238.491 202.5,243C 150.5,243.667 98.5,243.667 46.5,243C 24.4155,239.717 10.9155,227.217 6,205.5C 5.33333,151.5 5.33333,97.5 6,43.5C 10.9097,22.0877 24.0763,9.42104 45.5,5.5 Z"/></g>
<g><path style="opacity:1" fill="#fcd6d9" d="M 49.5,10.5 C 99.5011,10.3333 149.501,10.5 199.5,11C 219.547,13.1091 232.047,23.9425 237,43.5C 237.667,97.8333 237.667,152.167 237,206.5C 232.881,222.619 222.715,232.785 206.5,237C 203.833,237.333 201.167,237.667 198.5,238C 148.833,238.667 99.1667,238.667 49.5,238C 27.6279,235.463 14.7946,223.297 11,201.5C 10.3333,149.833 10.3333,98.1667 11,46.5C 15.3469,25.317 28.1802,13.317 49.5,10.5 Z"/></g>
<g><path style="opacity:1" fill="#ddbcbf" d="M 133.5,40.5 C 125.938,37.3691 118.605,38.0358 111.5,42.5C 111.167,42.3333 110.833,42.1667 110.5,42C 112.54,39.6642 114.873,37.8308 117.5,36.5C 126.854,33.6985 135.854,34.6985 144.5,39.5C 145.429,40.6888 145.762,42.0222 145.5,43.5C 141.385,42.9051 137.385,41.9051 133.5,40.5 Z"/></g>
<g><path style="opacity:1" fill="#292324" d="M 116.5,36.5 C 116.833,36.5 117.167,36.5 117.5,36.5C 114.873,37.8308 112.54,39.6642 110.5,42C 110.833,42.1667 111.167,42.3333 111.5,42.5C 118.605,38.0358 125.938,37.3691 133.5,40.5C 132.833,40.5 132.5,40.8333 132.5,41.5C 124.632,39.2876 117.465,40.6209 111,45.5C 109.234,54.3008 108.068,63.1341 107.5,72C 114.24,71.0964 121.073,70.5964 128,70.5C 132.015,70.5012 135.849,70.8345 139.5,71.5C 137.585,71.2155 135.919,71.5489 134.5,72.5C 123.253,71.6758 112.253,72.8424 101.5,76C 98.6441,77.2587 95.9774,78.7587 93.5,80.5C 93.5,79.8333 93.1667,79.5 92.5,79.5C 96.6908,76.2361 101.357,73.7361 106.5,72C 105.941,71.2753 105.608,70.4419 105.5,69.5C 106.158,61.1532 106.991,52.8198 108,44.5C 109.413,40.2518 112.246,37.5852 116.5,36.5 Z"/></g>
<g><path style="opacity:1" fill="#fcd6d9" d="M 132.5,41.5 C 135.721,42.1109 138.721,43.2776 141.5,45C 143.769,45.7581 145.936,45.5914 148,44.5C 147.266,53.7838 146.433,63.1171 145.5,72.5C 143.591,71.6518 141.591,71.3184 139.5,71.5C 135.849,70.8345 132.015,70.5012 128,70.5C 121.073,70.5964 114.24,71.0964 107.5,72C 108.068,63.1341 109.234,54.3008 111,45.5C 117.465,40.6209 124.632,39.2876 132.5,41.5 Z"/></g>
<g><path style="opacity:1" fill="#f2ced0" d="M 134.5,72.5 C 142.127,72.6042 149.46,74.1042 156.5,77C 157.451,77.7175 157.617,78.5509 157,79.5C 154.294,81.8706 151.961,84.5372 150,87.5C 141.383,81.2884 131.717,78.6217 121,79.5C 110.207,79.3875 99.8741,81.3875 90,85.5C 90.0768,83.2285 91.2435,81.5618 93.5,80.5C 95.9774,78.7587 98.6441,77.2587 101.5,76C 112.253,72.8424 123.253,71.6758 134.5,72.5 Z"/></g>
<g><path style="opacity:1" fill="#56494a" d="M 120.5,75.5 C 122.473,74.8373 124.639,74.5039 127,74.5C 129.7,74.3909 132.2,74.8909 134.5,76C 129.92,75.6221 125.254,75.4554 120.5,75.5 Z"/></g>
<g><path style="opacity:1" fill="#161313" d="M 113.5,203.5 C 110.517,202.612 107.35,201.946 104,201.5C 99.1679,204.337 98.3346,208.17 101.5,213C 108.061,213.938 111.394,211.104 111.5,204.5C 112.473,210.905 109.807,214.571 103.5,215.5C 101.617,215.124 100.117,214.124 99,212.5C 98.0441,208.428 98.5441,204.595 100.5,201C 91.4539,197.723 83.6206,192.557 77,185.5C 69.5267,171.801 66.5267,157.135 68,141.5C 69.8197,129.068 72.153,116.735 75,104.5C 76.6511,101.198 78.3178,97.8644 80,94.5C 83.7326,89.116 87.8992,84.116 92.5,79.5C 93.1667,79.5 93.5,79.8333 93.5,80.5C 91.2435,81.5618 90.0768,83.2285 90,85.5C 99.8741,81.3875 110.207,79.3875 121,79.5C 131.717,78.6217 141.383,81.2884 150,87.5C 151.961,84.5372 154.294,81.8706 157,79.5C 157.617,78.5509 157.451,77.7175 156.5,77C 149.46,74.1042 142.127,72.6042 134.5,72.5C 135.919,71.5489 137.585,71.2155 139.5,71.5C 141.591,71.3184 143.591,71.6518 145.5,72.5C 146.433,63.1171 147.266,53.7838 148,44.5C 145.936,45.5914 143.769,45.7581 141.5,45C 138.721,43.2776 135.721,42.1109 132.5,41.5C 132.5,40.8333 132.833,40.5 133.5,40.5C 137.385,41.9051 141.385,42.9051 145.5,43.5C 145.762,42.0222 145.429,40.6888 144.5,39.5C 135.854,34.6985 126.854,33.6985 117.5,36.5C 117.167,36.5 116.833,36.5 116.5,36.5C 117.347,35.0337 118.68,34.2004 120.5,34C 129.299,32.5553 137.632,33.8887 145.5,38C 148.414,39.9086 150.081,42.5753 150.5,46C 149.279,54.6933 148.279,63.36 147.5,72C 154.951,73.9611 161.451,77.4611 167,82.5C 168.92,85.3388 170.587,88.3388 172,91.5C 178.612,115.729 181.278,140.396 180,165.5C 178.784,172.648 176.284,179.315 172.5,185.5C 176.409,190.898 176.409,196.398 172.5,202C 170.956,203.187 169.289,203.52 167.5,203C 164.629,201.629 162.629,199.463 161.5,196.5C 158.824,197.838 156.158,199.171 153.5,200.5C 157.295,207.902 155.295,212.902 147.5,215.5C 141.519,213.58 139.519,209.58 141.5,203.5C 140.833,203.167 140.167,202.833 139.5,202.5C 130.868,203.443 122.202,203.776 113.5,203.5 Z"/></g>
<g><path style="opacity:1" fill="#f1cdcf" d="M 158.5,78.5 C 165.44,81.9643 169.606,87.631 171,95.5C 177.073,119.859 179.073,144.526 177,169.5C 173.729,186.105 163.895,195.938 147.5,199C 160.079,190.689 166.579,178.856 167,163.5C 167.935,146.434 167.269,129.434 165,112.5C 163.232,102.794 158.732,94.6273 151.5,88C 154.076,84.9372 156.409,81.7705 158.5,78.5 Z"/></g>
<g><path style="opacity:1" fill="#fcd6d9" d="M 115.5,82.5 C 142.181,79.0629 158.014,90.3962 163,116.5C 166.509,136.243 166.176,155.91 162,175.5C 158.31,189.189 149.476,197.356 135.5,200C 117.061,203.372 100.061,200.039 84.5,190C 77.1155,183.538 72.9489,175.371 72,165.5C 69.9616,150.402 70.6283,135.402 74,120.5C 74.036,118.059 74.8693,116.059 76.5,114.5C 93.1855,122.881 110.852,125.714 129.5,123C 133.285,122.627 136.785,121.461 140,119.5C 140.306,121.906 141.139,124.073 142.5,126C 141.45,129.455 141.283,132.955 142,136.5C 148.168,138.99 150.835,136.99 150,130.5C 148.385,125.959 146.885,121.459 145.5,117C 138.428,117.18 131.428,118.18 124.5,120C 107.415,121.215 91.082,118.382 75.5,111.5C 78.2932,96.2071 87.2932,87.0404 102.5,84C 107.019,83.8247 111.353,83.3247 115.5,82.5 Z"/></g>
<g><path style="opacity:1" fill="#988284" d="M 170.5,107.5 C 172.798,112.847 173.631,118.514 173,124.5C 172.099,118.832 171.266,113.166 170.5,107.5 Z"/></g>
<g><path style="opacity:1" fill="#dfbec0" d="M 143.5,117.5 C 145.28,118.99 145.946,120.99 145.5,123.5C 141.151,122.775 140.484,120.775 143.5,117.5 Z"/></g>
<g><path style="opacity:1" fill="#f2ced0" d="M 144.5,125.5 C 146.494,127.617 148.161,130.117 149.5,133C 146.805,137.712 144.472,137.545 142.5,132.5C 142.772,130.022 143.438,127.689 144.5,125.5 Z"/></g>
<g><path style="opacity:1" fill="#ecc9cb" d="M 170.5,187.5 C 173.385,190.691 173.885,194.358 172,198.5C 168.509,201.446 166.342,200.612 165.5,196C 166.934,193.058 168.6,190.224 170.5,187.5 Z"/></g>
<g><path style="opacity:1" fill="#e4c2c5" d="M 113.5,203.5 C 112.508,203.328 111.842,203.662 111.5,204.5C 111.394,211.104 108.061,213.938 101.5,213C 98.3346,208.17 99.1679,204.337 104,201.5C 107.35,201.946 110.517,202.612 113.5,203.5 Z"/></g>
<g><path style="opacity:1" fill="#eecacd" d="M 149.5,200.5 C 151.411,200.574 152.578,201.574 153,203.5C 154.833,211 152,213.833 144.5,212C 142.327,209.108 141.994,205.941 143.5,202.5C 145.657,201.95 147.657,201.283 149.5,200.5 Z"/></g>
<g><path style="opacity:1" fill="#151212" d="M 146.5,203.5 C 147.621,205.316 148.121,207.316 148,209.5C 146.681,207.75 146.181,205.75 146.5,203.5 Z"/></g>
<g><path style="opacity:1" fill="#3a3132" d="M 103.5,206.5 C 104.586,206.62 105.253,207.287 105.5,208.5C 105.167,209.167 104.833,209.833 104.5,210.5C 103.571,209.311 103.238,207.978 103.5,206.5 Z"/></g>
</svg>
