<?xml version="1.0" encoding="UTF-8"?>
<!DOCTYPE svg PUBLIC "-//W3C//DTD SVG 1.1//EN" "http://www.w3.org/Graphics/SVG/1.1/DTD/svg11.dtd">
<svg xmlns="http://www.w3.org/2000/svg" version="1.1" width="250px" height="250px" style="shape-rendering:geometricPrecision; text-rendering:geometricPrecision; image-rendering:optimizeQuality; fill-rule:evenodd; clip-rule:evenodd" xmlns:xlink="http://www.w3.org/1999/xlink">
<g><path style="opacity:0.909" fill="#030304" d="M 45.5,5.5 C 97.8344,5.33334 150.168,5.50001 202.5,6C 226.683,10.5176 240.183,25.0176 243,49.5C 243.667,99.5 243.667,149.5 243,199.5C 240.174,223.991 226.674,238.491 202.5,243C 150.5,243.667 98.5,243.667 46.5,243C 24.4155,239.717 10.9155,227.217 6,205.5C 5.33333,151.5 5.33333,97.5 6,43.5C 10.9097,22.0877 24.0763,9.42104 45.5,5.5 Z"/></g>
<g><path style="opacity:1" fill="#ccbafc" d="M 46.5,10.5 C 98.1677,10.3333 149.834,10.5 201.5,11C 220.65,13.8157 232.483,24.6491 237,43.5C 237.667,97.8333 237.667,152.167 237,206.5C 231.757,224.236 219.924,234.736 201.5,238C 150.167,238.667 98.8333,238.667 47.5,238C 26.6986,234.532 14.5319,222.365 11,201.5C 10.3333,149.167 10.3333,96.8333 11,44.5C 15.8704,25.7944 27.7037,14.4611 46.5,10.5 Z"/></g>
<g><path style="opacity:1" fill="#100f13" d="M 75.5,93.5 C 80.8994,97.0553 85.8994,101.222 90.5,106C 92,106.5 93.5,107 95,107.5C 95.7648,107.43 96.2648,107.097 96.5,106.5C 97.1667,106.833 97.8333,107.167 98.5,107.5C 99.2216,107.082 99.7216,106.416 100,105.5C 100.414,105.957 100.914,106.291 101.5,106.5C 102.624,104.631 103.457,102.631 104,100.5C 103.872,103.486 103.872,106.486 104,109.5C 106.625,112.71 109.458,113.043 112.5,110.5C 113.833,111.5 115.167,112.5 116.5,113.5C 117.5,112.833 118.5,112.167 119.5,111.5C 124.268,113.921 129.101,113.921 134,111.5C 134.49,110.207 134.657,108.873 134.5,107.5C 135.167,107.5 135.833,107.5 136.5,107.5C 137.5,110.167 138.5,110.167 139.5,107.5C 140.708,108.234 142.041,108.567 143.5,108.5C 149.928,100.568 156.928,93.0685 164.5,86C 169.504,81.9166 175.004,78.7499 181,76.5C 183.455,78.6322 185.121,81.2988 186,84.5C 186.334,95.724 186.501,106.891 186.5,118C 186.006,122.813 185.006,127.48 183.5,132C 184.416,132.278 185.082,132.778 185.5,133.5C 185.433,134.959 185.766,136.292 186.5,137.5C 187.469,138.309 188.302,139.309 189,140.5C 189.333,140.167 189.667,139.833 190,139.5C 190.483,140.448 190.649,141.448 190.5,142.5C 189.448,142.351 188.448,142.517 187.5,143C 189.249,143.785 190.916,144.618 192.5,145.5C 206.015,141.755 217.515,145.088 227,155.5C 228.956,161.339 228.122,166.839 224.5,172C 156.167,172.5 87.8341,172.667 19.5,172.5C 19.552,170.097 19.2186,167.764 18.5,165.5C 19.1667,164.5 19.8333,163.5 20.5,162.5C 19.9738,165.808 21.3072,167.974 24.5,169C 27.146,169.497 29.8127,169.664 32.5,169.5C 32.571,165.046 31.2376,161.046 28.5,157.5C 26.9974,157.165 25.664,157.165 24.5,157.5C 26.0864,154.659 27.9197,151.993 30,149.5C 30.414,149.957 30.914,150.291 31.5,150.5C 33.1727,148.914 35.1727,148.247 37.5,148.5C 36.7738,152.678 35.4405,156.678 33.5,160.5C 33.6922,162.577 34.1922,164.577 35,166.5C 36.7165,165.448 37.7165,166.114 38,168.5C 39.3946,167.185 40.3946,167.519 41,169.5C 41.6667,166.833 42.3333,164.167 43,161.5C 44.4884,164.333 46.155,166.999 48,169.5C 49.8853,169.138 50.7186,167.971 50.5,166C 50.2587,164.016 49.5921,162.183 48.5,160.5C 49.1156,157.876 48.1156,155.709 45.5,154C 44.2559,153.544 43.4226,154.044 43,155.5C 40.3413,153.213 39.1746,150.546 39.5,147.5C 42.8081,148.515 45.9747,150.515 49,153.5C 49.6838,152.216 49.5171,151.049 48.5,150C 52.7324,150.232 54.8991,152.399 55,156.5C 53.9887,155.663 52.8221,155.33 51.5,155.5C 51.7543,159.331 53.0876,162.665 55.5,165.5C 53.4326,169.089 54.4326,170.256 58.5,169C 59.2266,167.601 59.7266,166.101 60,164.5C 63.4849,172.62 65.6516,172.287 66.5,163.5C 71.1785,163.666 75.8452,163.499 80.5,163C 75.1667,162.667 69.8333,162.333 64.5,162C 64.0183,160.992 63.8516,159.825 64,158.5C 61.5705,156.578 59.7372,154.245 58.5,151.5C 59.2312,151.058 60.2312,150.891 61.5,151C 60.944,150.617 60.6107,150.117 60.5,149.5C 62.3223,148.719 62.9889,147.552 62.5,146C 56.5034,141.899 49.8367,140.399 42.5,141.5C 42.5,141.167 42.5,140.833 42.5,140.5C 49.0173,139.38 49.0173,138.546 42.5,138C 44.6234,136.806 46.9568,136.14 49.5,136C 49.0563,134.467 48.723,132.967 48.5,131.5C 51.0782,131.323 51.0782,130.157 48.5,128C 49.448,127.517 50.448,127.351 51.5,127.5C 51.3334,114.163 51.5001,100.829 52,87.5C 52.3918,84.3728 53.2251,81.3728 54.5,78.5C 56.697,76.694 59.0303,76.3607 61.5,77.5C 65.0038,81.5036 68.8371,85.1703 73,88.5C 74.0945,90.0779 74.9278,91.7446 75.5,93.5 Z"/></g>
<g><path style="opacity:1" fill="#beadea" d="M 75.5,93.5 C 78.5035,98.1382 82.0035,102.472 86,106.5C 88.1363,105.97 89.9696,106.803 91.5,109C 89.4328,109.536 87.5994,109.036 86,107.5C 85,110.167 84,110.167 83,107.5C 82.6667,107.833 82.3333,108.167 82,108.5C 77.87,101.739 73.37,95.2386 68.5,89C 65.4645,88.291 62.6312,87.1244 60,85.5C 59.3333,86.1667 59.3333,86.8333 60,87.5C 64.079,89.5751 67.579,92.4084 70.5,96C 67.8536,95.3753 65.1869,94.7086 62.5,94C 64.6572,95.9121 66.9906,97.5787 69.5,99C 71.8983,100.636 73.065,102.802 73,105.5C 70.4024,102.972 67.5691,101.139 64.5,100C 68.5,103.667 72.5,107.333 76.5,111C 73.2296,110.537 70.2296,109.204 67.5,107C 66.1667,106.333 64.8333,106.333 63.5,107C 66.8338,108.331 69.8338,110.165 72.5,112.5C 70.8918,113.242 69.2251,113.409 67.5,113C 68.6872,114.019 69.6872,115.186 70.5,116.5C 70,116.833 69.5,117.167 69,117.5C 66.8801,116.541 64.7135,116.374 62.5,117C 64.779,117.473 66.779,118.473 68.5,120C 66.7749,119.591 65.1082,119.758 63.5,120.5C 65.8585,122.529 68.1918,124.529 70.5,126.5C 67.8322,127.738 65.1655,127.738 62.5,126.5C 62.1667,127.167 61.8333,127.833 61.5,128.5C 60.914,128.291 60.414,127.957 60,127.5C 60.0275,129.417 60.8608,131.084 62.5,132.5C 58.1561,134.037 55.1561,132.537 53.5,128C 54.4491,127.383 55.2825,127.549 56,128.5C 56.4922,127.451 56.3256,126.451 55.5,125.5C 56.0253,124.808 56.6919,124.308 57.5,124C 54.7425,119.561 53.0759,114.728 52.5,109.5C 53.1347,101.478 53.9681,93.4781 55,85.5C 56.3339,81.8956 58.8339,80.729 62.5,82C 67.6471,84.9844 71.9804,88.8177 75.5,93.5 Z"/></g>
<g><path style="opacity:1" fill="#c4b2f2" d="M 180.5,127.5 C 181.397,128.598 182.23,128.598 183,127.5C 183.167,128 183.333,128.5 183.5,129C 182.337,131.911 181.004,134.745 179.5,137.5C 180.025,138.192 180.692,138.692 181.5,139C 180.167,140 178.833,141 177.5,142C 178.167,142.333 178.833,142.667 179.5,143C 177.167,143.333 174.833,143.667 172.5,144C 174.025,145.009 175.692,145.509 177.5,145.5C 175.052,146.473 172.385,146.806 169.5,146.5C 169.5,147.5 169.5,148.5 169.5,149.5C 167.577,149.205 165.91,148.372 164.5,147C 165.167,146.333 165.833,145.667 166.5,145C 162.5,143 158.5,141 154.5,139C 153.167,138.333 153.167,137.667 154.5,137C 150.27,135.963 146.103,134.796 142,133.5C 135.399,136.817 131.566,142.15 130.5,149.5C 128.73,146.807 128.063,143.807 128.5,140.5C 130.057,137.376 131.723,134.209 133.5,131C 132.668,130.312 132.002,130.479 131.5,131.5C 130.212,133.739 129.212,136.072 128.5,138.5C 126.908,139.602 126.075,138.935 126,136.5C 124.806,138.623 124.14,140.957 124,143.5C 123.346,142.304 122.846,142.304 122.5,143.5C 123.26,145.36 124.26,147.027 125.5,148.5C 124.781,150.317 123.781,150.984 122.5,150.5C 122.855,151.522 123.522,152.189 124.5,152.5C 126.175,154.456 125.842,155.789 123.5,156.5C 119.167,156.5 114.833,156.5 110.5,156.5C 108.348,155.923 108.015,154.756 109.5,153C 108.833,152.667 108.167,152.333 107.5,152C 108.833,150.667 110.167,149.333 111.5,148C 110.85,146.391 111.35,144.891 113,143.5C 113.667,141.5 113.667,139.5 113,137.5C 110.704,146.504 109.371,146.504 109,137.5C 107.107,134.382 105.774,131.049 105,127.5C 104.056,128.263 103.556,129.263 103.5,130.5C 105.535,134.439 106.869,138.606 107.5,143C 107.637,145.556 106.804,147.723 105,149.5C 103.592,141.097 98.9251,135.43 91,132.5C 89.1208,134.013 86.9541,134.679 84.5,134.5C 84.719,135.675 84.3857,136.675 83.5,137.5C 80.0991,137.662 76.7658,138.829 73.5,141C 74.5,141.333 75.5,141.667 76.5,142C 74.9826,143.508 73.1493,144.342 71,144.5C 66.8124,142.211 62.3124,140.711 57.5,140C 56.8333,139.333 56.1667,138.667 55.5,138C 57.8778,138.575 60.3778,139.075 63,139.5C 64.1667,139.167 65.3333,138.833 66.5,138.5C 63.8333,137.833 61.1667,137.167 58.5,136.5C 63.8169,135.283 68.8169,133.283 73.5,130.5C 72.8333,129.833 72.1667,129.167 71.5,128.5C 75.5112,127.038 79.5112,125.704 83.5,124.5C 83.67,123.178 83.3366,122.011 82.5,121C 83.4491,120.383 84.2825,120.549 85,121.5C 85.1992,119.598 86.0325,118.098 87.5,117C 86.4464,115.612 86.2797,114.112 87,112.5C 88,115.167 89,115.167 90,112.5C 90.414,112.957 90.914,113.291 91.5,113.5C 92.8498,112.05 94.5165,111.383 96.5,111.5C 96.8204,114.898 96.487,118.232 95.5,121.5C 94.5224,121.023 93.6891,120.357 93,119.5C 92.7811,120.938 92.2811,122.271 91.5,123.5C 90.914,123.291 90.414,122.957 90,122.5C 89.3551,123.646 88.5217,124.646 87.5,125.5C 88.751,128.489 90.751,129.489 93.5,128.5C 94.8333,129.5 96.1667,130.5 97.5,131.5C 98.3624,130.234 99.0291,128.901 99.5,127.5C 99.8333,126.833 100.167,126.167 100.5,125.5C 101.294,122.198 101.96,118.865 102.5,115.5C 105.263,115.744 107.429,117.077 109,119.5C 109,118.167 109,116.833 109,115.5C 111.706,117.871 114.039,120.537 116,123.5C 118.677,116.525 120.01,116.859 120,124.5C 122.333,122.167 124.667,119.833 127,117.5C 127.333,118.5 127.667,119.5 128,120.5C 128.953,118.545 130.287,116.878 132,115.5C 132.221,118.943 133.221,119.276 135,116.5C 135.08,119.638 134.913,122.804 134.5,126C 134.305,128.793 134.971,131.293 136.5,133.5C 140.309,130.858 143.976,128.025 147.5,125C 146.004,124.493 144.837,124.993 144,126.5C 142.413,125.273 141.079,125.606 140,127.5C 140.027,125.583 140.861,123.916 142.5,122.5C 141.645,121.707 140.811,122.04 140,123.5C 139.667,121.833 139.333,120.167 139,118.5C 138.333,117.167 137.667,117.167 137,118.5C 136.268,116.294 136.935,114.628 139,113.5C 140.113,114.711 141.28,114.711 142.5,113.5C 144.283,116.948 146.45,116.948 149,113.5C 149.492,114.549 149.326,115.549 148.5,116.5C 150.423,117.308 152.423,117.808 154.5,118C 149.455,118.276 148.788,119.609 152.5,122C 156.749,123.126 161.082,123.792 165.5,124C 164.833,124.333 164.167,124.667 163.5,125C 167.262,127.47 171.262,127.97 175.5,126.5C 174.019,125.52 172.685,124.353 171.5,123C 172.624,122.751 173.624,122.251 174.5,121.5C 171.115,119.258 167.448,117.592 163.5,116.5C 165.713,114.226 168.379,112.726 171.5,112C 167.039,111.594 162.706,111.928 158.5,113C 162.216,108.952 165.55,104.618 168.5,100C 165.649,100.172 163.149,101.339 161,103.5C 162.627,99.5241 165.46,96.3574 169.5,94C 168.5,93.6667 167.5,93.3333 166.5,93C 170.324,89.9209 174.324,87.0876 178.5,84.5C 178,84.1667 177.5,83.8333 177,83.5C 174.205,84.5783 171.371,85.0783 168.5,85C 172.796,81.5055 177.463,80.8388 182.5,83C 183.227,84.3988 183.727,85.8988 184,87.5C 184.903,101.06 183.737,114.394 180.5,127.5 Z"/></g>
<g><path style="opacity:1" fill="#615978" d="M 98.5,107.5 C 97.8333,107.167 97.1667,106.833 96.5,106.5C 96.3341,101.489 96.5007,96.4889 97,91.5C 98.3967,96.7081 98.8967,102.041 98.5,107.5 Z"/></g>
<g><path style="opacity:1" fill="#665e7e" d="M 136.5,107.5 C 135.833,107.5 135.167,107.5 134.5,107.5C 134.71,101.034 135.377,101.034 136.5,107.5 Z"/></g>
<g><path style="opacity:1" fill="#a092c5" d="M 163.5,89.5 C 164.239,89.369 164.906,89.5357 165.5,90C 159.326,95.5189 154.493,102.019 151,109.5C 149.578,111.638 147.745,112.805 145.5,113C 147.891,111.691 147.891,110.691 145.5,110C 151.022,102.651 157.022,95.818 163.5,89.5 Z"/></g>
<g><path style="opacity:1" fill="#3f394d" d="M 143.5,108.5 C 142.041,108.567 140.708,108.234 139.5,107.5C 139.77,104.298 140.604,101.298 142,98.5C 142.419,100.68 142.252,102.846 141.5,105C 141.873,106.55 142.54,107.717 143.5,108.5 Z"/></g>
<g><path style="opacity:1" fill="#8579a4" d="M 100.5,125.5 C 100.167,126.167 99.8333,126.833 99.5,127.5C 97.5858,122.744 97.7525,117.744 100,112.5C 99.5417,116.992 99.7084,121.325 100.5,125.5 Z"/></g>
<g><path style="opacity:1" fill="#19171e" d="M 158.5,129.5 C 157.209,129.263 156.209,129.596 155.5,130.5C 153.473,130.662 151.473,130.495 149.5,130C 150.833,129.333 150.833,128.667 149.5,128C 152.03,126.578 154.697,126.245 157.5,127C 156.833,127.333 156.167,127.667 155.5,128C 157.506,128.083 158.506,128.583 158.5,129.5 Z"/></g>
<g><path style="opacity:1" fill="#494359" d="M 180.5,127.5 C 180.688,129.103 180.188,130.437 179,131.5C 178.652,129.86 179.152,128.527 180.5,127.5 Z"/></g>
<g><path style="opacity:1" fill="#4e485f" d="M 158.5,129.5 C 159.429,130.315 160.429,131.148 161.5,132C 159.167,132.667 156.833,132.667 154.5,132C 155.056,131.617 155.389,131.117 155.5,130.5C 156.209,129.596 157.209,129.263 158.5,129.5 Z"/></g>
<g><path style="opacity:1" fill="#4b455c" d="M 128.5,140.5 C 128.5,139.833 128.5,139.167 128.5,138.5C 129.212,136.072 130.212,133.739 131.5,131.5C 132.002,130.479 132.668,130.312 133.5,131C 131.723,134.209 130.057,137.376 128.5,140.5 Z"/></g>
<g><path style="opacity:1" fill="#514963" d="M 186.5,137.5 C 185.766,136.292 185.433,134.959 185.5,133.5C 188.797,132.145 189.13,132.645 186.5,135C 188.986,135.705 188.986,136.538 186.5,137.5 Z"/></g>
<g><path style="opacity:1" fill="#bfaeec" d="M 87.5,151.5 C 86.791,152.404 85.791,152.737 84.5,152.5C 79.9099,146.949 80.5765,142.116 86.5,138C 94.1495,135.855 98.8162,138.522 100.5,146C 99.7736,148.893 98.1069,151.059 95.5,152.5C 95.7978,149.475 95.2978,146.475 94,143.5C 92.8668,141.789 91.3668,141.289 89.5,142C 86.532,144.703 85.8654,147.869 87.5,151.5 Z"/></g>
<g><path style="opacity:1" fill="#bba9e6" d="M 136.5,153.5 C 130.952,142.183 134.619,137.35 147.5,139C 151.999,142.655 152.999,146.988 150.5,152C 148.975,153.009 147.308,153.509 145.5,153.5C 145.664,150.813 145.497,148.146 145,145.5C 142.461,141.624 140.128,141.624 138,145.5C 137.817,148.365 137.317,151.031 136.5,153.5 Z"/></g>
<g><path style="opacity:1" fill="#c2b0ef" d="M 42.5,141.5 C 49.8367,140.399 56.5034,141.899 62.5,146C 62.9889,147.552 62.3223,148.719 60.5,149.5C 59.3832,146.721 58.2166,146.388 57,148.5C 55.7189,147.353 55.3856,147.687 56,149.5C 56.7083,150.381 57.5416,151.047 58.5,151.5C 59.7372,154.245 61.5705,156.578 64,158.5C 63.8516,159.825 64.0183,160.992 64.5,162C 69.8333,162.333 75.1667,162.667 80.5,163C 75.8452,163.499 71.1785,163.666 66.5,163.5C 65.6516,172.287 63.4849,172.62 60,164.5C 59.7266,166.101 59.2266,167.601 58.5,169C 54.4326,170.256 53.4326,169.089 55.5,165.5C 53.0876,162.665 51.7543,159.331 51.5,155.5C 52.8221,155.33 53.9887,155.663 55,156.5C 54.8991,152.399 52.7324,150.232 48.5,150C 49.5171,151.049 49.6838,152.216 49,153.5C 45.9747,150.515 42.8081,148.515 39.5,147.5C 39.1746,150.546 40.3413,153.213 43,155.5C 43.4226,154.044 44.2559,153.544 45.5,154C 48.1156,155.709 49.1156,157.876 48.5,160.5C 49.5921,162.183 50.2587,164.016 50.5,166C 50.7186,167.971 49.8853,169.138 48,169.5C 46.155,166.999 44.4884,164.333 43,161.5C 42.3333,164.167 41.6667,166.833 41,169.5C 40.3946,167.519 39.3946,167.185 38,168.5C 37.7165,166.114 36.7165,165.448 35,166.5C 34.1922,164.577 33.6922,162.577 33.5,160.5C 35.4405,156.678 36.7738,152.678 37.5,148.5C 35.1727,148.247 33.1727,148.914 31.5,150.5C 30.914,150.291 30.414,149.957 30,149.5C 27.9197,151.993 26.0864,154.659 24.5,157.5C 25.664,157.165 26.9974,157.165 28.5,157.5C 31.2376,161.046 32.571,165.046 32.5,169.5C 29.8127,169.664 27.146,169.497 24.5,169C 21.3072,167.974 19.9738,165.808 20.5,162.5C 23.2772,150.723 30.6105,143.723 42.5,141.5 Z"/></g>
<g><path style="opacity:1" fill="#282530" d="M 42.5,140.5 C 42.5,140.833 42.5,141.167 42.5,141.5C 30.6105,143.723 23.2772,150.723 20.5,162.5C 19.8333,163.5 19.1667,164.5 18.5,165.5C 20.3326,151.333 28.3326,142.999 42.5,140.5 Z"/></g>
<g><path style="opacity:1" fill="#c0aeec" d="M 192.5,145.5 C 202.567,144.239 211.9,146.406 220.5,152C 221.252,152.671 221.586,153.504 221.5,154.5C 220.577,153.697 219.577,153.53 218.5,154C 219.667,155.167 220.833,156.333 222,157.5C 223.039,156.756 223.539,155.756 223.5,154.5C 224.965,155.406 225.965,156.739 226.5,158.5C 225.915,161.503 225.248,164.503 224.5,167.5C 223.914,167.709 223.414,168.043 223,168.5C 222.911,164.972 222.244,161.638 221,158.5C 222.099,162.449 221.432,166.115 219,169.5C 218.904,166.549 218.071,163.882 216.5,161.5C 215.808,164.145 214.808,166.645 213.5,169C 212.833,169.667 212.167,169.667 211.5,169C 212.728,167.51 212.728,166.01 211.5,164.5C 211.539,163.244 211.039,162.244 210,161.5C 209.338,162.984 208.504,164.317 207.5,165.5C 206.992,167.233 206.159,167.566 205,166.5C 204.86,163.957 204.194,161.623 203,159.5C 202.631,162.877 202.631,166.21 203,169.5C 202.667,169.833 202.333,170.167 202,170.5C 200.933,169.809 199.766,169.309 198.5,169C 199.685,161.763 197.851,155.263 193,149.5C 192.51,150.793 192.343,152.127 192.5,153.5C 191.761,153.369 191.094,153.536 190.5,154C 191.667,155.833 192.833,157.667 194,159.5C 194.278,158.584 194.778,157.918 195.5,157.5C 196.58,160.743 196.747,164.076 196,167.5C 194.465,168.233 192.632,168.233 190.5,167.5C 189.686,165.234 189.186,162.9 189,160.5C 188.997,163.758 187.83,166.425 185.5,168.5C 184.28,167.289 183.113,167.289 182,168.5C 180.883,167.051 180.216,165.384 180,163.5C 179.444,165.595 178.944,165.762 178.5,164C 180.012,161.886 180.346,159.719 179.5,157.5C 180.313,156.186 181.313,155.019 182.5,154C 181.549,153.282 181.383,152.449 182,151.5C 185.351,149.079 188.851,147.079 192.5,145.5 Z"/></g>
<g><path style="opacity:1" fill="#c0aeec" d="M 82.5,152.5 C 83.9303,153.537 85.597,154.204 87.5,154.5C 91.2154,154.804 94.7154,154.137 98,152.5C 98.7504,153.126 99.5838,153.626 100.5,154C 95.984,157.008 90.984,158.174 85.5,157.5C 84.8333,157.833 84.1667,158.167 83.5,158.5C 81.6208,157.659 79.6208,157.325 77.5,157.5C 77.5,156.833 77.8333,156.5 78.5,156.5C 79.9778,156.762 81.3112,156.429 82.5,155.5C 79.2682,154.051 75.9349,152.884 72.5,152C 73.3081,151.692 73.9747,151.192 74.5,150.5C 72.6314,149.376 70.6314,148.543 68.5,148C 71.1667,147.333 73.8333,147.333 76.5,148C 78.6838,149.363 80.6838,150.863 82.5,152.5 Z"/></g>
<g><path style="opacity:1" fill="#bbaae7" d="M 136.5,153.5 C 136.611,154.117 136.944,154.617 137.5,155C 146.27,156.077 153.77,153.577 160,147.5C 161.662,147.388 162.829,148.054 163.5,149.5C 156.532,155.308 148.532,158.475 139.5,159C 140.696,159.654 140.696,160.154 139.5,160.5C 136.976,158.81 134.976,156.643 133.5,154C 134.448,153.517 135.448,153.351 136.5,153.5 Z"/></g>
<g><path style="opacity:1" fill="#786e94" d="M 60.5,149.5 C 60.6107,150.117 60.944,150.617 61.5,151C 60.2312,150.891 59.2312,151.058 58.5,151.5C 57.5416,151.047 56.7083,150.381 56,149.5C 55.3856,147.687 55.7189,147.353 57,148.5C 58.2166,146.388 59.3832,146.721 60.5,149.5 Z"/></g>
<g><path style="opacity:1" fill="#9487b7" d="M 177.5,145.5 C 178.289,145.783 178.956,146.283 179.5,147C 177.167,147.333 174.833,147.667 172.5,148C 174.949,148.725 177.283,149.725 179.5,151C 175.974,151.69 172.64,151.19 169.5,149.5C 169.5,148.5 169.5,147.5 169.5,146.5C 172.385,146.806 175.052,146.473 177.5,145.5 Z"/></g>
<g><path style="opacity:1" fill="#74698f" d="M 125.5,148.5 C 126.289,148.783 126.956,149.283 127.5,150C 126.058,150.377 125.058,151.21 124.5,152.5C 123.522,152.189 122.855,151.522 122.5,150.5C 123.781,150.984 124.781,150.317 125.5,148.5 Z"/></g>
<g><path style="opacity:1" fill="#534b66" d="M 196.5,151.5 C 196.897,150.475 197.563,150.308 198.5,151C 200.007,151.837 200.507,153.004 200,154.5C 198.961,153.29 197.794,152.29 196.5,151.5 Z"/></g>
<g><path style="opacity:1" fill="#1b1920" d="M 201.5,151.5 C 205.925,149.973 210.258,150.473 214.5,153C 211.681,153.068 209.514,154.234 208,156.5C 206.223,154.21 204.056,152.543 201.5,151.5 Z"/></g>
<g><path style="opacity:1" fill="#524b65" d="M 87.5,151.5 C 88.625,152.348 88.625,153.348 87.5,154.5C 85.597,154.204 83.9303,153.537 82.5,152.5C 83.1667,152.5 83.8333,152.5 84.5,152.5C 85.791,152.737 86.791,152.404 87.5,151.5 Z"/></g>
<g><path style="opacity:1" fill="#7d729a" d="M 78.5,156.5 C 77.8333,156.5 77.5,156.833 77.5,157.5C 72.4459,156.994 67.4459,156.161 62.5,155C 68.0162,154.786 73.3495,155.286 78.5,156.5 Z"/></g>
<g><path style="opacity:1" fill="#6e6488" d="M 192.5,153.5 C 193.974,154.436 194.974,155.77 195.5,157.5C 194.778,157.918 194.278,158.584 194,159.5C 192.833,157.667 191.667,155.833 190.5,154C 191.094,153.536 191.761,153.369 192.5,153.5 Z"/></g>
<g><path style="opacity:1" fill="#696080" d="M 221.5,154.5 C 222.396,153.494 223.062,153.494 223.5,154.5C 223.539,155.756 223.039,156.756 222,157.5C 220.833,156.333 219.667,155.167 218.5,154C 219.577,153.53 220.577,153.697 221.5,154.5 Z"/></g>
<g><path style="opacity:1" fill="#3c374b" d="M 110.5,156.5 C 114.833,156.5 119.167,156.5 123.5,156.5C 122.167,157.167 120.833,157.833 119.5,158.5C 116.5,158.5 113.5,158.5 110.5,158.5C 110.5,157.833 110.5,157.167 110.5,156.5 Z"/></g>
<g><path style="opacity:1" fill="#998bbd" d="M 168.5,155.5 C 170.527,155.338 172.527,155.505 174.5,156C 170.878,157.106 167.211,157.439 163.5,157C 165.382,156.802 167.048,156.302 168.5,155.5 Z"/></g>
<g><path style="opacity:1" fill="#6f6589" d="M 85.5,157.5 C 87.3819,158.751 89.3819,159.918 91.5,161C 88.6055,160.868 85.9388,160.035 83.5,158.5C 84.1667,158.167 84.8333,157.833 85.5,157.5 Z"/></g>
<g><path style="opacity:1" fill="#a798ce" d="M 155.5,158.5 C 160.411,158.836 160.077,159.502 154.5,160.5C 153.833,160.333 153.167,160.167 152.5,160C 153.737,159.768 154.737,159.268 155.5,158.5 Z"/></g>
<g><path style="opacity:1" fill="#baa9e6" d="M 110.5,158.5 C 113.5,158.5 116.5,158.5 119.5,158.5C 121.5,158.833 123.5,159.167 125.5,159.5C 125.67,160.822 125.337,161.989 124.5,163C 122.555,162.872 120.722,163.038 119,163.5C 118.219,164.944 118.386,166.277 119.5,167.5C 123.5,165.167 127.5,162.833 131.5,160.5C 134.819,162.142 138.153,163.809 141.5,165.5C 141.291,166.086 140.957,166.586 140.5,167C 142.167,167.333 143.833,167.667 145.5,168C 144.299,168.903 143.465,170.069 143,171.5C 139.869,170.794 136.702,170.127 133.5,169.5C 132.808,170.025 132.308,170.692 132,171.5C 129.741,170.464 127.408,170.464 125,171.5C 122.849,171.227 120.849,170.561 119,169.5C 118.667,169.833 118.333,170.167 118,170.5C 116.837,168.715 116.17,166.715 116,164.5C 115.808,166.577 115.308,168.577 114.5,170.5C 111.833,170.5 109.167,170.5 106.5,170.5C 105.808,169.975 105.308,169.308 105,168.5C 100.832,170.091 96.3323,170.758 91.5,170.5C 89.9745,170.006 88.6412,169.339 87.5,168.5C 88.209,167.596 89.209,167.263 90.5,167.5C 92.5648,167.483 94.5648,167.15 96.5,166.5C 96.56,167.043 96.8933,167.376 97.5,167.5C 98.521,166.998 98.6877,166.332 98,165.5C 96.6976,164.915 95.531,164.249 94.5,163.5C 96.1233,162.221 97.79,160.887 99.5,159.5C 100.598,160.615 101.765,160.615 103,159.5C 104.941,162.109 107.441,163.943 110.5,165C 111.191,166.067 111.691,167.234 112,168.5C 112.814,166.098 112.647,163.765 111.5,161.5C 110.264,162.246 108.93,162.579 107.5,162.5C 107.468,160.381 108.468,159.048 110.5,158.5 Z"/></g>
<g><path style="opacity:1" fill="#665e7e" d="M 211.5,164.5 C 210.25,164.577 209.417,165.244 209,166.5C 208.617,165.944 208.117,165.611 207.5,165.5C 208.504,164.317 209.338,162.984 210,161.5C 211.039,162.244 211.539,163.244 211.5,164.5 Z"/></g>
<g><path style="opacity:1" fill="#685f80" d="M 94.5,163.5 C 95.531,164.249 96.6976,164.915 98,165.5C 98.6877,166.332 98.521,166.998 97.5,167.5C 96.8933,167.376 96.56,167.043 96.5,166.5C 95.3915,165.71 94.0581,165.21 92.5,165C 93.0442,164.283 93.7109,163.783 94.5,163.5 Z"/></g>
<g><path style="opacity:1" fill="#5f5675" d="M 90.5,167.5 C 89.209,167.263 88.209,167.596 87.5,168.5C 75.9294,168.544 75.7628,167.877 87,166.5C 88.3847,166.514 89.5514,166.848 90.5,167.5 Z"/></g>
</svg>
