<?xml version="1.0" encoding="UTF-8"?>
<!DOCTYPE svg PUBLIC "-//W3C//DTD SVG 1.1//EN" "http://www.w3.org/Graphics/SVG/1.1/DTD/svg11.dtd">
<svg xmlns="http://www.w3.org/2000/svg" version="1.1" width="250px" height="250px" style="shape-rendering:geometricPrecision; text-rendering:geometricPrecision; image-rendering:optimizeQuality; fill-rule:evenodd; clip-rule:evenodd" xmlns:xlink="http://www.w3.org/1999/xlink">
<g><path style="opacity:0.909" fill="#020402" d="M 45.5,5.5 C 97.8344,5.33334 150.168,5.50001 202.5,6C 226.683,10.5176 240.183,25.0176 243,49.5C 243.667,99.5 243.667,149.5 243,199.5C 240.174,223.991 226.674,238.491 202.5,243C 150.5,243.667 98.5,243.667 46.5,243C 24.4155,239.717 10.9155,227.217 6,205.5C 5.33333,151.5 5.33333,97.5 6,43.5C 10.9097,22.0877 24.0763,9.42104 45.5,5.5 Z"/></g>
<g><path style="opacity:1" fill="#98fc9e" d="M 46.5,10.5 C 98.1677,10.3333 149.834,10.5 201.5,11C 220.65,13.8157 232.483,24.6491 237,43.5C 237.667,97.8333 237.667,152.167 237,206.5C 231.757,224.236 219.924,234.736 201.5,238C 150.167,238.667 98.8333,238.667 47.5,238C 26.6986,234.532 14.5319,222.365 11,201.5C 10.3333,149.167 10.3333,96.8333 11,44.5C 15.8704,25.7944 27.7037,14.4611 46.5,10.5 Z"/></g>
<g><path style="opacity:1" fill="#090e09" d="M 117.5,51.5 C 121.846,51.3343 126.179,51.501 130.5,52C 137.789,54.2863 145.123,56.2863 152.5,58C 158.969,63.4677 165.136,69.301 171,75.5C 180.195,89.8091 178.028,101.976 164.5,112C 161.551,113.761 158.384,114.928 155,115.5C 152.594,115.297 150.594,114.297 149,112.5C 152.664,126.471 156.664,140.471 161,154.5C 164.46,159.087 167.127,164.087 169,169.5C 169.944,174.072 169.444,178.405 167.5,182.5C 169.121,184.624 170.954,186.624 173,188.5C 174.098,198.246 169.598,203.246 159.5,203.5C 157.9,203.449 156.4,203.116 155,202.5C 151.268,206.696 146.602,208.362 141,207.5C 134.745,207.924 129.745,205.591 126,200.5C 125.503,198.19 125.337,195.857 125.5,193.5C 124.325,193.281 123.325,193.614 122.5,194.5C 123.335,200.625 120.668,204.791 114.5,207C 110.167,207.667 105.833,207.667 101.5,207C 95.61,203.997 89.2767,202.664 82.5,203C 74.9507,200.07 72.784,194.903 76,187.5C 77.7799,185.707 79.6132,184.04 81.5,182.5C 78.9521,177.783 78.1188,172.783 79,167.5C 81.6322,162.186 84.2989,156.853 87,151.5C 89.5893,138.493 93.7559,126.16 99.5,114.5C 98.9231,112.37 97.9231,112.537 96.5,115C 91.1867,116.014 86.52,114.681 82.5,111C 69.5535,100.261 68.0535,88.0944 78,74.5C 84.6141,66.8795 92.1141,60.3795 100.5,55C 106.485,55.3941 112.152,54.2274 117.5,51.5 Z"/></g>
<g><path style="opacity:1" fill="#96f99c" d="M 120.5,55.5 C 132.947,54.45 141.78,59.45 147,70.5C 147.918,73.5982 148.418,76.7649 148.5,80C 147.86,88.1574 147.36,96.324 147,104.5C 143.716,111.361 142.049,118.694 142,126.5C 140.534,128.325 138.701,128.825 136.5,128C 133.018,126.756 130.018,124.756 127.5,122C 137.2,109.99 134.2,104.657 118.5,106C 113.17,110.908 113.336,115.742 119,120.5C 119.749,121.635 119.583,122.635 118.5,123.5C 114.902,126.135 110.902,126.968 106.5,126C 105.874,125.25 105.374,124.416 105,123.5C 104.916,117.971 103.916,112.638 102,107.5C 101.232,94.8327 100.898,82.166 101,69.5C 103.833,66 106.667,62.5 109.5,59C 113.254,57.6912 116.921,56.5246 120.5,55.5 Z"/></g>
<g><path style="opacity:1" fill="#94f69a" d="M 100.5,59.5 C 101.552,59.3505 102.552,59.5172 103.5,60C 100.727,62.3834 98.5605,65.2167 97,68.5C 97.1814,81.1618 97.1814,93.8284 97,106.5C 96.6905,107.766 96.1905,108.933 95.5,110C 81.42,109.238 75.2533,101.738 77,87.5C 77.7468,82.0064 80.0801,77.3398 84,73.5C 89.3976,68.5934 94.8976,63.9268 100.5,59.5 Z"/></g>
<g><path style="opacity:1" fill="#94f69a" d="M 144.5,60.5 C 146.089,59.3789 147.756,59.5456 149.5,61C 157.333,66.1667 163.833,72.6667 169,80.5C 175.558,95.7059 171.058,105.706 155.5,110.5C 154.006,110.291 152.839,109.624 152,108.5C 151.9,96.164 151.9,83.8306 152,71.5C 150.971,66.7591 148.471,63.0925 144.5,60.5 Z"/></g>
<g><path style="opacity:1" fill="#111710" d="M 110.5,79.5 C 115.351,78.8681 117.851,80.8681 118,85.5C 117.586,85.9574 117.086,86.2907 116.5,86.5C 115.389,85.3887 114.055,84.722 112.5,84.5C 110.95,85.7323 109.283,86.2323 107.5,86C 106.483,84.9505 106.316,83.7839 107,82.5C 108.145,81.3636 109.312,80.3636 110.5,79.5 Z"/></g>
<g><path style="opacity:1" fill="#121811" d="M 133.5,79.5 C 138.322,78.8359 140.822,80.8359 141,85.5C 140.439,86.0219 139.772,86.3552 139,86.5C 137.667,85.8333 136.333,85.1667 135,84.5C 133.607,85.6151 132.107,86.1151 130.5,86C 129.483,84.9505 129.316,83.7839 130,82.5C 131.145,81.3636 132.312,80.3636 133.5,79.5 Z"/></g>
<g><path style="opacity:1" fill="#93f398" d="M 118.5,110.5 C 122.375,110.085 126.042,110.585 129.5,112C 124.85,120.853 121.183,120.353 118.5,110.5 Z"/></g>
<g><path style="opacity:1" fill="#96f99c" d="M 127.5,162.5 C 127.5,171.167 127.5,179.833 127.5,188.5C 125.167,188.5 122.833,188.5 120.5,188.5C 120.314,178.315 120.647,168.149 121.5,158C 121.333,156.167 121.167,154.333 121,152.5C 120,151.167 119,151.167 118,152.5C 115.658,165.735 114.991,179.068 116,192.5C 119.702,196.655 119.036,199.989 114,202.5C 113.667,200.5 113.333,198.5 113,196.5C 112.282,195.549 111.449,195.383 110.5,196C 109.565,198.381 109.232,200.881 109.5,203.5C 107.833,203.5 106.167,203.5 104.5,203.5C 104.708,201.08 104.374,198.747 103.5,196.5C 102.311,195.571 100.978,195.238 99.5,195.5C 99.6797,202.65 98.3463,203.15 95.5,197C 96.0362,194.76 97.2029,192.927 99,191.5C 99.9836,180.4 99.4836,169.4 97.5,158.5C 94.7569,158.077 93.4235,159.244 93.5,162C 94.6039,171.809 94.7706,181.643 94,191.5C 92.2687,193.862 91.4354,196.529 91.5,199.5C 90.5,199.5 89.5,199.5 88.5,199.5C 88.5,196.833 88.5,194.167 88.5,191.5C 87.1667,191.5 85.8333,191.5 84.5,191.5C 84.5,193.833 84.5,196.167 84.5,198.5C 79.9633,197.774 78.13,195.107 79,190.5C 81.6927,188.427 84.1927,186.26 86.5,184C 83.8106,178.083 82.9773,171.916 84,165.5C 86.254,161.993 88.254,158.327 90,154.5C 92.3933,144.986 95.3933,135.653 99,126.5C 99.414,126.043 99.914,125.709 100.5,125.5C 103.046,129.542 106.712,131.709 111.5,132C 114.701,134.964 118.535,136.13 123,135.5C 129.675,134.932 136.175,133.765 142.5,132C 144.617,130.269 146.117,128.102 147,125.5C 150.77,134.911 153.77,144.578 156,154.5C 159.186,158.873 161.853,163.54 164,168.5C 164.958,173.839 164.458,179.006 162.5,184C 163.976,186.305 165.976,188.138 168.5,189.5C 170.7,194.305 169.2,197.305 164,198.5C 163.689,196.444 163.189,194.444 162.5,192.5C 161.635,191.417 160.635,191.251 159.5,192C 158.736,194.069 158.236,196.236 158,198.5C 157.257,195.489 155.924,192.822 154,190.5C 152.95,181.027 153.45,171.693 155.5,162.5C 155.272,160.603 154.272,159.27 152.5,158.5C 150.869,160.059 150.036,162.059 150,164.5C 149.333,173.833 149.333,183.167 150,192.5C 153.448,195.744 153.281,198.744 149.5,201.5C 148.702,199.922 148.202,198.256 148,196.5C 146.951,195.483 145.784,195.316 144.5,196C 143.565,198.381 143.232,200.881 143.5,203.5C 141.833,203.5 140.167,203.5 138.5,203.5C 138.768,200.881 138.435,198.381 137.5,196C 136.551,195.383 135.718,195.549 135,196.5C 134.506,198.134 134.34,199.801 134.5,201.5C 129.146,199.928 128.313,196.928 132,192.5C 132.799,179.469 132.466,166.469 131,153.5C 130.047,151.408 128.714,151.075 127,152.5C 126.828,155.826 126.995,159.159 127.5,162.5 Z"/></g>
<g><path style="opacity:1" fill="#89e48f" d="M 122.5,125.5 C 125.554,126.196 128.22,127.696 130.5,130C 125.77,131.95 121.104,131.95 116.5,130C 118.747,128.723 120.747,127.223 122.5,125.5 Z"/></g>
<g><path style="opacity:1" fill="#6ab06f" d="M 127.5,162.5 C 128.493,171.318 128.827,180.318 128.5,189.5C 125.615,189.806 122.948,189.473 120.5,188.5C 122.833,188.5 125.167,188.5 127.5,188.5C 127.5,179.833 127.5,171.167 127.5,162.5 Z"/></g>
</svg>
