<?xml version="1.0" encoding="UTF-8"?>
<!DOCTYPE svg PUBLIC "-//W3C//DTD SVG 1.1//EN" "http://www.w3.org/Graphics/SVG/1.1/DTD/svg11.dtd">
<svg xmlns="http://www.w3.org/2000/svg" version="1.1" width="250px" height="250px" style="shape-rendering:geometricPrecision; text-rendering:geometricPrecision; image-rendering:optimizeQuality; fill-rule:evenodd; clip-rule:evenodd" xmlns:xlink="http://www.w3.org/1999/xlink">
<g><path style="opacity:0.909" fill="#030404" d="M 45.5,5.5 C 97.8344,5.33334 150.168,5.50001 202.5,6C 226.683,10.5176 240.183,25.0176 243,49.5C 243.667,99.5 243.667,149.5 243,199.5C 240.174,223.991 226.674,238.491 202.5,243C 150.5,243.667 98.5,243.667 46.5,243C 24.4155,239.717 10.9155,227.217 6,205.5C 5.33333,151.5 5.33333,97.5 6,43.5C 10.9097,22.0877 24.0763,9.42104 45.5,5.5 Z"/></g>
<g><path style="opacity:1" fill="#bdfcf9" d="M 46.5,10.5 C 98.1677,10.3333 149.834,10.5 201.5,11C 220.65,13.8157 232.483,24.6491 237,43.5C 237.667,97.8333 237.667,152.167 237,206.5C 231.757,224.236 219.924,234.736 201.5,238C 150.167,238.667 98.8333,238.667 47.5,238C 26.6986,234.532 14.5319,222.365 11,201.5C 10.3333,149.167 10.3333,96.8333 11,44.5C 15.8704,25.7944 27.7037,14.4611 46.5,10.5 Z"/></g>
<g><path style="opacity:1" fill="#030404" d="M 123.5,149.5 C 123.44,148.957 123.107,148.624 122.5,148.5C 121.501,162.15 121.167,175.817 121.5,189.5C 117.121,194.88 112.121,199.547 106.5,203.5C 101.247,199.753 96.4135,195.42 92,190.5C 91.1786,187.446 91.3452,184.446 92.5,181.5C 94.5,180.167 96.1667,178.5 97.5,176.5C 95.0819,174.091 93.0819,171.424 91.5,168.5C 93.4707,166.192 95.4707,163.858 97.5,161.5C 95.8509,159.35 94.0176,157.35 92,155.5C 91.5017,152.183 91.335,148.85 91.5,145.5C 85.5663,146.111 79.8996,145.278 74.5,143C 73.2125,141.59 72.0458,140.09 71,138.5C 70.3333,122.5 70.3333,106.5 71,90.5C 72.4672,86.3661 75.3005,83.5327 79.5,82C 90.8333,81.6667 102.167,81.3333 113.5,81C 118.532,75.6335 123.865,70.6335 129.5,66C 134.292,63.9675 138.959,64.3008 143.5,67C 153.667,77.1667 163.833,87.3333 174,97.5C 175.504,101.039 175.837,104.705 175,108.5C 172.741,112.595 169.907,116.262 166.5,119.5C 176.119,130.621 186.286,141.288 197,151.5C 197.667,157.833 197.667,164.167 197,170.5C 196.25,171.126 195.416,171.626 194.5,172C 187.724,172.92 181.057,172.586 174.5,171C 170.835,167.702 169.502,163.535 170.5,158.5C 161.311,160.486 157.644,156.819 159.5,147.5C 156.813,147.664 154.146,147.497 151.5,147C 149.023,145.357 146.69,143.524 144.5,141.5C 141.314,144.521 137.98,147.354 134.5,150C 130.779,150.678 127.112,150.511 123.5,149.5 Z"/></g>
<g><path style="opacity:1" fill="#baf8f5" d="M 175.5,151.5 C 173.052,150.527 170.385,150.194 167.5,150.5C 167.806,147.615 167.473,144.948 166.5,142.5C 166.389,141.883 166.056,141.383 165.5,141C 161.5,140.667 157.5,140.333 153.5,140C 150.897,136.724 147.73,134.224 144,132.5C 140.855,135.645 137.688,138.812 134.5,142C 131.97,143.422 129.303,143.755 126.5,143C 116,133.833 106.167,124 97,113.5C 96.3333,111.5 96.3333,109.5 97,107.5C 108.833,95.6667 120.667,83.8333 132.5,72C 134.5,71.3333 136.5,71.3333 138.5,72C 148.333,81.8333 158.167,91.6667 168,101.5C 168.667,103.5 168.667,105.5 168,107.5C 165.036,111.466 161.703,115.133 158,118.5C 157.333,119.5 157.333,120.5 158,121.5C 168.667,132.167 179.333,142.833 190,153.5C 190.499,157.486 190.666,161.486 190.5,165.5C 186.486,165.666 182.486,165.499 178.5,165C 177.7,160.92 177.2,156.753 177,152.5C 176.617,151.944 176.117,151.611 175.5,151.5 Z"/></g>
<g><path style="opacity:1" fill="#b8f5f2" d="M 80.5,88.5 C 88.84,88.3336 97.1733,88.5003 105.5,89C 99.967,94.1983 94.8004,99.6983 90,105.5C 89.1462,109.625 89.4796,113.625 91,117.5C 98.6667,125.167 106.333,132.833 114,140.5C 114.667,156.5 114.667,172.5 114,188.5C 111.95,190.888 109.616,192.888 107,194.5C 103.5,192.333 100.667,189.5 98.5,186C 99.9874,183.179 102.154,181.013 105,179.5C 105.638,178.391 106.138,177.225 106.5,176C 104.704,173.367 102.704,170.867 100.5,168.5C 102.817,166.196 104.817,163.696 106.5,161C 104.385,157.882 101.885,155.048 99,152.5C 98.6667,148.5 98.3333,144.5 98,140.5C 92.5829,139.691 87.0829,139.191 81.5,139C 79.3333,138.167 77.8333,136.667 77,134.5C 76.3333,120.833 76.3333,107.167 77,93.5C 77.2572,91.0935 78.4238,89.4268 80.5,88.5 Z"/></g>
<g><path style="opacity:1" fill="#060808" d="M 125.5,90.5 C 135.987,89.4863 140.487,94.153 139,104.5C 135.1,109.588 130.267,113.254 124.5,115.5C 114.941,112.965 112.441,107.298 117,98.5C 119.729,95.6007 122.562,92.934 125.5,90.5 Z"/></g>
<g><path style="opacity:1" fill="#aae3e0" d="M 128.5,96.5 C 132.225,96.7796 133.392,98.7796 132,102.5C 130.167,104.333 128.333,106.167 126.5,108C 122.664,108.825 121.164,107.325 122,103.5C 124.372,101.297 126.539,98.9635 128.5,96.5 Z"/></g>
<g><path style="opacity:1" fill="#8dbdbb" d="M 123.5,149.5 C 122.833,162.833 122.167,176.167 121.5,189.5C 121.167,175.817 121.501,162.15 122.5,148.5C 123.107,148.624 123.44,148.957 123.5,149.5 Z"/></g>
<g><path style="opacity:1" fill="#587675" d="M 166.5,142.5 C 167.473,144.948 167.806,147.615 167.5,150.5C 170.385,150.194 173.052,150.527 175.5,151.5C 172.5,151.5 169.5,151.5 166.5,151.5C 166.5,148.5 166.5,145.5 166.5,142.5 Z"/></g>
</svg>
