<?xml version="1.0" encoding="UTF-8"?>
<!DOCTYPE svg PUBLIC "-//W3C//DTD SVG 1.1//EN" "http://www.w3.org/Graphics/SVG/1.1/DTD/svg11.dtd">
<svg xmlns="http://www.w3.org/2000/svg" version="1.1" width="250px" height="250px" style="shape-rendering:geometricPrecision; text-rendering:geometricPrecision; image-rendering:optimizeQuality; fill-rule:evenodd; clip-rule:evenodd" xmlns:xlink="http://www.w3.org/1999/xlink">
<g><path style="opacity:0.909" fill="#030402" d="M 45.5,5.5 C 97.8344,5.33334 150.168,5.50001 202.5,6C 226.683,10.5176 240.183,25.0176 243,49.5C 243.667,99.5 243.667,149.5 243,199.5C 240.174,223.991 226.674,238.491 202.5,243C 150.5,243.667 98.5,243.667 46.5,243C 24.4155,239.717 10.9155,227.217 6,205.5C 5.33333,151.5 5.33333,97.5 6,43.5C 10.9097,22.0877 24.0763,9.42104 45.5,5.5 Z"/></g>
<g><path style="opacity:1" fill="#d4fb94" d="M 46.5,10.5 C 98.1677,10.3333 149.834,10.5 201.5,11C 220.65,13.8157 232.483,24.6491 237,43.5C 237.667,97.8333 237.667,152.167 237,206.5C 231.757,224.236 219.924,234.736 201.5,238C 150.167,238.667 98.8333,238.667 47.5,238C 26.6986,234.532 14.5319,222.365 11,201.5C 10.3333,149.167 10.3333,96.8333 11,44.5C 15.8704,25.7944 27.7037,14.4611 46.5,10.5 Z"/></g>
<g><path style="opacity:1" fill="#0f110b" d="M 57.5,68.5 C 102.585,68.0104 147.585,68.5104 192.5,70C 193,70.5 193.5,71 194,71.5C 194.333,99.5 194.667,127.5 195,155.5C 204,165.833 213,176.167 222,186.5C 224.965,192.832 223.465,197.666 217.5,201C 155.167,201.667 92.8333,201.667 30.5,201C 25.3315,197.19 24.1648,192.357 27,186.5C 36,176.167 45,165.833 54,155.5C 54.1668,127.161 54.6668,98.8275 55.5,70.5C 56.5223,70.1445 57.189,69.4778 57.5,68.5 Z"/></g>
<g><path style="opacity:1" fill="#d4fa94" d="M 59.5,72.5 C 102.876,72.1722 146.209,72.5055 189.5,73.5C 190.333,101.161 190.833,128.827 191,156.5C 199.477,167.278 208.31,177.778 217.5,188C 155.5,188.667 93.5,188.667 31.5,188C 40.3333,177.833 49.1667,167.667 58,157.5C 58.1751,129.095 58.6751,100.761 59.5,72.5 Z"/></g>
<g><path style="opacity:1" fill="#465232" d="M 117.5,74.5 C 122.179,74.3342 126.845,74.5008 131.5,75C 129.2,76.1091 126.7,76.6091 124,76.5C 121.39,76.4668 119.223,75.8001 117.5,74.5 Z"/></g>
<g><path style="opacity:1" fill="#13160e" d="M 63.5,77.5 C 104.5,77.5 145.5,77.5 186.5,77.5C 186.5,103.5 186.5,129.5 186.5,155.5C 145.167,155.5 103.833,155.5 62.5,155.5C 62.1763,129.426 62.5096,103.426 63.5,77.5 Z"/></g>
<g><path style="opacity:1" fill="#8ca561" d="M 184.5,80.5 C 144.833,80.5 105.167,80.5 65.5,80.5C 65.5,104.833 65.5,129.167 65.5,153.5C 64.5023,129.006 64.169,104.339 64.5,79.5C 104.67,79.1681 144.67,79.5014 184.5,80.5 Z"/></g>
<g><path style="opacity:1" fill="#d7ff96" d="M 184.5,80.5 C 184.5,104.833 184.5,129.167 184.5,153.5C 144.833,153.5 105.167,153.5 65.5,153.5C 65.5,129.167 65.5,104.833 65.5,80.5C 105.167,80.5 144.833,80.5 184.5,80.5 Z"/></g>
<g><path style="opacity:1" fill="#10120b" d="M 107.5,177.5 C 118.853,177.168 130.186,177.501 141.5,178.5C 142.5,180.5 143.5,182.5 144.5,184.5C 131.167,185.833 117.833,185.833 104.5,184.5C 106.02,182.338 107.02,180.005 107.5,177.5 Z"/></g>
<g><path style="opacity:1" fill="#bfe285" d="M 108.5,179.5 C 119.187,179.168 129.854,179.501 140.5,180.5C 140.833,181.167 141.167,181.833 141.5,182.5C 130.167,183.833 118.833,183.833 107.5,182.5C 108.127,181.583 108.461,180.583 108.5,179.5 Z"/></g>
<g><path style="opacity:1" fill="#d0f691" d="M 29.5,190.5 C 92.8333,190.5 156.167,190.5 219.5,190.5C 219.973,193.833 218.64,196 215.5,197C 154.5,197.667 93.5,197.667 32.5,197C 30.085,195.535 29.085,193.368 29.5,190.5 Z"/></g>
</svg>
