<?xml version="1.0" encoding="UTF-8"?>
<!DOCTYPE svg PUBLIC "-//W3C//DTD SVG 1.1//EN" "http://www.w3.org/Graphics/SVG/1.1/DTD/svg11.dtd">
<svg xmlns="http://www.w3.org/2000/svg" version="1.1" width="250px" height="250px" style="shape-rendering:geometricPrecision; text-rendering:geometricPrecision; image-rendering:optimizeQuality; fill-rule:evenodd; clip-rule:evenodd" xmlns:xlink="http://www.w3.org/1999/xlink">
<g><path style="opacity:0.909" fill="#020404" d="M 45.5,5.5 C 97.8344,5.33334 150.168,5.50001 202.5,6C 226.683,10.5176 240.183,25.0176 243,49.5C 243.667,99.5 243.667,149.5 243,199.5C 240.174,223.991 226.674,238.491 202.5,243C 150.5,243.667 98.5,243.667 46.5,243C 24.4155,239.717 10.9155,227.217 6,205.5C 5.33333,151.5 5.33333,97.5 6,43.5C 10.9097,22.0877 24.0763,9.42104 45.5,5.5 Z"/></g>
<g><path style="opacity:1" fill="#a6ecfc" d="M 46.5,10.5 C 98.1677,10.3333 149.834,10.5 201.5,11C 220.65,13.8157 232.483,24.6491 237,43.5C 237.667,97.8333 237.667,152.167 237,206.5C 231.757,224.236 219.924,234.736 201.5,238C 150.167,238.667 98.8333,238.667 47.5,238C 26.6986,234.532 14.5319,222.365 11,201.5C 10.3333,149.167 10.3333,96.8333 11,44.5C 15.8704,25.7944 27.7037,14.4611 46.5,10.5 Z"/></g>
<g><path style="opacity:1" fill="#020303" d="M 79.5,46.5 C 109.502,46.3334 139.502,46.5 169.5,47C 171.624,48.1217 173.457,49.6217 175,51.5C 176.657,103.084 176.991,154.75 176,206.5C 174.939,209.562 173.106,212.062 170.5,214C 140.882,215.635 111.215,215.968 81.5,215C 78.4384,213.939 75.9384,212.106 74,209.5C 72.3426,157.916 72.0093,106.25 73,54.5C 74.3046,51.0386 76.4713,48.372 79.5,46.5 Z"/></g>
<g><path style="opacity:1" fill="#a5ebfb" d="M 82.5,53.5 C 110.835,53.3334 139.169,53.5 167.5,54C 168.126,54.7504 168.626,55.5838 169,56.5C 169.499,60.1516 169.665,63.8183 169.5,67.5C 139.5,67.5 109.5,67.5 79.5,67.5C 79.3345,63.4862 79.5012,59.4862 80,55.5C 80.9947,54.9341 81.828,54.2674 82.5,53.5 Z"/></g>
<g><path style="opacity:1" fill="#010101" d="M 106.5,56.5 C 118.505,56.3335 130.505,56.5001 142.5,57C 144.994,59.2436 144.994,61.5769 142.5,64C 130.833,64.6667 119.167,64.6667 107.5,64C 105.163,61.8063 104.83,59.3063 106.5,56.5 Z"/></g>
<g><path style="opacity:1" fill="#a6ecfc" d="M 79.5,75.5 C 109.5,75.5 139.5,75.5 169.5,75.5C 169.5,111.167 169.5,146.833 169.5,182.5C 139.5,182.5 109.5,182.5 79.5,182.5C 79.5,146.833 79.5,111.167 79.5,75.5 Z"/></g>
<g><path style="opacity:1" fill="#a5ecfb" d="M 166.5,206.5 C 153.656,206.829 140.989,206.495 128.5,205.5C 130.411,205.426 131.578,204.426 132,202.5C 132.667,199.5 132.667,196.5 132,193.5C 120.03,187.835 115.364,191.502 118,204.5C 118.671,205.252 119.504,205.586 120.5,205.5C 108.011,206.495 95.3443,206.829 82.5,206.5C 81.2101,205.942 80.3768,204.942 80,203.5C 79.5008,198.845 79.3342,194.179 79.5,189.5C 109.5,189.5 139.5,189.5 169.5,189.5C 169.666,194.511 169.499,199.511 169,204.5C 168.292,205.381 167.458,206.047 166.5,206.5 Z"/></g>
<g><path style="opacity:1" fill="#020203" d="M 128.5,205.5 C 125.833,205.5 123.167,205.5 120.5,205.5C 119.504,205.586 118.671,205.252 118,204.5C 115.364,191.502 120.03,187.835 132,193.5C 132.667,196.5 132.667,199.5 132,202.5C 131.578,204.426 130.411,205.426 128.5,205.5 Z"/></g>
<g><path style="opacity:1" fill="#53767e" d="M 120.5,205.5 C 123.167,205.5 125.833,205.5 128.5,205.5C 140.989,206.495 153.656,206.829 166.5,206.5C 138.5,207.833 110.5,207.833 82.5,206.5C 95.3443,206.829 108.011,206.495 120.5,205.5 Z"/></g>
</svg>
