<?xml version="1.0" encoding="UTF-8"?>
<!DOCTYPE svg PUBLIC "-//W3C//DTD SVG 1.1//EN" "http://www.w3.org/Graphics/SVG/1.1/DTD/svg11.dtd">
<svg xmlns="http://www.w3.org/2000/svg" version="1.1" width="250px" height="250px" style="shape-rendering:geometricPrecision; text-rendering:geometricPrecision; image-rendering:optimizeQuality; fill-rule:evenodd; clip-rule:evenodd" xmlns:xlink="http://www.w3.org/1999/xlink">
<g><path style="opacity:0.909" fill="#040202" d="M 45.5,5.5 C 97.8344,5.33334 150.168,5.50001 202.5,6C 226.683,10.5176 240.183,25.0176 243,49.5C 243.667,99.5 243.667,149.5 243,199.5C 240.174,223.991 226.674,238.491 202.5,243C 150.5,243.667 98.5,243.667 46.5,243C 24.4155,239.717 10.9155,227.217 6,205.5C 5.33333,151.5 5.33333,97.5 6,43.5C 10.9097,22.0877 24.0763,9.42104 45.5,5.5 Z"/></g>
<g><path style="opacity:1" fill="#fcb28b" d="M 46.5,10.5 C 98.1677,10.3333 149.834,10.5 201.5,11C 220.65,13.8157 232.483,24.6491 237,43.5C 237.667,97.8333 237.667,152.167 237,206.5C 231.757,224.236 219.924,234.736 201.5,238C 150.167,238.667 98.8333,238.667 47.5,238C 26.6986,234.532 14.5319,222.365 11,201.5C 10.3333,149.167 10.3333,96.8333 11,44.5C 15.8704,25.7944 27.7037,14.4611 46.5,10.5 Z"/></g>
<g><path style="opacity:1" fill="#150f0c" d="M 99.5,36.5 C 117.17,36.3334 134.836,36.5001 152.5,37C 154.444,39.1529 154.944,41.6529 154,44.5C 152.556,46.1554 150.722,46.822 148.5,46.5C 148.5,54.8333 148.5,63.1667 148.5,71.5C 153.467,72.2929 156.801,75.1262 158.5,80C 163.5,80.3333 168.5,80.6667 173.5,81C 177.77,82.2704 180.27,85.1037 181,89.5C 181.497,92.146 181.664,94.8127 181.5,97.5C 187.205,98.1911 189.538,101.524 188.5,107.5C 189.463,113.193 187.129,116.193 181.5,116.5C 181.167,131.182 181.501,145.848 182.5,160.5C 187.677,162.007 189.677,165.507 188.5,171C 189.536,176.787 187.203,179.62 181.5,179.5C 183.093,190.557 178.426,196.557 167.5,197.5C 167.665,201.182 167.499,204.848 167,208.5C 164.79,211.29 161.956,212.123 158.5,211C 156.595,209.185 154.928,207.185 153.5,205C 135.167,204.333 116.833,204.333 98.5,205C 96.2893,206.721 94.2893,208.721 92.5,211C 89.0437,212.123 86.2103,211.29 84,208.5C 83.0582,204.532 82.2249,200.532 81.5,196.5C 78.9058,195.408 76.7391,193.741 75,191.5C 73.8445,183.551 73.1778,175.551 73,167.5C 68.9466,165.113 65.9466,161.78 64,157.5C 59.5368,144.862 59.5368,132.196 64,119.5C 66.0828,115.33 69.0828,111.996 73,109.5C 73.4955,107.527 73.6621,105.527 73.5,103.5C 70.1779,103.511 68.5112,101.845 68.5,98.5C 68.6618,94.6738 70.6618,93.0072 74.5,93.5C 73.606,87.8555 75.606,83.6888 80.5,81C 84.8206,80.501 89.1539,80.3343 93.5,80.5C 94.1667,75.1667 97.1667,72.1667 102.5,71.5C 102.5,63.1667 102.5,54.8333 102.5,46.5C 97.0115,46.496 95.1781,43.8293 97,38.5C 97.9947,37.9341 98.828,37.2674 99.5,36.5 Z"/></g>
<g><path style="opacity:1" fill="#e2a07d" d="M 99.5,38.5 C 116.837,38.3334 134.17,38.5001 151.5,39C 152.833,40.6667 152.833,42.3333 151.5,44C 134.167,44.6667 116.833,44.6667 99.5,44C 98.2475,42.1722 98.2475,40.3388 99.5,38.5 Z"/></g>
<g><path style="opacity:1" fill="#a8775d" d="M 105.5,46.5 C 105.5,57.5 105.5,68.5 105.5,79.5C 106.833,79.5 108.167,79.5 109.5,79.5C 109.5,68.5 109.5,57.5 109.5,46.5C 110.495,57.6544 110.828,68.9877 110.5,80.5C 108.5,80.5 106.5,80.5 104.5,80.5C 104.172,68.9877 104.505,57.6544 105.5,46.5 Z"/></g>
<g><path style="opacity:1" fill="#feb48c" d="M 105.5,46.5 C 106.833,46.5 108.167,46.5 109.5,46.5C 109.5,57.5 109.5,68.5 109.5,79.5C 108.167,79.5 106.833,79.5 105.5,79.5C 105.5,68.5 105.5,57.5 105.5,46.5 Z"/></g>
<g><path style="opacity:1" fill="#feb48c" d="M 138.5,46.5 C 138.5,57.5 138.5,68.5 138.5,79.5C 129.833,79.5 121.167,79.5 112.5,79.5C 112.5,68.5 112.5,57.5 112.5,46.5C 121.167,46.5 129.833,46.5 138.5,46.5 Z"/></g>
<g><path style="opacity:1" fill="#a8765d" d="M 141.5,46.5 C 141.5,57.5 141.5,68.5 141.5,79.5C 142.833,79.5 144.167,79.5 145.5,79.5C 145.5,68.5 145.5,57.5 145.5,46.5C 146.495,57.6544 146.828,68.9877 146.5,80.5C 144.5,80.5 142.5,80.5 140.5,80.5C 140.172,68.9877 140.505,57.6544 141.5,46.5 Z"/></g>
<g><path style="opacity:1" fill="#feb48c" d="M 141.5,46.5 C 142.833,46.5 144.167,46.5 145.5,46.5C 145.5,57.5 145.5,68.5 145.5,79.5C 144.167,79.5 142.833,79.5 141.5,79.5C 141.5,68.5 141.5,57.5 141.5,46.5 Z"/></g>
<g><path style="opacity:1" fill="#eca682" d="M 100.5,73.5 C 102.344,75.2789 103.01,77.6122 102.5,80.5C 100.167,80.5 97.8333,80.5 95.5,80.5C 96.0025,77.3315 97.6691,74.9981 100.5,73.5 Z"/></g>
<g><path style="opacity:1" fill="#e7a380" d="M 148.5,73.5 C 152.5,74.1667 154.833,76.5 155.5,80.5C 153.167,80.5 150.833,80.5 148.5,80.5C 148.5,78.1667 148.5,75.8333 148.5,73.5 Z"/></g>
<g><path style="opacity:1" fill="#a7765c" d="M 138.5,46.5 C 139.495,57.6544 139.828,68.9877 139.5,80.5C 130.318,80.8266 121.318,80.4933 112.5,79.5C 121.167,79.5 129.833,79.5 138.5,79.5C 138.5,68.5 138.5,57.5 138.5,46.5 Z"/></g>
<g><path style="opacity:1" fill="#f7ae88" d="M 81.5,84.5 C 112.502,84.3334 143.502,84.5 174.5,85C 175,85.5 175.5,86 176,86.5C 177.646,120.773 177.979,155.106 177,189.5C 176.167,190.333 175.333,191.167 174.5,192C 143.895,193.643 113.228,193.977 82.5,193C 81.0692,192.535 79.9025,191.701 79,190.5C 78.3333,156.167 78.3333,121.833 79,87.5C 79.6979,86.3094 80.5313,85.3094 81.5,84.5 Z"/></g>
<g><path style="opacity:1" fill="#16100d" d="M 96.5,92.5 C 100.585,92.4587 103.752,94.1254 106,97.5C 106.667,124.5 106.667,151.5 106,178.5C 104.305,183.599 100.805,185.432 95.5,184C 94.2986,183.097 93.4652,181.931 93,180.5C 92.3333,152.5 92.3333,124.5 93,96.5C 94.3756,95.2949 95.5423,93.9616 96.5,92.5 Z"/></g>
<g><path style="opacity:1" fill="#140e0b" d="M 124.5,92.5 C 128.888,91.9433 132.055,93.6099 134,97.5C 134.667,125.167 134.667,152.833 134,180.5C 129.715,185.821 125.381,185.821 121,180.5C 120.333,152.833 120.333,125.167 121,97.5C 122.14,95.7208 123.307,94.0541 124.5,92.5 Z"/></g>
<g><path style="opacity:1" fill="#17110e" d="M 153.5,92.5 C 157.585,92.4587 160.752,94.1254 163,97.5C 163.667,124.5 163.667,151.5 163,178.5C 161.305,183.599 157.805,185.432 152.5,184C 151.299,183.097 150.465,181.931 150,180.5C 149.333,152.5 149.333,124.5 150,96.5C 151.376,95.2949 152.542,93.9616 153.5,92.5 Z"/></g>
<g><path style="opacity:1" fill="#da9a78" d="M 71.5,95.5 C 72.5,95.5 73.5,95.5 74.5,95.5C 74.5,97.5 74.5,99.5 74.5,101.5C 73.1667,101.5 71.8333,101.5 70.5,101.5C 70.3253,99.3792 70.6586,97.3792 71.5,95.5 Z"/></g>
<g><path style="opacity:1" fill="#eda783" d="M 96.5,94.5 C 99.505,94.253 102.005,95.253 104,97.5C 104.667,124.5 104.667,151.5 104,178.5C 101.177,183.395 97.8432,183.729 94,179.5C 93.3333,152.5 93.3333,125.5 94,98.5C 94.6622,97.0161 95.4955,95.6828 96.5,94.5 Z"/></g>
<g><path style="opacity:1" fill="#fcb28b" d="M 125.5,94.5 C 127.827,94.6646 129.993,95.3313 132,96.5C 132.667,124.5 132.667,152.5 132,180.5C 129.075,183.059 126.075,183.059 123,180.5C 122.333,152.833 122.333,125.167 123,97.5C 124.045,96.6266 124.878,95.6266 125.5,94.5 Z"/></g>
<g><path style="opacity:1" fill="#eea883" d="M 153.5,94.5 C 156.505,94.253 159.005,95.253 161,97.5C 161.667,124.5 161.667,151.5 161,178.5C 157.574,183.701 154.24,183.701 151,178.5C 150.333,152.5 150.333,126.5 151,100.5C 151.236,98.1887 152.069,96.1887 153.5,94.5 Z"/></g>
<g><path style="opacity:1" fill="#eba581" d="M 181.5,99.5 C 182.833,99.5 184.167,99.5 185.5,99.5C 186.463,103.796 186.629,108.129 186,112.5C 184.89,114.037 183.39,114.703 181.5,114.5C 181.5,109.5 181.5,104.5 181.5,99.5 Z"/></g>
<g><path style="opacity:1" fill="#eca783" d="M 71.5,112.5 C 72.4972,112.47 73.1639,112.97 73.5,114C 66.3699,125.967 64.5366,138.8 68,152.5C 69.6104,156.713 71.4437,160.713 73.5,164.5C 71.6096,164.703 70.1096,164.037 69,162.5C 64.728,155.245 62.8947,147.412 63.5,139C 62.7045,128.992 65.3712,120.158 71.5,112.5 Z"/></g>
<g><path style="opacity:1" fill="#7c5744" d="M 72.5,158.5 C 73.8333,145.5 73.8333,132.5 72.5,119.5C 72.7828,118.711 73.2828,118.044 74,117.5C 74.6667,131.833 74.6667,146.167 74,160.5C 73.2828,159.956 72.7828,159.289 72.5,158.5 Z"/></g>
<g><path style="opacity:1" fill="#f4ac86" d="M 72.5,119.5 C 73.8333,132.5 73.8333,145.5 72.5,158.5C 67.2325,145.389 67.2325,132.389 72.5,119.5 Z"/></g>
<g><path style="opacity:1" fill="#463126" d="M 181.5,162.5 C 181.5,167.5 181.5,172.5 181.5,177.5C 182.5,177.5 183.5,177.5 184.5,177.5C 183.432,178.434 182.099,178.768 180.5,178.5C 180.179,172.974 180.512,167.64 181.5,162.5 Z"/></g>
<g><path style="opacity:1" fill="#f9b08a" d="M 181.5,162.5 C 182.822,162.33 183.989,162.663 185,163.5C 185.815,168.352 185.648,173.019 184.5,177.5C 183.5,177.5 182.5,177.5 181.5,177.5C 181.5,172.5 181.5,167.5 181.5,162.5 Z"/></g>
<g><path style="opacity:1" fill="#453025" d="M 163.5,197.5 C 138.167,197.5 112.833,197.5 87.5,197.5C 87.5,200.5 87.5,203.5 87.5,206.5C 86.5206,203.375 86.1872,200.042 86.5,196.5C 112.339,196.169 138.005,196.502 163.5,197.5 Z"/></g>
<g><path style="opacity:1" fill="#f6ad88" d="M 163.5,197.5 C 165.429,209.283 162.429,210.45 154.5,201C 135.5,200.333 116.5,200.333 97.5,201C 94.8333,202.333 92.8333,204.333 91.5,207C 89.9343,207.765 88.6009,207.598 87.5,206.5C 87.5,203.5 87.5,200.5 87.5,197.5C 112.833,197.5 138.167,197.5 163.5,197.5 Z"/></g>
</svg>
