<?xml version="1.0" encoding="UTF-8"?>
<!DOCTYPE svg PUBLIC "-//W3C//DTD SVG 1.1//EN" "http://www.w3.org/Graphics/SVG/1.1/DTD/svg11.dtd">
<svg xmlns="http://www.w3.org/2000/svg" version="1.1" width="250px" height="250px" style="shape-rendering:geometricPrecision; text-rendering:geometricPrecision; image-rendering:optimizeQuality; fill-rule:evenodd; clip-rule:evenodd" xmlns:xlink="http://www.w3.org/1999/xlink">
<g><path style="opacity:0.909" fill="#040402" d="M 45.5,5.5 C 97.8344,5.33334 150.168,5.50001 202.5,6C 226.683,10.5176 240.183,25.0176 243,49.5C 243.667,99.5 243.667,149.5 243,199.5C 240.174,223.991 226.674,238.491 202.5,243C 150.5,243.667 98.5,243.667 46.5,243C 24.4155,239.717 10.9155,227.217 6,205.5C 5.33333,151.5 5.33333,97.5 6,43.5C 10.9097,22.0877 24.0763,9.42104 45.5,5.5 Z"/></g>
<g><path style="opacity:1" fill="#e7fca8" d="M 46.5,10.5 C 98.1677,10.3333 149.834,10.5 201.5,11C 220.65,13.8157 232.483,24.6491 237,43.5C 237.667,97.8333 237.667,152.167 237,206.5C 231.757,224.236 219.924,234.736 201.5,238C 150.167,238.667 98.8333,238.667 47.5,238C 26.6986,234.532 14.5319,222.365 11,201.5C 10.3333,149.167 10.3333,96.8333 11,44.5C 15.8704,25.7944 27.7037,14.4611 46.5,10.5 Z"/></g>
<g><path style="opacity:1" fill="#060704" d="M 62.5,59.5 C 99.8348,59.3333 137.168,59.5 174.5,60C 175.126,60.7504 175.626,61.5838 176,62.5C 176.5,68.8246 176.666,75.1579 176.5,81.5C 185.366,79.4348 192.199,82.1014 197,89.5C 197.667,119.5 197.667,149.5 197,179.5C 195.939,182.562 194.106,185.062 191.5,187C 147.892,188.651 104.226,188.984 60.5,188C 56.7898,186.954 53.9565,184.787 52,181.5C 51.3333,144.167 51.3333,106.833 52,69.5C 54.1059,64.5573 57.6059,61.224 62.5,59.5 Z"/></g>
<g><path style="opacity:1" fill="#e9fea9" d="M 64.5,67.5 C 99.1667,67.5 133.833,67.5 168.5,67.5C 168.5,71.8333 168.5,76.1667 168.5,80.5C 133.167,80.5 97.8333,80.5 62.5,80.5C 58.7478,78.2511 57.5812,74.9177 59,70.5C 60.1739,68.3291 62.0072,67.3291 64.5,67.5 Z"/></g>
<g><path style="opacity:1" fill="#a8b87a" d="M 64.5,67.5 C 99.3294,66.5016 134.329,66.1683 169.5,66.5C 169.5,71.5 169.5,76.5 169.5,81.5C 133.663,81.8317 97.9961,81.4984 62.5,80.5C 97.8333,80.5 133.167,80.5 168.5,80.5C 168.5,76.1667 168.5,71.8333 168.5,67.5C 133.833,67.5 99.1667,67.5 64.5,67.5 Z"/></g>
<g><path style="opacity:1" fill="#747e54" d="M 60.5,87.5 C 58.5078,117.148 57.8411,147.148 58.5,177.5C 57.5019,147.338 57.1685,117.005 57.5,86.5C 58.791,86.2627 59.791,86.596 60.5,87.5 Z"/></g>
<g><path style="opacity:1" fill="#e9fea9" d="M 60.5,87.5 C 103.096,88.3278 145.762,88.8278 188.5,89C 189.126,89.7504 189.626,90.5838 190,91.5C 190.5,98.1583 190.666,104.825 190.5,111.5C 171.765,111.039 153.098,111.539 134.5,113C 132.652,114.518 131.152,116.351 130,118.5C 129.333,129.167 129.333,139.833 130,150.5C 131.077,153.913 133.244,156.413 136.5,158C 154.497,158.5 172.497,158.667 190.5,158.5C 190.666,164.842 190.5,171.175 190,177.5C 189.682,179.061 188.849,180.228 187.5,181C 145.167,181.667 102.833,181.667 60.5,181C 59.1772,180.184 58.5106,179.017 58.5,177.5C 57.8411,147.148 58.5078,117.148 60.5,87.5 Z"/></g>
<g><path style="opacity:1" fill="#e2f6a4" d="M 138.5,118.5 C 155.833,118.5 173.167,118.5 190.5,118.5C 190.5,129.5 190.5,140.5 190.5,151.5C 172.821,151.833 155.154,151.5 137.5,150.5C 136.856,145.216 136.523,139.882 136.5,134.5C 136.551,128.921 137.218,123.588 138.5,118.5 Z"/></g>
<g><path style="opacity:1" fill="#0c0d09" d="M 155.5,127.5 C 162.36,128.35 164.693,132.017 162.5,138.5C 160.067,141.242 157.067,142.075 153.5,141C 149.876,138.839 148.709,135.672 150,131.5C 151.5,129.531 153.333,128.198 155.5,127.5 Z"/></g>
</svg>
