<svg version="1.1" id="Layer_1" xmlns="http://www.w3.org/2000/svg" xmlns:xlink="http://www.w3.org/1999/xlink" x="0px" y="0px"
	 width="100%" viewBox="0 0 250 250" enable-background="new 0 0 250 250" xml:space="preserve">
<path fill="#000001" opacity="1.000000" stroke="none" 
	d="
M142.000000,251.000000 
	C94.666672,251.000000 47.833340,251.000000 1.000006,251.000000 
	C1.000004,167.666672 1.000004,84.333351 1.000002,1.000018 
	C84.333321,1.000012 167.666641,1.000012 250.999969,1.000006 
	C250.999969,84.333321 250.999969,167.666641 250.999985,250.999969 
	C214.833328,251.000000 178.666672,251.000000 142.000000,251.000000 
M239.169922,116.500076 
	C239.169525,96.177902 239.232376,75.855492 239.153000,55.533627 
	C239.049393,29.010065 222.565521,12.534077 196.058853,12.504743 
	C149.251419,12.452940 102.443825,12.457724 55.636494,12.545401 
	C51.340000,12.553448 46.913082,12.803136 42.771778,13.839719 
	C23.661638,18.623060 12.197101,34.241455 12.177003,55.261532 
	C12.131930,102.402130 12.122651,149.542892 12.230927,196.683289 
	C12.240745,200.957443 12.643234,205.392044 13.823284,209.474686 
	C19.443590,228.919327 33.923729,239.439423 55.097492,239.479919 
	C102.071381,239.569748 149.045654,239.542786 196.019516,239.448853 
	C200.306900,239.440277 204.710983,239.088028 208.858383,238.070251 
	C225.611374,233.959061 239.578766,218.561386 239.260590,196.954849 
	C238.870667,170.475220 239.169098,143.985458 239.169922,116.500076 
z"/>
<path fill="#006496" opacity="1.000000" stroke="none" 
	d="
M239.169922,117.000076 
	C239.169098,143.985458 238.870667,170.475220 239.260590,196.954849 
	C239.578766,218.561386 225.611374,233.959061 208.858383,238.070251 
	C204.710983,239.088028 200.306900,239.440277 196.019516,239.448853 
	C149.045654,239.542786 102.071381,239.569748 55.097492,239.479919 
	C33.923729,239.439423 19.443590,228.919327 13.823284,209.474686 
	C12.643234,205.392044 12.240745,200.957443 12.230927,196.683289 
	C12.122651,149.542892 12.131930,102.402130 12.177003,55.261532 
	C12.197101,34.241455 23.661638,18.623060 42.771778,13.839719 
	C46.913082,12.803136 51.340000,12.553448 55.636494,12.545401 
	C102.443825,12.457724 149.251419,12.452940 196.058853,12.504743 
	C222.565521,12.534077 239.049393,29.010065 239.153000,55.533627 
	C239.232376,75.855492 239.169525,96.177902 239.169922,117.000076 
M178.500000,201.018478 
	C193.164261,201.018112 207.829346,201.091797 222.491745,200.926590 
	C224.390961,200.905197 226.939301,200.140869 227.936737,198.794479 
	C228.610367,197.885178 227.494141,195.076080 226.485809,193.585373 
	C218.463348,181.725098 210.168167,170.048141 202.235107,158.129608 
	C200.791199,155.960297 199.972000,152.948013 199.958328,150.319199 
	C199.802383,120.324684 199.862396,90.329048 199.856125,60.333714 
	C199.854294,51.541428 199.144470,50.812016 190.630447,50.811314 
	C147.470490,50.807762 104.310539,50.807503 61.150585,50.811596 
	C52.691113,50.812397 52.147305,51.355785 52.144897,59.921345 
	C52.136379,90.249962 52.186672,120.578773 52.056347,150.906830 
	C52.045601,153.408249 51.454811,156.317322 50.093357,158.335175 
	C42.199924,170.034119 33.934975,181.481812 25.959475,193.126663 
	C24.771912,194.860580 24.449823,197.187286 23.727346,199.239746 
	C25.825880,199.832581 27.923397,200.938828 30.023094,200.942978 
	C79.181915,201.040268 128.340988,201.018402 178.500000,201.018478 
z"/>
<path fill="#000507" opacity="1.000000" stroke="none" 
	d="
M178.000000,201.018478 
	C128.340988,201.018402 79.181915,201.040268 30.023094,200.942978 
	C27.923397,200.938828 25.825880,199.832581 23.727345,199.239746 
	C24.449823,197.187286 24.771912,194.860580 25.959475,193.126663 
	C33.934975,181.481812 42.199924,170.034119 50.093357,158.335175 
	C51.454811,156.317322 52.045601,153.408249 52.056347,150.906830 
	C52.186672,120.578773 52.136379,90.249962 52.144897,59.921345 
	C52.147305,51.355785 52.691113,50.812397 61.150585,50.811596 
	C104.310539,50.807503 147.470490,50.807762 190.630447,50.811314 
	C199.144470,50.812016 199.854294,51.541428 199.856125,60.333714 
	C199.862396,90.329048 199.802383,120.324684 199.958328,150.319199 
	C199.972000,152.948013 200.791199,155.960297 202.235107,158.129608 
	C210.168167,170.048141 218.463348,181.725098 226.485809,193.585373 
	C227.494141,195.076080 228.610367,197.885178 227.936737,198.794479 
	C226.939301,200.140869 224.390961,200.905197 222.491745,200.926590 
	C207.829346,201.091797 193.164261,201.018112 178.000000,201.018478 
M67.528976,158.542374 
	C66.196732,158.542496 64.838158,158.713501 63.536842,158.512955 
	C58.120392,157.678131 54.455940,159.660416 51.711266,164.513062 
	C49.191174,168.968628 45.838337,172.949188 42.909023,177.178253 
	C38.795757,183.116592 34.734859,189.091217 30.013552,195.981430 
	C32.830254,195.981430 34.591904,195.981430 36.353558,195.981430 
	C58.334881,195.981415 80.317619,195.849899 102.296379,196.087173 
	C106.955879,196.137466 109.918053,195.067841 111.111115,190.314117 
	C112.159561,186.136642 114.901802,184.650833 119.268646,185.051254 
	C123.727341,185.460098 128.268158,185.373077 132.744324,185.073807 
	C136.830948,184.800583 139.273010,185.923355 140.314697,190.234787 
	C141.271851,194.196274 143.512650,196.231201 148.450989,196.147781 
	C170.925476,195.768097 193.409988,195.981369 215.890884,195.981400 
	C217.598999,195.981400 219.307114,195.981400 222.193298,195.981400 
	C214.169418,184.324310 206.723129,173.936584 199.797653,163.212540 
	C197.362625,159.441910 194.619324,158.451935 190.415527,158.465347 
	C149.783798,158.594910 109.151489,158.542603 67.528976,158.542374 
M58.833591,56.069160 
	C58.164902,57.867764 56.921078,59.663933 56.913456,61.465332 
	C56.791462,90.294662 56.823788,119.124657 56.836300,147.954498 
	C56.837006,149.579285 56.970276,151.204025 57.051731,153.053314 
	C103.191620,153.053314 148.901459,153.053314 194.597198,153.053314 
	C194.597198,120.528290 194.597198,88.465157 194.597198,56.014877 
	C149.386444,56.014877 104.583580,56.014877 58.833591,56.069160 
z"/>
<path fill="#006496" opacity="1.000000" stroke="none" 
	d="
M68.024162,158.542328 
	C109.151489,158.542603 149.783798,158.594910 190.415527,158.465347 
	C194.619324,158.451935 197.362625,159.441910 199.797653,163.212540 
	C206.723129,173.936584 214.169418,184.324310 222.193298,195.981400 
	C219.307114,195.981400 217.598999,195.981400 215.890884,195.981400 
	C193.409988,195.981369 170.925476,195.768097 148.450989,196.147781 
	C143.512650,196.231201 141.271851,194.196274 140.314697,190.234787 
	C139.273010,185.923355 136.830948,184.800583 132.744324,185.073807 
	C128.268158,185.373077 123.727341,185.460098 119.268646,185.051254 
	C114.901802,184.650833 112.159561,186.136642 111.111115,190.314117 
	C109.918053,195.067841 106.955879,196.137466 102.296379,196.087173 
	C80.317619,195.849899 58.334881,195.981415 36.353558,195.981430 
	C34.591904,195.981430 32.830254,195.981430 30.013552,195.981430 
	C34.734859,189.091217 38.795757,183.116592 42.909023,177.178253 
	C45.838337,172.949188 49.191174,168.968628 51.711266,164.513062 
	C54.455940,159.660416 58.120392,157.678131 63.536842,158.512955 
	C64.838158,158.713501 66.196732,158.542496 68.024162,158.542328 
M163.500000,180.997040 
	C177.871109,180.997040 192.242203,180.997040 207.881348,180.997040 
	C203.623032,174.813690 200.350479,169.636398 196.587128,164.844543 
	C195.387497,163.317062 192.887772,161.971695 190.977554,161.964508 
	C148.175186,161.803329 105.372055,161.833374 62.569107,161.873535 
	C61.135094,161.874878 59.033691,161.844788 58.375854,162.700241 
	C54.016659,168.368896 49.967102,174.275696 45.181652,180.997040 
	C85.262009,180.997040 123.881004,180.997040 163.500000,180.997040 
z"/>
<path fill="#005F8F" opacity="1.000000" stroke="none" 
	d="
M59.307159,56.042019 
	C104.583580,56.014877 149.386444,56.014877 194.597198,56.014877 
	C194.597198,88.465157 194.597198,120.528290 194.597198,153.053314 
	C148.901459,153.053314 103.191620,153.053314 57.051731,153.053314 
	C56.970276,151.204025 56.837006,149.579285 56.836300,147.954498 
	C56.823788,119.124657 56.791462,90.294662 56.913456,61.465332 
	C56.921078,59.663933 58.164902,57.867764 59.307159,56.042019 
M59.775543,107.499893 
	C59.775543,121.281570 59.775543,135.063248 59.775543,149.195068 
	C104.171043,149.195068 147.888992,149.195068 191.624771,149.195068 
	C191.862000,148.179031 192.140854,147.540314 192.141663,146.901230 
	C192.176086,119.748093 192.149338,92.594795 192.242722,65.441895 
	C192.254929,61.892220 190.175095,61.943371 187.681381,61.944706 
	C146.534454,61.966763 105.387428,61.997437 64.240746,61.895508 
	C60.687653,61.886711 59.690151,63.132652 59.725300,66.519669 
	C59.863609,79.845146 59.778008,93.172951 59.775543,107.499893 
z"/>
<path fill="#000001" opacity="1.000000" stroke="none" 
	d="
M163.000000,180.997040 
	C123.881004,180.997040 85.262009,180.997040 45.181652,180.997040 
	C49.967102,174.275696 54.016659,168.368896 58.375854,162.700241 
	C59.033691,161.844788 61.135094,161.874878 62.569107,161.873535 
	C105.372055,161.833374 148.175186,161.803329 190.977554,161.964508 
	C192.887772,161.971695 195.387497,163.317062 196.587128,164.844543 
	C200.350479,169.636398 203.623032,174.813690 207.881348,180.997040 
	C192.242203,180.997040 177.871109,180.997040 163.000000,180.997040 
z"/>
<path fill="#000F17" opacity="1.000000" stroke="none" 
	d="
M59.775536,106.999893 
	C59.778008,93.172951 59.863609,79.845146 59.725300,66.519669 
	C59.690151,63.132652 60.687653,61.886711 64.240746,61.895508 
	C105.387428,61.997437 146.534454,61.966763 187.681381,61.944706 
	C190.175095,61.943371 192.254929,61.892220 192.242722,65.441895 
	C192.149338,92.594795 192.176086,119.748093 192.141663,146.901230 
	C192.140854,147.540314 191.862000,148.179031 191.624771,149.195068 
	C147.888992,149.195068 104.171043,149.195068 59.775543,149.195068 
	C59.775543,135.063248 59.775543,121.281570 59.775536,106.999893 
M155.422638,138.153000 
	C155.370026,137.682648 155.317398,137.212296 155.275818,135.919250 
	C154.750656,134.188644 153.875336,132.475891 153.785873,130.723053 
	C153.664474,128.344391 153.355789,125.284172 154.622040,123.749367 
	C155.595734,122.569160 159.860580,122.339417 160.890030,123.402611 
	C162.275208,124.833214 163.154648,128.843765 162.160645,130.124405 
	C157.948074,135.551834 160.734894,141.118103 160.050247,147.071411 
	C168.784073,147.071411 176.766739,146.877228 184.733246,147.152115 
	C188.809723,147.292770 190.190735,146.089798 190.158783,141.861420 
	C189.977478,117.868889 189.976471,93.873573 190.157455,69.881035 
	C190.190308,65.523621 188.898575,64.159576 184.494080,64.176285 
	C145.504547,64.324120 106.513947,64.331703 67.524536,64.170090 
	C62.859921,64.150757 61.541370,65.711494 61.572906,70.202080 
	C61.739052,93.861549 61.738178,117.523445 61.569149,141.182892 
	C61.537498,145.613052 62.688564,147.215317 67.425941,147.178497 
	C95.250519,146.962158 123.077629,147.077713 150.903870,147.058701 
	C152.494186,147.057617 154.084381,146.856705 156.617523,146.684830 
	C155.618790,143.591995 154.908096,139.005859 153.995239,138.965256 
	C149.328323,138.757721 148.712158,135.321350 147.008408,132.405350 
	C146.210358,131.039474 144.343491,129.476959 142.953201,129.469543 
	C140.835052,129.458267 138.652557,130.587067 136.602020,131.473740 
	C133.781784,132.693237 131.292160,132.178314 130.644730,129.261002 
	C130.312622,127.764526 131.668060,125.226051 133.037979,124.256615 
	C133.934738,123.622009 136.432648,124.610413 137.851181,125.469795 
	C142.543533,128.312531 145.797760,126.904175 146.883011,121.728783 
	C147.248749,119.984612 148.954102,118.521339 150.248581,116.636482 
	C147.398026,109.666306 147.113800,109.678925 140.405594,113.131149 
	C139.044556,113.831581 136.339920,113.443474 135.149963,112.466621 
	C134.218048,111.701607 133.920486,108.603966 134.692719,107.709023 
	C135.708588,106.531731 138.127884,105.893768 139.802856,106.110825 
	C142.462372,106.455467 145.080154,107.530983 147.566101,108.634163 
	C148.810638,109.186440 149.887680,110.357582 150.748352,111.474022 
	C151.896332,112.963150 152.760071,114.671410 153.745895,116.285553 
	C153.984970,115.773399 154.224030,115.261246 154.463104,114.749092 
	C157.195404,114.946243 159.927704,115.143402 162.548492,115.332512 
	C164.294357,113.210335 165.884308,110.362663 168.282181,108.638779 
	C170.378403,107.131760 173.340454,106.545921 176.002716,106.211342 
	C177.709656,105.996819 180.121155,106.460068 181.173462,107.590637 
	C181.955643,108.430962 181.685364,111.551117 180.757904,112.352127 
	C179.608810,113.344543 176.685669,113.851173 175.589417,113.073227 
	C169.921524,109.051086 167.001495,111.062675 165.685013,116.170845 
	C167.073288,118.668533 168.923889,120.475647 168.894897,122.252068 
	C168.827576,126.375740 170.893127,127.234673 174.144241,126.647484 
	C175.820114,126.344803 177.310516,124.846420 178.969696,124.664825 
	C180.855576,124.458420 183.378067,124.519073 184.587799,125.611191 
	C185.411072,126.354431 184.976700,130.316925 184.186707,130.647736 
	C182.443832,131.377594 179.769928,131.384933 178.101776,130.503113 
	C173.611206,128.129272 170.544006,128.927078 168.333084,133.207550 
	C167.035248,135.720261 164.905487,137.803284 162.392014,141.062302 
	C164.016327,135.131989 165.370880,130.911041 166.308670,126.599434 
	C167.864685,119.445465 160.765198,120.139755 157.603104,116.922653 
	C154.902603,120.472588 148.143738,119.556870 149.119263,126.580246 
	C149.785873,131.379639 150.338898,135.752747 155.422638,138.153000 
z"/>
<path fill="#006496" opacity="1.000000" stroke="none" 
	d="
M155.036499,138.304230 
	C150.338898,135.752747 149.785873,131.379639 149.119263,126.580246 
	C148.143738,119.556870 154.902603,120.472588 157.603104,116.922653 
	C160.765198,120.139755 167.864685,119.445465 166.308670,126.599434 
	C165.370880,130.911041 164.016327,135.131989 162.392014,141.062302 
	C164.905487,137.803284 167.035248,135.720261 168.333084,133.207550 
	C170.544006,128.927078 173.611206,128.129272 178.101776,130.503113 
	C179.769928,131.384933 182.443832,131.377594 184.186707,130.647736 
	C184.976700,130.316925 185.411072,126.354431 184.587799,125.611191 
	C183.378067,124.519073 180.855576,124.458420 178.969696,124.664825 
	C177.310516,124.846420 175.820114,126.344803 174.144241,126.647484 
	C170.893127,127.234673 168.827576,126.375740 168.894897,122.252068 
	C168.923889,120.475647 167.073288,118.668533 165.685013,116.170845 
	C167.001495,111.062675 169.921524,109.051086 175.589417,113.073227 
	C176.685669,113.851173 179.608810,113.344543 180.757904,112.352127 
	C181.685364,111.551117 181.955643,108.430962 181.173462,107.590637 
	C180.121155,106.460068 177.709656,105.996819 176.002716,106.211342 
	C173.340454,106.545921 170.378403,107.131760 168.282181,108.638779 
	C165.884308,110.362663 164.294357,113.210335 162.548492,115.332512 
	C159.927704,115.143402 157.195404,114.946243 154.463104,114.749092 
	C154.224030,115.261246 153.984970,115.773399 153.745895,116.285553 
	C152.760071,114.671410 151.896332,112.963150 150.748352,111.474022 
	C149.887680,110.357582 148.810638,109.186440 147.566101,108.634163 
	C145.080154,107.530983 142.462372,106.455467 139.802856,106.110825 
	C138.127884,105.893768 135.708588,106.531731 134.692719,107.709023 
	C133.920486,108.603966 134.218048,111.701607 135.149963,112.466621 
	C136.339920,113.443474 139.044556,113.831581 140.405594,113.131149 
	C147.113800,109.678925 147.398026,109.666306 150.248581,116.636482 
	C148.954102,118.521339 147.248749,119.984612 146.883011,121.728783 
	C145.797760,126.904175 142.543533,128.312531 137.851181,125.469795 
	C136.432648,124.610413 133.934738,123.622009 133.037979,124.256615 
	C131.668060,125.226051 130.312622,127.764526 130.644730,129.261002 
	C131.292160,132.178314 133.781784,132.693237 136.602020,131.473740 
	C138.652557,130.587067 140.835052,129.458267 142.953201,129.469543 
	C144.343491,129.476959 146.210358,131.039474 147.008408,132.405350 
	C148.712158,135.321350 149.328323,138.757721 153.995239,138.965256 
	C154.908096,139.005859 155.618790,143.591995 156.617523,146.684830 
	C154.084381,146.856705 152.494186,147.057617 150.903870,147.058701 
	C123.077629,147.077713 95.250519,146.962158 67.425941,147.178497 
	C62.688564,147.215317 61.537498,145.613052 61.569149,141.182892 
	C61.738178,117.523445 61.739052,93.861549 61.572906,70.202080 
	C61.541370,65.711494 62.859921,64.150757 67.524536,64.170090 
	C106.513947,64.331703 145.504547,64.324120 184.494080,64.176285 
	C188.898575,64.159576 190.190308,65.523621 190.157455,69.881035 
	C189.976471,93.873573 189.977478,117.868889 190.158783,141.861420 
	C190.190735,146.089798 188.809723,147.292770 184.733246,147.152115 
	C176.766739,146.877228 168.784073,147.071411 160.050247,147.071411 
	C160.734894,141.118103 157.948074,135.551834 162.160645,130.124405 
	C163.154648,128.843765 162.275208,124.833214 160.890030,123.402611 
	C159.860580,122.339417 155.595734,122.569160 154.622040,123.749367 
	C153.355789,125.284172 153.664474,128.344391 153.785873,130.723053 
	C153.875336,132.475891 154.750656,134.188644 155.205383,136.720032 
	C155.102127,137.781952 155.069305,138.043091 155.036499,138.304230 
M109.002708,100.610405 
	C114.748497,101.315483 120.494286,102.020554 125.263298,102.605766 
	C125.811432,99.245323 125.974510,96.656967 126.683228,94.227798 
	C128.209579,88.996185 126.772636,83.076836 122.730225,79.665359 
	C119.076103,76.581573 115.004982,75.920731 110.671219,78.087540 
	C102.094017,82.375999 101.024666,92.914337 109.002708,100.610405 
M139.200775,76.985016 
	C136.305832,76.985016 133.410889,76.985016 130.157562,76.985016 
	C130.157562,85.042358 130.063919,92.166855 130.262711,99.283180 
	C130.291168,100.302010 131.732971,101.281357 132.520676,102.278969 
	C133.073883,101.251564 133.887451,100.278984 134.118088,99.183662 
	C134.447495,97.619255 134.350098,95.964981 134.422562,94.585434 
	C139.251801,92.538620 141.183258,95.223694 143.011368,98.526207 
	C144.252274,100.767937 145.297638,104.075127 149.237366,101.533112 
	C147.664368,98.686569 146.173218,95.988167 144.676529,93.279724 
	C148.097946,90.278709 149.830978,87.066101 148.398941,82.883980 
	C147.053116,78.953583 144.175598,77.095573 139.200775,76.985016 
M79.365715,76.159317 
	C78.713425,76.266312 78.054253,76.495995 77.409981,76.459915 
	C73.848969,76.260483 69.914894,75.019875 67.969879,79.534081 
	C66.625755,82.653694 63.924458,85.644974 66.962273,89.369270 
	C67.537010,90.073883 67.066910,91.633530 67.072929,92.798668 
	C67.084984,95.129013 66.881943,97.488968 67.202629,99.775696 
	C67.337669,100.738617 68.574791,101.546982 69.310928,102.425606 
	C69.930893,101.599373 70.979446,100.825142 71.087257,99.936760 
	C71.366287,97.637489 71.165474,95.284760 71.277626,92.959221 
	C71.404526,90.327751 70.262611,86.907616 74.791718,86.735466 
	C74.696358,85.658920 74.923340,84.379295 74.410713,83.565636 
	C73.942123,82.821884 72.673347,82.582260 71.757202,82.120476 
	C71.825592,81.619438 71.893974,81.118393 71.962364,80.617355 
	C73.649612,80.617355 75.336983,80.629898 77.024071,80.613365 
	C78.358253,80.600281 79.692093,80.551491 81.026085,80.518562 
	C80.715683,79.096748 80.405289,77.674934 79.365715,76.159317 
M88.992813,91.175522 
	C91.002769,89.839119 93.012718,88.502716 95.022659,87.166306 
	C95.728020,89.192871 96.723610,91.172577 97.060349,93.258644 
	C97.426186,95.524956 96.995087,97.914955 97.302261,100.198456 
	C97.405998,100.969658 98.703461,101.580292 99.455376,102.264313 
	C100.013634,101.592293 101.045235,100.925468 101.052689,100.247406 
	C101.098122,96.111099 101.560799,91.799858 100.528267,87.906601 
	C100.008591,85.947121 96.798454,83.847939 94.507805,83.426300 
	C91.612968,82.893463 88.415245,84.006203 84.851952,84.474327 
	C84.851952,89.478561 84.773003,94.756966 84.939201,100.027634 
	C84.963425,100.795929 86.158028,101.527313 86.811073,102.275787 
	C87.479027,101.516884 88.639053,100.809097 88.724159,99.989655 
	C88.997169,97.361130 88.872604,94.691322 88.992813,91.175522 
M81.426811,99.857300 
	C81.442062,95.397522 81.571487,90.932877 81.381264,86.481873 
	C81.340683,85.532249 80.138596,84.632248 79.471603,83.709389 
	C78.834991,84.498543 77.677628,85.268593 77.647873,86.080002 
	C77.478523,90.697792 77.330574,95.344101 77.676598,99.942993 
	C77.894798,102.843071 79.445549,103.467400 81.426811,99.857300 
z"/>
<path fill="#006496" opacity="1.000000" stroke="none" 
	d="
M155.199860,137.131378 
	C155.317398,137.212296 155.370026,137.682648 155.229568,138.228607 
	C155.069305,138.043091 155.102127,137.781952 155.199860,137.131378 
z"/>
<path fill="#000F17" opacity="1.000000" stroke="none" 
	d="
M108.693466,100.404663 
	C101.024666,92.914337 102.094017,82.375999 110.671219,78.087540 
	C115.004982,75.920731 119.076103,76.581573 122.730225,79.665359 
	C126.772636,83.076836 128.209579,88.996185 126.683228,94.227798 
	C125.974510,96.656967 125.811432,99.245323 125.263298,102.605766 
	C120.494286,102.020554 114.748497,101.315483 108.693466,100.404663 
M123.124779,90.168312 
	C122.328636,83.543533 118.922585,80.175232 113.918167,81.063751 
	C109.581589,81.833694 106.846222,86.893532 107.975029,92.057228 
	C109.097145,97.190277 113.114769,99.473747 118.584190,97.807602 
	C117.953598,96.551147 117.347328,95.343155 116.789185,94.231056 
	C118.674553,92.206734 123.294724,96.329971 123.124779,90.168312 
z"/>
<path fill="#000507" opacity="1.000000" stroke="none" 
	d="
M139.642929,76.989655 
	C144.175598,77.095573 147.053116,78.953583 148.398941,82.883980 
	C149.830978,87.066101 148.097946,90.278709 144.676529,93.279724 
	C146.173218,95.988167 147.664368,98.686569 149.237366,101.533112 
	C145.297638,104.075127 144.252274,100.767937 143.011368,98.526207 
	C141.183258,95.223694 139.251801,92.538620 134.422562,94.585434 
	C134.350098,95.964981 134.447495,97.619255 134.118088,99.183662 
	C133.887451,100.278984 133.073883,101.251564 132.520676,102.278969 
	C131.732971,101.281357 130.291168,100.302010 130.262711,99.283180 
	C130.063919,92.166855 130.157562,85.042358 130.157562,76.985016 
	C133.410889,76.985016 136.305832,76.985016 139.642929,76.989655 
M141.806458,81.120224 
	C139.424240,81.120224 137.042023,81.120224 134.473694,81.120224 
	C134.473694,84.255241 134.473694,86.807663 134.473694,90.884674 
	C138.154007,89.754524 141.338699,89.136566 144.030319,87.634827 
	C144.545349,87.347473 143.117920,83.578590 141.806458,81.120224 
z"/>
<path fill="#000F17" opacity="1.000000" stroke="none" 
	d="
M79.730301,76.206223 
	C80.405289,77.674934 80.715683,79.096748 81.026085,80.518562 
	C79.692093,80.551491 78.358253,80.600281 77.024071,80.613365 
	C75.336983,80.629898 73.649612,80.617355 71.962364,80.617355 
	C71.893974,81.118393 71.825592,81.619438 71.757202,82.120476 
	C72.673347,82.582260 73.942123,82.821884 74.410713,83.565636 
	C74.923340,84.379295 74.696358,85.658920 74.791718,86.735466 
	C70.262611,86.907616 71.404526,90.327751 71.277626,92.959221 
	C71.165474,95.284760 71.366287,97.637489 71.087257,99.936760 
	C70.979446,100.825142 69.930893,101.599373 69.310928,102.425606 
	C68.574791,101.546982 67.337669,100.738617 67.202629,99.775696 
	C66.881943,97.488968 67.084984,95.129013 67.072929,92.798668 
	C67.066910,91.633530 67.537010,90.073883 66.962273,89.369270 
	C63.924458,85.644974 66.625755,82.653694 67.969879,79.534081 
	C69.914894,75.019875 73.848969,76.260483 77.409981,76.459915 
	C78.054253,76.495995 78.713425,76.266312 79.730301,76.206223 
z"/>
<path fill="#000507" opacity="1.000000" stroke="none" 
	d="
M88.947128,91.606476 
	C88.872604,94.691322 88.997169,97.361130 88.724159,99.989655 
	C88.639053,100.809097 87.479027,101.516884 86.811066,102.275787 
	C86.158028,101.527313 84.963425,100.795929 84.939201,100.027634 
	C84.773003,94.756966 84.851952,89.478561 84.851952,84.474327 
	C88.415245,84.006203 91.612968,82.893463 94.507805,83.426300 
	C96.798454,83.847939 100.008591,85.947121 100.528267,87.906601 
	C101.560799,91.799858 101.098122,96.111099 101.052689,100.247406 
	C101.045235,100.925468 100.013634,101.592293 99.455376,102.264313 
	C98.703461,101.580292 97.405998,100.969658 97.302261,100.198456 
	C96.995087,97.914955 97.426186,95.524956 97.060349,93.258644 
	C96.723610,91.172577 95.728020,89.192871 95.022659,87.166306 
	C93.012718,88.502716 91.002769,89.839119 88.947128,91.606476 
z"/>
<path fill="#000001" opacity="1.000000" stroke="none" 
	d="
M81.366859,100.288116 
	C79.445549,103.467400 77.894798,102.843071 77.676598,99.942993 
	C77.330574,95.344101 77.478523,90.697792 77.647873,86.080002 
	C77.677628,85.268593 78.834991,84.498543 79.471603,83.709389 
	C80.138596,84.632248 81.340683,85.532249 81.381264,86.481873 
	C81.571487,90.932877 81.442062,95.397522 81.366859,100.288116 
z"/>
<path fill="#006496" opacity="1.000000" stroke="none" 
	d="
M123.091583,90.546585 
	C123.294724,96.329971 118.674553,92.206734 116.789185,94.231056 
	C117.347328,95.343155 117.953598,96.551147 118.584190,97.807602 
	C113.114769,99.473747 109.097145,97.190277 107.975029,92.057228 
	C106.846222,86.893532 109.581589,81.833694 113.918167,81.063751 
	C118.922585,80.175232 122.328636,83.543533 123.091583,90.546585 
z"/>
<path fill="#005F8F" opacity="1.000000" stroke="none" 
	d="
M142.196548,81.268082 
	C143.117920,83.578590 144.545349,87.347473 144.030319,87.634827 
	C141.338699,89.136566 138.154007,89.754524 134.473694,90.884674 
	C134.473694,86.807663 134.473694,84.255241 134.473694,81.120224 
	C137.042023,81.120224 139.424240,81.120224 142.196548,81.268082 
z"/>
</svg>