<svg version="1.1" id="Layer_1" xmlns="http://www.w3.org/2000/svg" xmlns:xlink="http://www.w3.org/1999/xlink" x="0px" y="0px"
	 width="100%" viewBox="0 0 250 250" enable-background="new 0 0 250 250" xml:space="preserve">
<path fill="#010100" opacity="1.000000" stroke="none" 
	d="
M142.000000,251.000000 
	C94.666672,251.000000 47.833340,251.000000 1.000006,251.000000 
	C1.000004,167.666672 1.000004,84.333351 1.000002,1.000018 
	C84.333321,1.000012 167.666641,1.000012 250.999969,1.000006 
	C250.999969,84.333321 250.999969,167.666641 250.999985,250.999969 
	C214.833328,251.000000 178.666672,251.000000 142.000000,251.000000 
M239.171265,149.500092 
	C239.171127,118.173470 239.226624,86.846710 239.153824,55.520252 
	C239.092285,29.044924 222.518967,12.515224 196.086243,12.496586 
	C149.262756,12.463573 102.439178,12.454478 55.615837,12.542594 
	C51.320530,12.550678 46.891003,12.797004 42.755348,13.845772 
	C23.589727,18.706015 12.189892,34.262863 12.175201,55.237602 
	C12.142171,102.394348 12.124160,149.551224 12.233743,196.707748 
	C12.243664,200.976715 12.651462,205.410614 13.846199,209.482834 
	C19.590733,229.062805 33.927692,239.458344 55.073303,239.490021 
	C102.063324,239.560425 149.053604,239.542465 196.043579,239.458664 
	C200.167496,239.451309 204.431824,239.234344 208.389206,238.194611 
	C227.540512,233.162949 238.869873,218.331955 239.127121,197.989639 
	C239.327271,182.162155 239.169800,166.330124 239.171265,149.500092 
z"/>
<path fill="#B19E00" opacity="1.000000" stroke="none" 
	d="
M239.171265,150.000107 
	C239.169800,166.330124 239.327271,182.162155 239.127121,197.989639 
	C238.869873,218.331955 227.540512,233.162949 208.389206,238.194611 
	C204.431824,239.234344 200.167496,239.451309 196.043579,239.458664 
	C149.053604,239.542465 102.063324,239.560425 55.073303,239.490021 
	C33.927692,239.458344 19.590733,229.062805 13.846199,209.482834 
	C12.651462,205.410614 12.243664,200.976715 12.233743,196.707748 
	C12.124160,149.551224 12.142171,102.394348 12.175201,55.237602 
	C12.189892,34.262863 23.589727,18.706015 42.755348,13.845772 
	C46.891003,12.797004 51.320530,12.550678 55.615837,12.542594 
	C102.439178,12.454478 149.262756,12.463573 196.086243,12.496586 
	C222.518967,12.515224 239.092285,29.044924 239.153824,55.520252 
	C239.226624,86.846710 239.171127,118.173470 239.171265,150.000107 
M206.185471,173.499359 
	C206.185501,163.668457 206.285950,153.835938 206.125931,144.007645 
	C206.076233,140.956345 207.102478,139.034225 209.231873,136.767624 
	C211.270111,134.598022 212.744064,131.055618 212.847977,128.060440 
	C213.252121,116.410583 213.039078,104.738312 213.003586,93.074554 
	C212.979538,85.172165 209.143311,81.039810 201.153168,80.889778 
	C189.993011,80.680199 178.826263,80.821945 167.662338,80.814934 
	C163.705673,80.812447 159.749008,80.814537 155.561325,80.814537 
	C155.398621,78.983345 155.282379,77.699341 155.170776,76.414940 
	C154.590973,69.742508 151.593201,65.969193 144.910980,65.792656 
	C131.606598,65.441162 118.279190,65.691261 104.968483,66.001419 
	C100.487991,66.105820 97.775124,69.214020 96.630585,73.405769 
	C96.028137,75.612167 95.962936,77.965263 95.579475,80.814301 
	C93.928932,80.814301 92.306892,80.814041 90.684853,80.814346 
	C77.354721,80.816856 64.023216,80.704605 50.694954,80.863602 
	C42.207027,80.964851 38.078556,85.176743 38.011433,93.504654 
	C37.921455,104.667915 38.021072,115.832581 37.974499,126.996384 
	C37.956043,131.420120 39.434975,134.983414 42.812553,138.001389 
	C44.038280,139.096588 44.875832,141.275040 44.894650,142.970276 
	C45.055550,157.465012 44.937225,171.962555 45.006798,186.458740 
	C45.048660,195.182144 48.911869,199.010208 57.422146,199.011002 
	C103.244507,199.015259 149.066864,199.020920 194.889221,199.004242 
	C201.868729,199.001709 205.717773,195.468460 206.086609,188.491516 
	C206.332581,183.838547 206.166901,179.163803 206.185471,173.499359 
z"/>
<path fill="#060600" opacity="1.000000" stroke="none" 
	d="
M206.185471,173.999084 
	C206.166901,179.163803 206.332581,183.838547 206.086609,188.491516 
	C205.717773,195.468460 201.868729,199.001709 194.889221,199.004242 
	C149.066864,199.020920 103.244507,199.015259 57.422146,199.011002 
	C48.911869,199.010208 45.048660,195.182144 45.006798,186.458740 
	C44.937225,171.962555 45.055550,157.465012 44.894650,142.970276 
	C44.875832,141.275040 44.038280,139.096588 42.812553,138.001389 
	C39.434975,134.983414 37.956043,131.420120 37.974499,126.996384 
	C38.021072,115.832581 37.921455,104.667915 38.011433,93.504654 
	C38.078556,85.176743 42.207027,80.964851 50.694954,80.863602 
	C64.023216,80.704605 77.354721,80.816856 90.684853,80.814346 
	C92.306892,80.814041 93.928932,80.814301 95.579475,80.814301 
	C95.962936,77.965263 96.028137,75.612167 96.630585,73.405769 
	C97.775124,69.214020 100.487991,66.105820 104.968483,66.001419 
	C118.279190,65.691261 131.606598,65.441162 144.910980,65.792656 
	C151.593201,65.969193 154.590973,69.742508 155.170776,76.414940 
	C155.282379,77.699341 155.398621,78.983345 155.561325,80.814537 
	C159.749008,80.814537 163.705673,80.812447 167.662338,80.814934 
	C178.826263,80.821945 189.993011,80.680199 201.153168,80.889778 
	C209.143311,81.039810 212.979538,85.172165 213.003586,93.074554 
	C213.039078,104.738312 213.252121,116.410583 212.847977,128.060440 
	C212.744064,131.055618 211.270111,134.598022 209.231873,136.767624 
	C207.102478,139.034225 206.076233,140.956345 206.125931,144.007645 
	C206.285950,153.835938 206.185501,163.668457 206.185471,173.999084 
M63.379513,137.051178 
	C67.529991,137.824860 71.680466,138.598526 76.158371,139.433228 
	C76.341713,137.407974 76.672836,136.097763 76.536568,134.838135 
	C76.022072,130.082596 77.962082,128.091660 82.789696,128.524506 
	C85.931183,128.806168 89.122276,128.681961 92.283699,128.554718 
	C95.860703,128.410797 97.332603,129.942596 97.470650,133.556351 
	C97.844124,143.332855 97.922195,143.452103 107.724815,145.519501 
	C113.991501,146.841156 120.388008,148.779068 126.655418,148.544708 
	C134.013550,148.269592 141.246506,145.545639 148.626541,144.640091 
	C153.504028,144.041611 154.418518,141.909424 154.249573,137.497711 
	C153.917358,128.821915 154.162354,128.812531 162.887848,128.811615 
	C163.387833,128.811554 163.887833,128.811584 164.387817,128.811584 
	C173.813934,128.811661 173.809860,128.812088 174.790115,138.094406 
	C174.819839,138.376038 175.137665,138.627243 175.698349,139.438080 
	C184.486954,137.779892 193.531921,136.025986 202.597076,134.383438 
	C206.969482,133.591156 208.035538,130.723038 208.009125,126.788185 
	C207.936371,115.955536 208.009811,105.121986 207.974136,94.288963 
	C207.954391,88.294060 205.838608,86.039551 199.952362,86.035522 
	C150.453293,86.001701 100.954155,86.005295 51.455063,86.031639 
	C45.611713,86.034744 43.336914,88.003311 43.252911,93.617241 
	C43.083366,104.947823 43.136810,116.283173 43.231236,127.615448 
	C43.261692,131.271210 44.748959,133.873016 48.910614,134.451736 
	C53.474113,135.086334 57.980667,136.130463 63.379513,137.051178 
M77.500008,194.147446 
	C115.820488,194.147293 154.140976,194.154877 192.461456,194.139893 
	C199.451019,194.137146 200.931793,192.631638 200.978943,185.641510 
	C201.008163,181.309814 200.984650,176.977768 200.984665,172.645889 
	C200.984711,162.180588 200.984680,151.715286 200.984680,140.728226 
	C192.462402,142.264755 184.488358,143.579742 176.599762,145.289108 
	C175.674774,145.489548 174.715271,147.830093 174.625854,149.232971 
	C173.687134,163.959457 173.735275,163.962463 159.052292,163.183167 
	C158.886017,163.174332 158.719101,163.171249 158.552628,163.173782 
	C155.399734,163.221832 154.029663,161.646973 154.133774,158.527603 
	C154.226822,155.739685 154.153336,152.946198 154.153336,149.428055 
	C144.231323,151.314682 135.003372,154.429886 125.771095,154.442749 
	C116.508110,154.455673 107.240799,151.375290 97.419121,149.547058 
	C97.419121,153.183167 97.318726,155.670639 97.442299,158.146957 
	C97.634766,162.003525 95.891296,163.624435 92.066498,163.451370 
	C88.741104,163.300903 85.393982,163.262131 82.073700,163.461334 
	C77.963287,163.707947 76.334503,161.974533 76.533035,157.894531 
	C76.738953,153.662888 76.578888,149.413437 76.578888,145.519714 
	C67.230408,143.829422 59.009380,142.342987 50.267311,140.762344 
	C50.267311,157.049881 50.161499,172.679901 50.341499,188.306641 
	C50.386662,192.227112 53.016529,194.158966 57.006775,194.138474 
	C63.504349,194.105118 70.002274,194.140869 77.500008,194.147446 
M149.907822,75.877052 
	C149.342224,71.547104 146.335861,70.795204 142.669876,70.808495 
	C131.351364,70.849541 120.032364,70.777611 108.714035,70.838997 
	C102.153992,70.874573 100.456917,73.208626 101.915245,80.589096 
	C117.067047,80.589096 132.341080,80.648140 147.610962,80.424355 
	C148.421417,80.412476 149.196854,78.010910 149.907822,75.877052 
M91.844101,151.357758 
	C91.844101,145.731445 91.844101,140.105133 91.844101,134.309753 
	C88.147392,134.309753 85.261421,134.309753 82.373306,134.309753 
	C82.373306,142.354477 82.373306,150.075104 82.373306,157.620789 
	C85.675827,157.620789 88.579796,157.620789 91.844025,157.620789 
	C91.844025,155.594757 91.844025,153.953979 91.844101,151.357758 
M159.608505,147.479660 
	C159.608505,150.885971 159.608505,154.292282 159.608505,157.683167 
	C163.197647,157.683167 165.949203,157.683167 168.741943,157.683167 
	C168.741943,149.674438 168.741943,141.972244 168.741943,134.322021 
	C165.570557,134.322021 162.808975,134.322021 159.764923,134.322021 
	C159.764923,138.579300 159.764923,142.537537 159.608505,147.479660 
z"/>
<path fill="#B29E00" opacity="1.000000" stroke="none" 
	d="
M62.945774,137.023651 
	C57.980667,136.130463 53.474113,135.086334 48.910614,134.451736 
	C44.748959,133.873016 43.261692,131.271210 43.231236,127.615448 
	C43.136810,116.283173 43.083366,104.947823 43.252911,93.617241 
	C43.336914,88.003311 45.611713,86.034744 51.455063,86.031639 
	C100.954155,86.005295 150.453293,86.001701 199.952362,86.035522 
	C205.838608,86.039551 207.954391,88.294060 207.974136,94.288963 
	C208.009811,105.121986 207.936371,115.955536 208.009125,126.788185 
	C208.035538,130.723038 206.969482,133.591156 202.597076,134.383438 
	C193.531921,136.025986 184.486954,137.779892 175.698349,139.438080 
	C175.137665,138.627243 174.819839,138.376038 174.790115,138.094406 
	C173.809860,128.812088 173.813934,128.811661 164.387817,128.811584 
	C163.887833,128.811584 163.387833,128.811554 162.887848,128.811615 
	C154.162354,128.812531 153.917358,128.821915 154.249573,137.497711 
	C154.418518,141.909424 153.504028,144.041611 148.626541,144.640091 
	C141.246506,145.545639 134.013550,148.269592 126.655418,148.544708 
	C120.388008,148.779068 113.991501,146.841156 107.724815,145.519501 
	C97.922195,143.452103 97.844124,143.332855 97.470650,133.556351 
	C97.332603,129.942596 95.860703,128.410797 92.283699,128.554718 
	C89.122276,128.681961 85.931183,128.806168 82.789696,128.524506 
	C77.962082,128.091660 76.022072,130.082596 76.536568,134.838135 
	C76.672836,136.097763 76.341713,137.407974 76.158371,139.433228 
	C71.680466,138.598526 67.529991,137.824860 62.945774,137.023651 
M105.088493,92.380257 
	C105.088493,105.447617 105.088493,118.514984 105.088493,131.605804 
	C119.288765,131.605804 132.871597,131.605804 146.850189,130.794418 
	C146.920059,118.976830 146.863739,107.156387 147.131027,95.343262 
	C147.219696,91.423561 145.886841,90.031342 141.987808,90.094482 
	C131.500473,90.264313 121.007812,90.088539 110.519234,90.213943 
	C108.803452,90.234467 107.097626,91.088043 105.088493,92.380257 
z"/>
<path fill="#B29E00" opacity="1.000000" stroke="none" 
	d="
M77.000031,194.147446 
	C70.002274,194.140869 63.504349,194.105118 57.006775,194.138474 
	C53.016529,194.158966 50.386662,192.227112 50.341499,188.306641 
	C50.161499,172.679901 50.267311,157.049881 50.267311,140.762344 
	C59.009380,142.342987 67.230408,143.829422 76.578888,145.519714 
	C76.578888,149.413437 76.738953,153.662888 76.533035,157.894531 
	C76.334503,161.974533 77.963287,163.707947 82.073700,163.461334 
	C85.393982,163.262131 88.741104,163.300903 92.066498,163.451370 
	C95.891296,163.624435 97.634766,162.003525 97.442299,158.146957 
	C97.318726,155.670639 97.419121,153.183167 97.419121,149.547058 
	C107.240799,151.375290 116.508110,154.455673 125.771095,154.442749 
	C135.003372,154.429886 144.231323,151.314682 154.153336,149.428055 
	C154.153336,152.946198 154.226822,155.739685 154.133774,158.527603 
	C154.029663,161.646973 155.399734,163.221832 158.552628,163.173782 
	C158.719101,163.171249 158.886017,163.174332 159.052292,163.183167 
	C173.735275,163.962463 173.687134,163.959457 174.625854,149.232971 
	C174.715271,147.830093 175.674774,145.489548 176.599762,145.289108 
	C184.488358,143.579742 192.462402,142.264755 200.984680,140.728226 
	C200.984680,151.715286 200.984711,162.180588 200.984665,172.645889 
	C200.984650,176.977768 201.008163,181.309814 200.978943,185.641510 
	C200.931793,192.631638 199.451019,194.137146 192.461456,194.139893 
	C154.140976,194.154877 115.820488,194.147293 77.000031,194.147446 
z"/>
<path fill="#A99600" opacity="1.000000" stroke="none" 
	d="
M149.948212,76.299438 
	C149.196854,78.010910 148.421417,80.412476 147.610962,80.424355 
	C132.341080,80.648140 117.067047,80.589096 101.915245,80.589096 
	C100.456917,73.208626 102.153992,70.874573 108.714035,70.838997 
	C120.032364,70.777611 131.351364,70.849541 142.669876,70.808495 
	C146.335861,70.795204 149.342224,71.547104 149.948212,76.299438 
z"/>
<path fill="#A99600" opacity="1.000000" stroke="none" 
	d="
M91.844063,151.835480 
	C91.844025,153.953979 91.844025,155.594757 91.844025,157.620789 
	C88.579796,157.620789 85.675827,157.620789 82.373306,157.620789 
	C82.373306,150.075104 82.373306,142.354477 82.373306,134.309753 
	C85.261421,134.309753 88.147392,134.309753 91.844101,134.309753 
	C91.844101,140.105133 91.844101,145.731445 91.844063,151.835480 
z"/>
<path fill="#B29E00" opacity="1.000000" stroke="none" 
	d="
M159.686707,146.987701 
	C159.764923,142.537537 159.764923,138.579300 159.764923,134.322021 
	C162.808975,134.322021 165.570557,134.322021 168.741943,134.322021 
	C168.741943,141.972244 168.741943,149.674438 168.741943,157.683167 
	C165.949203,157.683167 163.197647,157.683167 159.608505,157.683167 
	C159.608505,154.292282 159.608505,150.885971 159.686707,146.987701 
z"/>
<path fill="#3F3800" opacity="1.000000" stroke="none" 
	d="
M105.387199,91.556595 
	C107.097626,91.088043 108.803452,90.234467 110.519234,90.213943 
	C121.007812,90.088539 131.500473,90.264313 141.987808,90.094482 
	C145.886841,90.031342 147.219696,91.423561 147.131027,95.343262 
	C146.863739,107.156387 146.920059,118.976830 146.514648,131.020187 
	C146.179123,131.245956 145.893921,130.893921 145.909576,130.432526 
	C145.925232,117.396950 145.925232,104.822792 145.925232,92.104881 
	C132.055511,92.104881 119.081406,92.104881 105.929153,91.965347 
	C105.750999,91.825821 105.387199,91.556595 105.387199,91.556595 
z"/>
<path fill="#3F3800" opacity="1.000000" stroke="none" 
	d="
M146.316772,131.425873 
	C132.871597,131.605804 119.288765,131.605804 105.088493,131.605804 
	C105.088493,118.514984 105.088493,105.447617 105.237846,91.968430 
	C105.387199,91.556595 105.750999,91.825821 105.913055,92.426727 
	C106.075111,105.572449 106.075111,118.117279 106.075111,130.893921 
	C119.967880,130.893921 132.930893,130.893921 145.893921,130.893921 
	C145.893921,130.893921 146.179123,131.245956 146.316772,131.425873 
z"/>
<path fill="#B29E00" opacity="1.000000" stroke="none" 
	d="
M145.909576,130.432526 
	C132.930893,130.893921 119.967880,130.893921 106.075111,130.893921 
	C106.075111,118.117279 106.075111,105.572449 106.091209,92.566254 
	C119.081406,92.104881 132.055511,92.104881 145.925232,92.104881 
	C145.925232,104.822792 145.925232,117.396950 145.909576,130.432526 
M123.567528,124.117401 
	C125.812477,125.556419 128.057419,126.995445 130.297623,128.431427 
	C131.429779,122.682938 130.600830,121.933929 122.837700,121.483505 
	C122.846367,122.300301 122.855034,123.117104 123.567528,124.117401 
M119.872704,116.603943 
	C119.856491,116.885086 119.840271,117.166229 118.928215,117.400612 
	C115.348000,117.400612 111.767792,117.400612 108.075958,117.400612 
	C108.075958,121.888527 108.075958,125.616837 108.075958,129.608017 
	C112.106102,129.608017 115.816032,129.608017 120.179375,129.608017 
	C120.179375,125.884781 120.179375,122.452248 120.712669,119.135056 
	C121.498657,118.868141 122.284653,118.601219 123.070641,118.334305 
	C122.015305,116.903282 120.959961,115.472260 119.338211,113.879860 
	C119.974518,112.594742 120.610825,111.309624 121.683296,109.899406 
	C122.012955,109.486931 122.342621,109.074463 122.672279,108.661987 
	C122.131531,108.724876 121.590790,108.787766 120.270576,108.857468 
	C117.995148,108.226852 115.719711,107.596245 112.630890,106.740211 
	C114.089928,109.030632 115.728943,110.420753 115.616219,111.650261 
	C115.288834,115.220863 116.752487,116.200584 119.872704,116.603943 
M125.052727,106.398109 
	C125.052727,108.846886 125.052727,111.295662 125.052727,113.744446 
	C125.469803,113.817039 125.886871,113.889633 126.303947,113.962227 
	C127.532700,111.995529 128.761459,110.028831 129.985352,109.031624 
	C129.104568,112.923172 128.223770,116.814728 127.451561,120.226562 
	C131.009796,121.771317 134.508240,123.186958 137.868088,124.877968 
	C138.293030,125.091835 137.990768,126.750572 137.871582,127.355911 
	C137.196793,127.174408 136.522003,126.992905 135.847214,126.811401 
	C136.170410,127.194084 136.493591,127.576767 137.130035,128.611496 
	C140.211823,132.151016 141.559189,126.762024 144.051483,127.266968 
	C143.336258,126.246399 142.630203,125.219269 141.904251,124.206383 
	C138.623856,119.629372 135.348297,115.048798 132.044617,110.488609 
	C131.419342,109.625504 130.674423,108.849060 130.141266,107.311859 
	C130.141266,103.266190 130.141266,99.220520 130.141266,94.914253 
	C128.077606,95.055428 126.678596,95.151138 126.154503,95.186996 
	C126.296364,98.016953 126.420456,100.492378 126.028038,103.322182 
	C125.760406,104.083099 125.492767,104.844025 125.052727,106.398109 
M120.012177,103.765587 
	C120.012177,100.342323 120.012177,96.919060 120.012177,93.469414 
	C115.600677,93.469414 111.878983,93.469414 107.984215,93.469414 
	C107.984215,97.454933 107.984215,101.062897 107.984215,105.442566 
	C112.113976,105.138092 115.978287,104.853188 120.012177,103.765587 
M139.418457,93.092918 
	C137.019440,93.092918 134.620422,93.092918 132.198669,93.092918 
	C132.198669,97.500595 132.198669,101.078629 132.198669,104.825180 
	C136.280853,104.825180 140.100143,104.825180 144.235794,104.825180 
	C144.235794,101.783409 144.090866,99.147545 144.273636,96.534607 
	C144.486725,93.488304 142.886841,92.836174 139.418457,93.092918 
M144.522324,111.674171 
	C143.350723,110.539719 141.797241,108.222771 141.068054,108.458260 
	C135.340744,110.307892 141.947083,113.260841 140.720062,115.765778 
	C140.579117,116.053497 141.947006,117.080307 142.615311,117.764442 
	C143.179657,117.076309 144.025421,116.465042 144.239502,115.681236 
	C144.529266,114.620316 144.334381,113.427002 144.522324,111.674171 
M112.310394,111.418358 
	C110.534821,107.772324 110.534821,107.772324 107.557953,109.903717 
	C109.128441,110.565010 110.588730,111.179901 112.310394,111.418358 
M123.745140,99.039711 
	C123.337807,98.276459 122.930473,97.513214 122.523148,96.749969 
	C122.080734,97.337128 121.638321,97.924286 121.195900,98.511436 
	C121.964211,98.866631 122.732513,99.221832 123.745140,99.039711 
M143.116226,122.689774 
	C143.469086,122.509155 143.821930,122.328537 144.174789,122.147919 
	C143.946259,121.981201 143.582413,121.629517 143.512985,121.680290 
	C143.235458,121.883316 143.049408,122.211395 143.116226,122.689774 
M121.840187,105.240326 
	C122.103600,105.337242 122.367020,105.434166 122.630440,105.531090 
	C122.635002,105.264145 122.639565,104.997200 122.644119,104.730247 
	C122.377045,104.795341 122.109970,104.860435 121.840187,105.240326 
M107.733742,115.383759 
	C107.837364,115.325844 107.940987,115.267929 108.044601,115.210007 
	C107.962646,115.122780 107.880684,115.035561 107.798721,114.948326 
	C107.735313,115.049088 107.671906,115.149849 107.733742,115.383759 
M136.103363,111.067513 
	C136.219101,111.187073 136.317200,111.356865 136.457596,111.406136 
	C136.533981,111.432953 136.792618,111.233315 136.780746,111.172813 
	C136.678482,110.652374 136.533234,110.140388 136.400818,109.625877 
	C136.279785,109.917244 136.158752,110.208611 136.103363,111.067513 
z"/>
<path fill="#151300" opacity="1.000000" stroke="none" 
	d="
M138.025421,127.739899 
	C137.990768,126.750572 138.293030,125.091835 137.868088,124.877968 
	C134.508240,123.186958 131.009796,121.771317 127.451561,120.226562 
	C128.223770,116.814728 129.104568,112.923172 129.964401,108.548027 
	C129.943451,108.064430 129.984711,108.032623 129.984711,108.032623 
	C130.674423,108.849060 131.419342,109.625504 132.044617,110.488609 
	C135.348297,115.048798 138.623856,119.629372 141.904251,124.206383 
	C142.630203,125.219269 143.336258,126.246399 144.051483,127.266968 
	C141.559189,126.762024 140.211823,132.151016 137.278259,128.245346 
	C137.626129,127.832771 137.825775,127.786339 138.025421,127.739899 
z"/>
<path fill="#151300" opacity="1.000000" stroke="none" 
	d="
M120.179375,119.019714 
	C120.179375,122.452248 120.179375,125.884781 120.179375,129.608017 
	C115.816032,129.608017 112.106102,129.608017 108.075958,129.608017 
	C108.075958,125.616837 108.075958,121.888527 108.075958,117.400612 
	C111.767792,117.400612 115.348000,117.400612 119.408325,117.691452 
	C119.985420,118.328102 120.082397,118.673912 120.179375,119.019714 
M117.884544,127.175529 
	C117.884544,124.638008 117.884544,122.100487 117.884544,119.462608 
	C114.926643,119.462608 112.541748,119.462608 109.959091,119.462608 
	C109.959091,122.391273 109.959091,125.047752 109.959091,127.794144 
	C112.656952,127.794144 114.936974,127.794144 117.884544,127.175529 
z"/>
<path fill="#060600" opacity="1.000000" stroke="none" 
	d="
M130.062988,107.672241 
	C129.984711,108.032623 129.943451,108.064430 129.966827,108.063278 
	C128.761459,110.028831 127.532700,111.995529 126.303947,113.962227 
	C125.886871,113.889633 125.469803,113.817039 125.052727,113.744446 
	C125.052727,111.295662 125.052727,108.846886 125.412193,105.816635 
	C126.029289,104.479378 126.286919,103.723595 126.544548,102.967804 
	C126.420456,100.492378 126.296364,98.016953 126.154503,95.186996 
	C126.678596,95.151138 128.077606,95.055428 130.141266,94.914253 
	C130.141266,99.220520 130.141266,103.266190 130.062988,107.672241 
z"/>
<path fill="#151300" opacity="1.000000" stroke="none" 
	d="
M119.927383,104.166931 
	C115.978287,104.853188 112.113976,105.138092 107.984215,105.442566 
	C107.984215,101.062897 107.984215,97.454933 107.984215,93.469414 
	C111.878983,93.469414 115.600677,93.469414 120.012177,93.469414 
	C120.012177,96.919060 120.012177,100.342323 119.927383,104.166931 
M116.325348,95.059502 
	C114.232674,95.059502 112.139999,95.059502 110.007637,95.059502 
	C110.007637,98.131454 110.007637,100.646782 110.007637,103.109383 
	C112.894600,103.109383 115.312645,103.109383 118.487457,103.109383 
	C118.013741,100.177002 117.611824,97.689072 116.325348,95.059502 
z"/>
<path fill="#151300" opacity="1.000000" stroke="none" 
	d="
M139.883881,93.094017 
	C142.886841,92.836174 144.486725,93.488304 144.273636,96.534607 
	C144.090866,99.147545 144.235794,101.783409 144.235794,104.825180 
	C140.100143,104.825180 136.280853,104.825180 132.198669,104.825180 
	C132.198669,101.078629 132.198669,97.500595 132.198669,93.092918 
	C134.620422,93.092918 137.019440,93.092918 139.883881,93.094017 
M138.333374,95.020096 
	C136.915024,95.125710 135.496674,95.231331 134.233932,95.325356 
	C134.233932,98.221764 134.233932,100.618050 134.233932,103.160645 
	C137.017776,103.160645 139.426376,103.160645 142.508835,103.160645 
	C141.114059,100.197807 145.658829,95.771584 138.333374,95.020096 
z"/>
<path fill="#A59200" opacity="1.000000" stroke="none" 
	d="
M144.434875,111.982330 
	C144.334381,113.427002 144.529266,114.620316 144.239502,115.681236 
	C144.025421,116.465042 143.179657,117.076309 142.615311,117.764435 
	C141.947006,117.080307 140.579117,116.053497 140.720062,115.765778 
	C141.947083,113.260841 135.340744,110.307892 141.068054,108.458260 
	C141.797241,108.222771 143.350723,110.539719 144.434875,111.982330 
z"/>
<path fill="#151300" opacity="1.000000" stroke="none" 
	d="
M121.247124,110.024506 
	C120.610825,111.309624 119.974518,112.594742 119.653137,114.246124 
	C119.951385,114.995033 119.934700,115.377678 119.918022,115.760323 
	C116.752487,116.200584 115.288834,115.220863 115.616219,111.650261 
	C115.728943,110.420753 114.089928,109.030632 112.630890,106.740211 
	C115.719711,107.596245 117.995148,108.226852 120.702820,109.148659 
	C121.172417,109.634735 121.209770,109.829620 121.247124,110.024506 
z"/>
<path fill="#A59200" opacity="1.000000" stroke="none" 
	d="
M123.142097,121.986168 
	C130.600830,121.933929 131.429779,122.682938 130.297623,128.431427 
	C128.057419,126.995445 125.812477,125.556419 123.258667,123.699890 
	C123.013901,122.850311 123.078003,122.418236 123.142097,121.986168 
z"/>
<path fill="#A59200" opacity="1.000000" stroke="none" 
	d="
M112.179703,111.606575 
	C110.588730,111.179901 109.128441,110.565010 107.557953,109.903717 
	C110.534821,107.772324 110.534821,107.772324 112.179703,111.606575 
z"/>
<path fill="#A59200" opacity="1.000000" stroke="none" 
	d="
M119.895363,116.182129 
	C119.934700,115.377678 119.951385,114.995033 119.936348,114.326813 
	C120.959961,115.472260 122.015305,116.903282 123.070641,118.334305 
	C122.284653,118.601219 121.498657,118.868141 120.446022,119.077385 
	C120.082397,118.673912 119.985420,118.328102 119.856247,117.714844 
	C119.840271,117.166229 119.856491,116.885086 119.895363,116.182129 
z"/>
<path fill="#A59200" opacity="1.000000" stroke="none" 
	d="
M123.622986,99.308365 
	C122.732513,99.221832 121.964211,98.866631 121.195908,98.511444 
	C121.638321,97.924286 122.080734,97.337128 122.523148,96.749969 
	C122.930473,97.513214 123.337807,98.276459 123.622986,99.308365 
z"/>
<path fill="#A59200" opacity="1.000000" stroke="none" 
	d="
M142.972870,122.591492 
	C143.049408,122.211395 143.235458,121.883316 143.512985,121.680290 
	C143.582413,121.629517 143.946259,121.981201 144.174789,122.147919 
	C143.821930,122.328537 143.469086,122.509155 142.972870,122.591492 
z"/>
<path fill="#A59200" opacity="1.000000" stroke="none" 
	d="
M121.465210,109.961960 
	C121.209770,109.829620 121.172417,109.634735 121.092545,109.145248 
	C121.590790,108.787766 122.131531,108.724876 122.672279,108.661987 
	C122.342621,109.074463 122.012955,109.486931 121.465210,109.961960 
z"/>
<path fill="#A59200" opacity="1.000000" stroke="none" 
	d="
M137.948517,127.547905 
	C137.825775,127.786339 137.626129,127.832771 137.121628,127.919327 
	C136.493591,127.576767 136.170410,127.194084 135.847214,126.811401 
	C136.522003,126.992905 137.196793,127.174408 137.948517,127.547905 
z"/>
<path fill="#A59200" opacity="1.000000" stroke="none" 
	d="
M121.841537,105.082924 
	C122.109970,104.860435 122.377045,104.795341 122.644119,104.730255 
	C122.639565,104.997200 122.635002,105.264145 122.630432,105.531090 
	C122.367020,105.434166 122.103600,105.337242 121.841537,105.082924 
z"/>
<path fill="#A59200" opacity="1.000000" stroke="none" 
	d="
M126.286293,103.144989 
	C126.286919,103.723595 126.029289,104.479378 125.498398,105.420059 
	C125.492767,104.844025 125.760406,104.083099 126.286293,103.144989 
z"/>
<path fill="#A59200" opacity="1.000000" stroke="none" 
	d="
M107.671120,115.317184 
	C107.671906,115.149849 107.735313,115.049088 107.798721,114.948334 
	C107.880684,115.035561 107.962646,115.122780 108.044601,115.210007 
	C107.940987,115.267929 107.837364,115.325844 107.671120,115.317184 
z"/>
<path fill="#010100" opacity="1.000000" stroke="none" 
	d="
M136.070541,110.783745 
	C136.158752,110.208611 136.279785,109.917244 136.400818,109.625877 
	C136.533234,110.140388 136.678482,110.652374 136.780746,111.172813 
	C136.792618,111.233315 136.533981,111.432953 136.457596,111.406136 
	C136.317200,111.356865 136.219101,111.187073 136.070541,110.783745 
z"/>
<path fill="#010100" opacity="1.000000" stroke="none" 
	d="
M122.989899,121.734833 
	C123.078003,122.418236 123.013901,122.850311 122.906754,123.608139 
	C122.855034,123.117104 122.846367,122.300301 122.989899,121.734833 
z"/>
<path fill="#A59200" opacity="1.000000" stroke="none" 
	d="
M117.550766,127.484833 
	C114.936974,127.794144 112.656952,127.794144 109.959091,127.794144 
	C109.959091,125.047752 109.959091,122.391273 109.959091,119.462608 
	C112.541748,119.462608 114.926643,119.462608 117.884544,119.462608 
	C117.884544,122.100487 117.884544,124.638008 117.550766,127.484833 
M116.281448,123.530807 
	C115.008514,122.498665 113.735580,121.466522 111.491333,119.646797 
	C111.491333,122.904106 111.491333,124.284012 111.491333,126.934769 
	C113.537704,125.848381 114.889374,125.130791 116.281448,123.530807 
z"/>
<path fill="#A59200" opacity="1.000000" stroke="none" 
	d="
M116.767624,95.130325 
	C117.611824,97.689072 118.013741,100.177002 118.487457,103.109383 
	C115.312645,103.109383 112.894600,103.109383 110.007637,103.109383 
	C110.007637,100.646782 110.007637,98.131454 110.007637,95.059502 
	C112.139999,95.059502 114.232674,95.059502 116.767624,95.130325 
M115.362831,101.679184 
	C115.144821,100.067261 114.926819,98.455338 114.708817,96.843422 
	C113.541466,97.399612 111.628807,97.708649 111.346977,98.558502 
	C110.512779,101.074028 111.880203,102.249428 115.362831,101.679184 
z"/>
<path fill="#A59200" opacity="1.000000" stroke="none" 
	d="
M138.771667,95.021118 
	C145.658829,95.771584 141.114059,100.197807 142.508835,103.160645 
	C139.426376,103.160645 137.017776,103.160645 134.233932,103.160645 
	C134.233932,100.618050 134.233932,98.221764 134.233932,95.325356 
	C135.496674,95.231331 136.915024,95.125710 138.771667,95.021118 
M140.015854,101.667892 
	C139.744354,100.055367 139.472855,98.442841 139.201370,96.830307 
	C138.049026,97.405212 136.143982,97.749908 135.884628,98.597916 
	C135.087036,101.205933 136.637726,102.202232 140.015854,101.667892 
z"/>
<path fill="#060600" opacity="1.000000" stroke="none" 
	d="
M116.261246,123.972000 
	C114.889374,125.130791 113.537704,125.848381 111.491333,126.934769 
	C111.491333,124.284012 111.491333,122.904106 111.491333,119.646797 
	C113.735580,121.466522 115.008514,122.498665 116.261246,123.972000 
z"/>
<path fill="#060600" opacity="1.000000" stroke="none" 
	d="
M114.938187,101.753464 
	C111.880203,102.249428 110.512779,101.074028 111.346977,98.558502 
	C111.628807,97.708649 113.541466,97.399612 114.708817,96.843414 
	C114.926819,98.455338 115.144821,100.067261 114.938187,101.753464 
z"/>
<path fill="#060600" opacity="1.000000" stroke="none" 
	d="
M139.597504,101.747192 
	C136.637726,102.202232 135.087036,101.205933 135.884628,98.597916 
	C136.143982,97.749908 138.049026,97.405212 139.201370,96.830307 
	C139.472855,98.442841 139.744354,100.055367 139.597504,101.747192 
z"/>
</svg>