<svg version="1.1" id="Layer_1" xmlns="http://www.w3.org/2000/svg" xmlns:xlink="http://www.w3.org/1999/xlink" x="0px" y="0px"
	 width="100%" viewBox="0 0 250 250" enable-background="new 0 0 250 250" xml:space="preserve">
<path fill="#000000" opacity="1.000000" stroke="none" 
	d="
M144.000000,251.000000 
	C97.166672,251.000000 50.833248,250.964127 4.500223,251.083359 
	C1.517170,251.091034 0.914226,250.482208 0.918007,247.499908 
	C1.020705,166.500046 1.020703,85.500000 0.918015,4.500127 
	C0.914235,1.517938 1.517758,0.914224 4.500080,0.918005 
	C85.499947,1.020706 166.499985,1.020701 247.499847,0.918020 
	C250.481995,0.914239 251.085800,1.517689 251.082016,4.500065 
	C250.979309,85.499939 250.979294,166.499985 251.081970,247.499847 
	C251.085754,250.481964 250.483765,251.095917 247.499741,251.084427 
	C213.166885,250.952011 178.833359,251.000000 144.000000,251.000000 
z"/>
<path fill="#4C0056" opacity="1.000000" stroke="none" 
	d="
M183.997406,12.428398 
	C193.465439,12.590136 202.504684,11.746845 211.285583,14.466738 
	C226.544754,19.193275 238.036804,33.568111 238.894562,49.564121 
	C239.304474,57.208260 239.149796,64.885704 239.153244,72.548111 
	C239.171783,113.866974 239.060516,155.186218 239.204697,196.504578 
	C239.266373,214.182617 231.985596,227.228256 216.244080,235.456314 
	C210.157593,238.637711 203.553314,239.491760 196.869354,239.502258 
	C149.386200,239.576889 101.901924,239.719177 54.420002,239.466034 
	C33.418873,239.354065 19.005955,228.285034 13.642479,209.258179 
	C12.508595,205.235764 12.182070,201.062790 12.179690,196.899170 
	C12.152651,149.582397 12.098717,102.265495 12.191203,54.948895 
	C12.232267,33.940426 24.094282,18.261957 43.138813,13.671314 
	C48.018219,12.495144 53.040215,12.429583 58.042492,12.429296 
	C99.861008,12.426902 141.679535,12.427929 183.997406,12.428398 
z"/>
<path fill="#020002" opacity="1.000000" stroke="none" 
	d="
M103.785301,203.190674 
	C47.975685,186.727905 26.955420,120.728226 62.719685,75.374207 
	C82.325714,50.511063 115.983208,39.716145 147.223923,48.271286 
	C177.707108,56.618980 201.156265,83.608780 205.101364,114.887703 
	C210.888107,160.768402 179.297089,200.950287 133.390961,205.776855 
	C123.583557,206.807999 113.742355,206.152008 103.785301,203.190674 
z"/>
<path fill="#4D0057" opacity="1.000000" stroke="none" 
	d="
M117.106239,59.945339 
	C168.341583,54.809937 205.433136,102.826721 187.276398,150.162430 
	C170.086014,194.978729 111.090446,206.722397 77.769249,171.666977 
	C59.581581,152.532730 54.251163,129.632553 62.759594,104.666779 
	C71.448250,79.172150 89.927277,64.305748 117.106239,59.945339 
z"/>
<path fill="#020002" opacity="1.000000" stroke="none" 
	d="
M134.171356,133.012650 
	C134.164246,141.503967 134.246475,149.499191 134.121338,157.491180 
	C134.022797,163.785080 131.640228,165.906998 125.061279,165.997925 
	C117.905693,166.096848 115.312073,164.117966 115.224876,157.786636 
	C115.066635,146.297852 115.056038,134.803238 115.238068,123.315094 
	C115.333450,117.295868 118.333847,115.083534 125.315392,115.171013 
	C131.362289,115.246780 133.917282,117.622086 134.129227,123.522820 
	C134.236755,126.516907 134.163055,129.517502 134.171356,133.012650 
z"/>
<path fill="#020002" opacity="1.000000" stroke="none" 
	d="
M133.697662,102.077194 
	C130.056488,106.532738 123.128357,107.960220 118.783813,105.512032 
	C115.518219,103.671837 113.961807,97.182144 115.637939,92.394852 
	C117.042511,88.383194 120.585999,86.918587 126.918327,87.519005 
	C131.127274,87.918083 133.814102,89.835518 134.024841,94.258041 
	C134.142426,96.725700 133.910034,99.210030 133.697662,102.077194 
z"/>
</svg>