<svg version="1.1" id="Layer_1" xmlns="http://www.w3.org/2000/svg" xmlns:xlink="http://www.w3.org/1999/xlink" x="0px" y="0px"
	 width="100%" viewBox="0 0 250 250" enable-background="new 0 0 250 250" xml:space="preserve">
<path fill="#000000" opacity="1.000000" stroke="none" 
	d="
M142.000000,251.000000 
	C94.666672,251.000000 47.833340,251.000000 1.000006,251.000000 
	C1.000004,167.666672 1.000004,84.333351 1.000002,1.000018 
	C84.333321,1.000012 167.666641,1.000012 250.999969,1.000006 
	C250.999969,84.333321 250.999969,167.666641 250.999985,250.999969 
	C214.833328,251.000000 178.666672,251.000000 142.000000,251.000000 
M209.463943,13.939007 
	C205.673599,13.440785 201.884109,12.516458 198.092804,12.508982 
	C149.935425,12.414022 101.773651,12.075661 53.621895,12.606332 
	C28.107399,12.887523 12.228311,29.925522 12.180068,55.393948 
	C12.091058,102.385208 12.111138,149.376862 12.225396,196.368027 
	C12.236215,200.817307 12.674482,205.422455 13.874265,209.685043 
	C19.356497,229.162399 34.096531,239.516769 56.412048,239.565338 
	C102.403442,239.665436 148.395203,239.602005 194.386795,239.580338 
	C196.714294,239.579239 199.047333,239.401932 201.368271,239.198334 
	C223.165726,237.286285 238.764816,221.695709 238.941376,199.964798 
	C239.342087,150.644775 239.269699,101.317986 238.960068,51.996647 
	C238.845032,33.672867 227.661621,19.703005 209.463943,13.939007 
z"/>
<path fill="#2F5C00" opacity="1.000000" stroke="none" 
	d="
M209.860184,14.043230 
	C227.661621,19.703005 238.845032,33.672867 238.960068,51.996647 
	C239.269699,101.317986 239.342087,150.644775 238.941376,199.964798 
	C238.764816,221.695709 223.165726,237.286285 201.368271,239.198334 
	C199.047333,239.401932 196.714294,239.579239 194.386795,239.580338 
	C148.395203,239.602005 102.403442,239.665436 56.412048,239.565338 
	C34.096531,239.516769 19.356497,229.162399 13.874265,209.685043 
	C12.674482,205.422455 12.236215,200.817307 12.225396,196.368027 
	C12.111138,149.376862 12.091058,102.385208 12.180068,55.393948 
	C12.228311,29.925522 28.107399,12.887523 53.621895,12.606332 
	C101.773651,12.075661 149.935425,12.414022 198.092804,12.508982 
	C201.884109,12.516458 205.673599,13.440785 209.860184,14.043230 
M182.438751,56.982765 
	C152.112411,56.985130 121.786011,56.958450 91.459740,57.007973 
	C82.623344,57.022400 79.387268,60.280643 79.148758,69.013191 
	C79.126015,69.845840 79.019585,70.698044 79.149239,71.509659 
	C80.533340,80.174370 77.568382,86.757637 70.723129,92.390244 
	C62.799786,98.909943 59.724754,107.851219 59.913696,118.176331 
	C60.184986,133.001450 59.961361,147.835358 59.989441,162.665436 
	C59.994686,165.435562 59.911419,167.759872 56.571983,169.022491 
	C55.175453,169.550507 53.733944,171.967117 53.647068,173.596207 
	C53.310482,179.907715 53.239002,186.267487 53.693584,192.564178 
	C53.814198,194.234894 56.166233,195.744522 57.493721,197.328110 
	C58.659000,195.566422 60.560303,193.911255 60.833946,192.020508 
	C61.377586,188.264252 61.112553,184.375992 61.014343,180.546570 
	C60.936047,177.493683 62.008598,175.884232 65.302895,175.894394 
	C82.798553,175.948334 100.294495,175.938080 117.790253,175.906982 
	C120.722237,175.901779 122.018661,177.190155 121.971695,180.139740 
	C121.905403,184.303406 121.627983,188.527390 122.233078,192.608109 
	C122.491165,194.348618 124.750259,195.792404 126.100067,197.371017 
	C127.245026,195.773224 129.277267,194.228867 129.377319,192.568130 
	C129.757202,186.261444 129.555145,179.916626 129.481125,173.587112 
	C129.448288,170.779114 128.214508,169.052521 125.173996,168.402054 
	C120.056053,167.307175 120.256577,166.345245 123.429680,162.031174 
	C126.717377,157.561310 129.308273,152.499527 131.625931,147.432266 
	C132.640076,145.214981 133.155472,141.486404 129.376205,141.116226 
	C127.923225,140.973907 125.865189,143.706421 124.611420,145.498764 
	C121.719696,149.632660 119.114479,153.970078 116.468315,158.271240 
	C115.211609,160.313934 114.318932,162.604584 112.902733,164.517395 
	C111.812485,165.989960 110.186844,168.092224 108.756897,168.126114 
	C96.433586,168.418121 84.100525,168.275711 71.770660,168.328568 
	C68.254532,168.343643 67.164116,166.466232 67.182358,163.278137 
	C67.230988,154.780350 67.095657,146.280991 67.197662,137.784225 
	C67.301552,129.130280 67.301498,120.457520 67.910278,111.832756 
	C68.394058,104.978821 72.485443,100.030518 78.456963,95.616493 
	C78.887451,98.182152 78.824806,100.263588 79.646034,101.901985 
	C80.267632,103.142113 81.954475,104.399918 83.286247,104.543091 
	C84.210167,104.642418 85.817055,103.042015 86.256599,101.875999 
	C86.877136,100.229858 86.831573,98.284294 86.843376,96.465256 
	C86.898552,87.967422 87.067947,79.463127 86.805588,70.973228 
	C86.657570,66.183212 88.484833,64.563339 93.200775,64.583565 
	C123.693626,64.714432 154.187576,64.711929 184.680466,64.585899 
	C189.399002,64.566406 191.115326,66.210991 191.057129,70.998482 
	C190.850510,87.992302 190.994537,104.990204 190.970993,121.986511 
	C190.961975,128.486435 190.678543,128.797058 184.235062,128.808289 
	C163.739517,128.843994 143.243896,128.820984 122.748306,128.835693 
	C120.917595,128.837006 118.960915,128.569870 117.296310,129.126236 
	C115.971504,129.569031 113.958015,131.273987 114.106789,132.072891 
	C114.371399,133.493729 115.813911,135.113998 117.187576,135.791565 
	C118.556900,136.466995 120.446556,136.156708 122.108253,136.159317 
	C135.272064,136.180069 148.435913,136.176880 161.599747,136.171753 
	C170.431091,136.168304 179.264923,136.273392 188.092972,136.096466 
	C194.470596,135.968628 197.908920,132.929001 197.942017,127.218254 
	C198.060806,106.723480 198.011337,86.227562 197.974152,65.732170 
	C197.965103,60.740189 194.958527,58.133530 190.386551,57.285294 
	C188.121063,56.864983 185.740646,57.064068 182.438751,56.982765 
M114.743080,109.120934 
	C109.770592,113.782486 104.600533,118.257835 99.934929,123.208595 
	C98.345169,124.895523 97.288940,127.772224 97.269501,130.115891 
	C97.222054,135.838531 97.775963,141.583923 98.418709,147.282837 
	C98.593719,148.834579 99.943329,150.253815 100.753876,151.733887 
	C102.298355,150.782227 104.749290,150.140244 105.201859,148.815536 
	C106.196762,145.903336 107.330917,142.226456 106.373734,139.604431 
	C102.801064,129.817886 108.533768,124.523094 114.943092,119.239418 
	C116.480522,117.972008 117.923325,116.585754 119.367203,115.209625 
	C125.247330,109.605385 126.113213,102.202507 121.523994,96.955421 
	C116.887115,91.653824 109.298340,91.092720 103.162781,96.075089 
	C94.258301,103.305946 85.500053,110.727837 76.940926,118.361443 
	C75.625107,119.534988 74.637238,122.876465 75.362175,124.172005 
	C76.989235,127.079704 79.608276,125.578819 81.695724,123.946571 
	C82.742462,123.128105 83.717972,122.219032 84.734886,121.361816 
	C92.362740,114.931923 99.858353,108.331482 107.731857,102.217766 
	C109.376160,100.940971 112.928047,100.471519 114.702179,101.381721 
	C117.672356,102.905540 117.467018,105.976891 114.743080,109.120934 
M126.229347,84.962006 
	C126.215500,86.911537 126.201653,88.861061 126.187813,90.810593 
	C128.125046,90.507469 130.088882,90.312645 131.986145,89.846786 
	C132.723450,89.665749 133.283798,88.472015 133.970520,88.426247 
	C137.437485,88.195213 141.542572,87.024315 144.212448,88.450615 
	C146.642426,89.748772 148.590546,93.859596 148.857727,96.897141 
	C149.410843,103.185951 144.633789,106.208580 136.478790,106.287758 
	C134.722488,106.304817 132.981781,107.929031 131.233887,108.812935 
	C132.600128,110.398102 133.702011,112.935081 135.379166,113.400925 
	C142.049194,115.253563 147.962204,113.223862 152.498169,108.034416 
	C158.610107,101.041939 158.186050,90.929321 151.773666,84.450653 
	C144.669830,77.273399 135.382477,77.249840 126.229347,84.962006 
M140.046753,142.333862 
	C138.667206,145.899612 141.050095,147.143005 143.698181,148.126114 
	C152.892929,151.539703 162.045029,155.082047 171.325165,158.247604 
	C179.729355,161.114334 187.296906,155.210800 186.888672,146.202271 
	C186.828629,144.877319 185.511124,142.834869 184.404282,142.545868 
	C183.257797,142.246521 181.468018,143.452637 180.325043,144.428345 
	C179.537354,145.100769 179.234787,146.467300 178.952911,147.583603 
	C177.983948,151.421082 175.863464,152.084457 172.270782,150.695435 
	C163.899216,147.458755 155.468414,144.354141 146.948380,141.538696 
	C145.024582,140.902985 142.638855,141.665161 140.046753,142.333862 
M149.850189,162.655151 
	C147.237366,160.103439 144.877930,157.183167 141.912430,155.144455 
	C140.253082,154.003708 136.828201,153.271439 135.534988,154.205338 
	C132.805878,156.176178 134.852997,158.606628 136.710281,160.404419 
	C141.122009,164.674835 145.589844,168.887314 150.035522,173.122650 
	C157.947861,180.660629 163.602539,180.346802 170.224411,171.601395 
	C171.190994,170.324860 170.621399,167.885147 170.762619,165.983673 
	C168.855087,166.210190 166.453598,165.779221 165.125519,166.776993 
	C159.367935,171.102646 159.480942,171.255341 154.089645,166.444443 
	C152.851501,165.339600 151.622040,164.225067 149.850189,162.655151 
M105.585587,87.142960 
	C108.282959,83.069374 111.195969,79.112793 113.517128,74.835075 
	C114.057510,73.839180 112.584915,71.750999 112.038528,70.165398 
	C110.476952,70.710098 107.958870,70.838196 107.510483,71.867729 
	C104.790802,78.112167 100.727211,82.687096 94.277786,85.245415 
	C93.292610,85.636208 92.206650,88.514893 92.684280,89.230736 
	C93.467827,90.405083 95.723267,91.601990 96.950813,91.272484 
	C99.761345,90.518036 102.325859,88.847160 105.585587,87.142960 
M170.739182,107.210678 
	C168.556442,110.855019 166.085510,114.371117 164.371094,118.223846 
	C163.873337,119.342453 165.541000,121.424637 166.216019,123.065109 
	C167.726883,122.344467 170.146973,121.981270 170.594604,120.842644 
	C172.781296,115.280441 176.391739,111.382202 181.697571,108.670692 
	C182.800674,108.106949 182.973785,105.723427 183.575485,104.178558 
	C181.874161,103.583633 179.909225,102.144440 178.528290,102.575615 
	C175.930756,103.386665 173.670273,105.277229 170.739182,107.210678 
M166.126755,80.233727 
	C170.176849,83.743530 174.079666,87.456276 178.401016,90.592285 
	C179.267502,91.221092 181.998932,89.989372 183.308807,88.924568 
	C183.786469,88.536270 183.054352,85.225533 182.148956,84.803345 
	C176.371841,82.109558 172.854126,77.634445 170.222687,72.022522 
	C169.726334,70.963913 167.255585,70.831100 165.695877,70.271080 
	C165.143951,71.826439 164.146194,73.387283 164.165253,74.935623 
	C164.184387,76.489540 165.217117,78.030975 166.126755,80.233727 
M161.461472,98.064323 
	C164.372208,98.658104 167.347855,99.926163 170.175201,99.653900 
	C172.940674,99.387581 174.103409,96.322548 171.831772,94.556625 
	C170.059799,93.179146 166.868835,93.020164 164.444016,93.341805 
	C163.205887,93.506042 162.265686,95.916428 161.461472,98.064323 
M112.373657,184.744110 
	C110.856560,183.938461 109.397987,182.897354 107.780579,182.495361 
	C107.384148,182.396805 105.796906,184.508255 105.954918,185.388672 
	C106.170837,186.591705 107.993118,188.639984 108.325287,188.494598 
	C109.857635,187.823959 111.111855,186.517807 112.373657,184.744110 
z"/>
<path fill="#020400" opacity="1.000000" stroke="none" 
	d="
M182.925491,56.982841 
	C185.740646,57.064068 188.121063,56.864983 190.386551,57.285294 
	C194.958527,58.133530 197.965103,60.740189 197.974152,65.732170 
	C198.011337,86.227562 198.060806,106.723480 197.942017,127.218254 
	C197.908920,132.929001 194.470596,135.968628 188.092972,136.096466 
	C179.264923,136.273392 170.431091,136.168304 161.599747,136.171753 
	C148.435913,136.176880 135.272064,136.180069 122.108253,136.159317 
	C120.446556,136.156708 118.556900,136.466995 117.187576,135.791565 
	C115.813911,135.113998 114.371399,133.493729 114.106789,132.072891 
	C113.958015,131.273987 115.971504,129.569031 117.296310,129.126236 
	C118.960915,128.569870 120.917595,128.837006 122.748306,128.835693 
	C143.243896,128.820984 163.739517,128.843994 184.235062,128.808289 
	C190.678543,128.797058 190.961975,128.486435 190.970993,121.986511 
	C190.994537,104.990204 190.850510,87.992302 191.057129,70.998482 
	C191.115326,66.210991 189.399002,64.566406 184.680466,64.585899 
	C154.187576,64.711929 123.693626,64.714432 93.200775,64.583565 
	C88.484833,64.563339 86.657570,66.183212 86.805588,70.973228 
	C87.067947,79.463127 86.898552,87.967422 86.843376,96.465256 
	C86.831573,98.284294 86.877136,100.229858 86.256599,101.875999 
	C85.817055,103.042015 84.210167,104.642418 83.286247,104.543091 
	C81.954475,104.399918 80.267632,103.142113 79.646034,101.901985 
	C78.824806,100.263588 78.887451,98.182152 78.456963,95.616493 
	C72.485443,100.030518 68.394058,104.978821 67.910278,111.832756 
	C67.301498,120.457520 67.301552,129.130280 67.197662,137.784225 
	C67.095657,146.280991 67.230988,154.780350 67.182358,163.278137 
	C67.164116,166.466232 68.254532,168.343643 71.770660,168.328568 
	C84.100525,168.275711 96.433586,168.418121 108.756897,168.126114 
	C110.186844,168.092224 111.812485,165.989960 112.902733,164.517395 
	C114.318932,162.604584 115.211609,160.313934 116.468315,158.271240 
	C119.114479,153.970078 121.719696,149.632660 124.611420,145.498764 
	C125.865189,143.706421 127.923225,140.973907 129.376205,141.116226 
	C133.155472,141.486404 132.640076,145.214981 131.625931,147.432266 
	C129.308273,152.499527 126.717377,157.561310 123.429680,162.031174 
	C120.256577,166.345245 120.056053,167.307175 125.173996,168.402054 
	C128.214508,169.052521 129.448288,170.779114 129.481125,173.587112 
	C129.555145,179.916626 129.757202,186.261444 129.377319,192.568130 
	C129.277267,194.228867 127.245026,195.773224 126.100067,197.371017 
	C124.750259,195.792404 122.491165,194.348618 122.233078,192.608109 
	C121.627983,188.527390 121.905403,184.303406 121.971695,180.139740 
	C122.018661,177.190155 120.722237,175.901779 117.790253,175.906982 
	C100.294495,175.938080 82.798553,175.948334 65.302895,175.894394 
	C62.008598,175.884232 60.936047,177.493683 61.014343,180.546570 
	C61.112553,184.375992 61.377586,188.264252 60.833946,192.020508 
	C60.560303,193.911255 58.659000,195.566422 57.493717,197.328110 
	C56.166233,195.744522 53.814198,194.234894 53.693584,192.564178 
	C53.239002,186.267487 53.310482,179.907715 53.647068,173.596207 
	C53.733944,171.967117 55.175453,169.550507 56.571983,169.022491 
	C59.911419,167.759872 59.994686,165.435562 59.989441,162.665436 
	C59.961361,147.835358 60.184986,133.001450 59.913696,118.176331 
	C59.724754,107.851219 62.799786,98.909943 70.723129,92.390244 
	C77.568382,86.757637 80.533340,80.174370 79.149239,71.509659 
	C79.019585,70.698044 79.126015,69.845840 79.148758,69.013191 
	C79.387268,60.280643 82.623344,57.022400 91.459740,57.007973 
	C121.786011,56.958450 152.112411,56.985130 182.925491,56.982841 
z"/>
<path fill="#030500" opacity="1.000000" stroke="none" 
	d="
M114.988861,108.853584 
	C117.467018,105.976891 117.672356,102.905540 114.702179,101.381721 
	C112.928047,100.471519 109.376160,100.940971 107.731857,102.217766 
	C99.858353,108.331482 92.362740,114.931923 84.734886,121.361816 
	C83.717972,122.219032 82.742462,123.128105 81.695724,123.946571 
	C79.608276,125.578819 76.989235,127.079704 75.362175,124.172005 
	C74.637238,122.876465 75.625107,119.534988 76.940926,118.361443 
	C85.500053,110.727837 94.258301,103.305946 103.162781,96.075089 
	C109.298340,91.092720 116.887115,91.653824 121.523994,96.955421 
	C126.113213,102.202507 125.247330,109.605385 119.367203,115.209625 
	C117.923325,116.585754 116.480522,117.972008 114.943092,119.239418 
	C108.533768,124.523094 102.801064,129.817886 106.373734,139.604431 
	C107.330917,142.226456 106.196762,145.903336 105.201859,148.815536 
	C104.749290,150.140244 102.298355,150.782227 100.753876,151.733887 
	C99.943329,150.253815 98.593719,148.834579 98.418709,147.282837 
	C97.775963,141.583923 97.222054,135.838531 97.269501,130.115891 
	C97.288940,127.772224 98.345169,124.895523 99.934929,123.208595 
	C104.600533,118.257835 109.770592,113.782486 114.988861,108.853584 
z"/>
<path fill="#030600" opacity="1.000000" stroke="none" 
	d="
M126.467163,84.674538 
	C135.382477,77.249840 144.669830,77.273399 151.773666,84.450653 
	C158.186050,90.929321 158.610107,101.041939 152.498169,108.034416 
	C147.962204,113.223862 142.049194,115.253563 135.379166,113.400925 
	C133.702011,112.935081 132.600128,110.398102 131.233887,108.812935 
	C132.981781,107.929031 134.722488,106.304817 136.478790,106.287758 
	C144.633789,106.208580 149.410843,103.185951 148.857727,96.897141 
	C148.590546,93.859596 146.642426,89.748772 144.212448,88.450615 
	C141.542572,87.024315 137.437485,88.195213 133.970520,88.426247 
	C133.283798,88.472015 132.723450,89.665749 131.986145,89.846786 
	C130.088882,90.312645 128.125046,90.507469 126.187813,90.810593 
	C126.201653,88.861061 126.215500,86.911537 126.467163,84.674538 
z"/>
<path fill="#030600" opacity="1.000000" stroke="none" 
	d="
M140.256256,142.058853 
	C142.638855,141.665161 145.024582,140.902985 146.948380,141.538696 
	C155.468414,144.354141 163.899216,147.458755 172.270782,150.695435 
	C175.863464,152.084457 177.983948,151.421082 178.952911,147.583603 
	C179.234787,146.467300 179.537354,145.100769 180.325043,144.428345 
	C181.468018,143.452637 183.257797,142.246521 184.404282,142.545868 
	C185.511124,142.834869 186.828629,144.877319 186.888672,146.202271 
	C187.296906,155.210800 179.729355,161.114334 171.325165,158.247604 
	C162.045029,155.082047 152.892929,151.539703 143.698181,148.126114 
	C141.050095,147.143005 138.667206,145.899612 140.256256,142.058853 
z"/>
<path fill="#030600" opacity="1.000000" stroke="none" 
	d="
M150.119385,162.885071 
	C151.622040,164.225067 152.851501,165.339600 154.089645,166.444443 
	C159.480942,171.255341 159.367935,171.102646 165.125519,166.776993 
	C166.453598,165.779221 168.855087,166.210190 170.762619,165.983673 
	C170.621399,167.885147 171.190994,170.324860 170.224411,171.601395 
	C163.602539,180.346802 157.947861,180.660629 150.035522,173.122650 
	C145.589844,168.887314 141.122009,164.674835 136.710281,160.404419 
	C134.852997,158.606628 132.805878,156.176178 135.534988,154.205338 
	C136.828201,153.271439 140.253082,154.003708 141.912430,155.144455 
	C144.877930,157.183167 147.237366,160.103439 150.119385,162.885071 
z"/>
<path fill="#030600" opacity="1.000000" stroke="none" 
	d="
M105.287933,87.345695 
	C102.325859,88.847160 99.761345,90.518036 96.950813,91.272484 
	C95.723267,91.601990 93.467827,90.405083 92.684280,89.230736 
	C92.206650,88.514893 93.292610,85.636208 94.277786,85.245415 
	C100.727211,82.687096 104.790802,78.112167 107.510483,71.867729 
	C107.958870,70.838196 110.476952,70.710098 112.038528,70.165398 
	C112.584915,71.750999 114.057510,73.839180 113.517128,74.835075 
	C111.195969,79.112793 108.282959,83.069374 105.287933,87.345695 
z"/>
<path fill="#030600" opacity="1.000000" stroke="none" 
	d="
M171.004425,106.964821 
	C173.670273,105.277229 175.930756,103.386665 178.528290,102.575615 
	C179.909225,102.144440 181.874161,103.583633 183.575485,104.178558 
	C182.973785,105.723427 182.800674,108.106949 181.697571,108.670692 
	C176.391739,111.382202 172.781296,115.280441 170.594604,120.842644 
	C170.146973,121.981270 167.726883,122.344467 166.216019,123.065109 
	C165.541000,121.424637 163.873337,119.342453 164.371094,118.223846 
	C166.085510,114.371117 168.556442,110.855019 171.004425,106.964821 
z"/>
<path fill="#030600" opacity="1.000000" stroke="none" 
	d="
M165.966187,79.905807 
	C165.217117,78.030975 164.184387,76.489540 164.165253,74.935623 
	C164.146194,73.387283 165.143951,71.826439 165.695892,70.271088 
	C167.255585,70.831100 169.726334,70.963913 170.222687,72.022522 
	C172.854126,77.634445 176.371841,82.109558 182.148956,84.803345 
	C183.054352,85.225533 183.786469,88.536270 183.308807,88.924568 
	C181.998932,89.989372 179.267502,91.221092 178.401016,90.592285 
	C174.079666,87.456276 170.176849,83.743530 165.966187,79.905807 
z"/>
<path fill="#020400" opacity="1.000000" stroke="none" 
	d="
M161.326141,97.687943 
	C162.265686,95.916428 163.205887,93.506042 164.444016,93.341805 
	C166.868835,93.020164 170.059799,93.179146 171.831772,94.556625 
	C174.103409,96.322548 172.940674,99.387581 170.175201,99.653900 
	C167.347855,99.926163 164.372208,98.658104 161.326141,97.687943 
z"/>
<path fill="#030600" opacity="1.000000" stroke="none" 
	d="
M112.419724,185.091797 
	C111.111855,186.517807 109.857635,187.823959 108.325287,188.494598 
	C107.993118,188.639984 106.170837,186.591705 105.954918,185.388672 
	C105.796906,184.508255 107.384148,182.396805 107.780579,182.495361 
	C109.397987,182.897354 110.856560,183.938461 112.419724,185.091797 
z"/>
</svg>