<svg version="1.1" id="Layer_1" xmlns="http://www.w3.org/2000/svg" xmlns:xlink="http://www.w3.org/1999/xlink" x="0px" y="0px"
	 width="100%" viewBox="0 0 250 250" enable-background="new 0 0 250 250" xml:space="preserve">
<path fill="#010000" opacity="1.000000" stroke="none" 
	d="
M251.000000,89.000000 
	C251.000000,143.333328 251.000000,197.166672 251.000000,251.000000 
	C167.666672,251.000000 84.333336,251.000000 1.000000,251.000000 
	C1.000000,167.666672 1.000000,84.333336 1.000000,1.000000 
	C84.333336,1.000000 167.666672,1.000000 251.000000,1.000000 
	C251.000000,30.166666 251.000000,59.333332 251.000000,89.000000 
M239.169662,143.500061 
	C239.168610,114.173775 239.247116,84.847206 239.142944,55.521286 
	C239.048615,28.963497 222.598816,12.544962 195.972168,12.494820 
	C149.316788,12.406960 102.661072,12.439389 56.005676,12.521751 
	C51.701485,12.529350 47.278313,12.751649 43.115650,13.739336 
	C24.001333,18.274643 12.228022,33.980202 12.192015,54.970814 
	C12.110840,102.292725 12.130431,149.614960 12.230262,196.936798 
	C12.238954,201.057083 12.618016,205.321930 13.719585,209.270035 
	C19.198524,228.907013 33.978897,239.472549 55.936207,239.507217 
	C102.258385,239.580338 148.580826,239.567734 194.902924,239.471222 
	C199.530533,239.461578 204.315918,239.242355 208.755463,238.079559 
	C227.710205,233.114990 238.936859,218.030487 239.127945,197.487122 
	C239.292221,179.826172 239.166946,162.162521 239.169662,143.500061 
z"/>
<path fill="#7A3F00" opacity="1.000000" stroke="none" 
	d="
M239.169693,144.000061 
	C239.166946,162.162521 239.292221,179.826172 239.127945,197.487122 
	C238.936859,218.030487 227.710205,233.114990 208.755463,238.079559 
	C204.315918,239.242355 199.530533,239.461578 194.902924,239.471222 
	C148.580826,239.567734 102.258385,239.580338 55.936207,239.507217 
	C33.978897,239.472549 19.198524,228.907013 13.719585,209.270035 
	C12.618016,205.321930 12.238954,201.057083 12.230262,196.936798 
	C12.130431,149.614960 12.110840,102.292725 12.192015,54.970814 
	C12.228022,33.980202 24.001333,18.274643 43.115650,13.739336 
	C47.278313,12.751649 51.701485,12.529350 56.005676,12.521751 
	C102.661072,12.439389 149.316788,12.406960 195.972168,12.494820 
	C222.598816,12.544962 239.048615,28.963497 239.142944,55.521286 
	C239.247116,84.847206 239.168610,114.173775 239.169693,144.000061 
M56.667519,156.058533 
	C59.650757,161.614578 60.918327,166.634827 55.401997,171.952591 
	C52.434044,174.813705 52.771034,179.699020 55.277184,183.155045 
	C58.726959,187.912369 62.798653,192.232254 66.770576,196.587555 
	C67.722588,197.631454 69.398766,197.979279 70.620720,198.822769 
	C71.823387,199.652969 72.895248,200.680573 73.984688,201.665604 
	C79.792725,206.916962 85.587860,212.182602 91.391083,217.439301 
	C91.511803,217.548660 91.676674,217.608902 91.819862,217.693878 
	C97.999649,221.362061 103.254105,219.040558 108.307327,214.673874 
	C110.317657,216.569351 111.856819,218.761154 113.965424,219.840225 
	C117.377220,221.586227 122.389984,224.777435 124.576881,223.544662 
	C133.615341,218.449570 143.969879,217.213165 153.043488,212.575485 
	C153.331329,212.428360 153.516754,212.061798 153.808884,211.945099 
	C155.428375,211.298096 157.073944,210.151031 158.696320,210.174225 
	C165.813141,210.275955 170.540070,206.723938 174.277008,201.083191 
	C175.287567,199.557785 176.862274,198.160385 178.496628,197.335464 
	C186.610260,193.240158 189.364716,188.432480 189.139694,179.367126 
	C189.091431,177.422745 190.425018,175.272293 191.581329,173.519821 
	C192.658112,171.887848 194.626923,170.848053 195.720245,169.222778 
	C202.369339,159.338608 210.101242,150.618530 220.418076,144.333527 
	C221.724701,143.537537 222.781357,140.949585 222.614182,139.330124 
	C220.980377,123.502296 212.688797,112.072044 198.566788,105.061287 
	C196.460281,104.015533 193.045258,104.349556 190.711639,105.262352 
	C184.682510,107.620674 178.716095,110.303772 173.100632,113.514717 
	C165.602219,117.802322 158.443512,117.872070 150.968384,113.746109 
	C148.066727,112.144531 145.026352,110.507324 141.844528,109.772285 
	C137.790634,108.835808 133.322083,107.786461 129.401688,108.589409 
	C121.951164,110.115379 114.821808,113.150314 107.429817,115.057648 
	C105.240654,115.622513 102.148087,115.236496 100.283295,114.029213 
	C94.726280,110.431564 89.403900,106.412422 84.320404,102.162567 
	C80.745003,99.173508 77.256378,98.940651 73.336662,100.849236 
	C58.874012,107.891411 48.220074,118.559334 41.860966,133.484192 
	C40.452576,136.789703 41.021484,139.052032 43.398323,141.504364 
	C47.796734,146.042526 51.983883,150.785446 56.667519,156.058533 
M94.691185,38.188972 
	C90.275993,42.836498 88.002289,48.402973 87.408424,54.752583 
	C87.116211,57.877068 87.173416,60.926750 91.358742,60.404770 
	C94.844391,59.970047 100.176636,63.249401 100.923210,56.055981 
	C101.856995,47.058716 107.522354,42.014557 116.505287,41.884296 
	C124.495667,41.768429 132.490021,41.775864 140.480438,41.886345 
	C143.750397,41.931561 147.533386,41.511135 150.075729,43.010475 
	C151.472977,43.834503 150.827621,48.205128 151.009628,50.982811 
	C151.184784,53.656197 152.483917,54.997047 154.828049,53.330166 
	C162.081848,48.172108 169.155869,42.761246 177.222946,36.761913 
	C168.768951,29.915413 161.175339,23.765701 152.510895,16.748774 
	C151.988174,20.034456 151.384384,21.758722 151.512497,23.426777 
	C151.848770,27.805338 150.074463,29.199829 145.718933,29.074820 
	C135.903610,28.793108 126.074295,28.956367 116.251030,29.007832 
	C108.076668,29.050659 100.910912,31.656052 94.691185,38.188972 
M111.130669,98.202431 
	C111.369736,96.917862 111.938553,95.593918 111.790634,94.355568 
	C111.159866,89.074768 113.720184,87.957222 118.492447,88.088943 
	C128.805435,88.373558 139.141983,88.407738 149.451904,88.051979 
	C163.208176,87.577293 174.262222,77.308853 175.745972,63.894566 
	C176.036041,61.272076 177.600998,57.629639 172.746674,56.884518 
	C165.409012,55.758209 163.266159,56.774784 162.427826,62.042622 
	C161.167511,69.961838 155.964142,75.061844 147.995117,75.294136 
	C137.515884,75.599602 127.020996,75.326019 116.534538,75.447632 
	C112.861931,75.490219 111.983589,73.638824 112.198395,70.436142 
	C112.357262,68.067406 112.229607,65.679466 112.229607,62.084396 
	C109.428604,63.638203 107.803680,64.348587 106.393242,65.358521 
	C102.470001,68.167747 98.644066,71.112503 94.764824,73.983635 
	C86.231041,80.299713 86.078651,80.477951 94.117592,86.998329 
	C99.318413,91.216728 105.032028,94.802910 111.130669,98.202431 
z"/>
<path fill="#070400" opacity="1.000000" stroke="none" 
	d="
M56.463272,155.750793 
	C51.983883,150.785446 47.796734,146.042526 43.398323,141.504364 
	C41.021484,139.052032 40.452576,136.789703 41.860966,133.484192 
	C48.220074,118.559334 58.874012,107.891411 73.336662,100.849236 
	C77.256378,98.940651 80.745003,99.173508 84.320404,102.162567 
	C89.403900,106.412422 94.726280,110.431564 100.283295,114.029213 
	C102.148087,115.236496 105.240654,115.622513 107.429817,115.057648 
	C114.821808,113.150314 121.951164,110.115379 129.401688,108.589409 
	C133.322083,107.786461 137.790634,108.835808 141.844528,109.772285 
	C145.026352,110.507324 148.066727,112.144531 150.968384,113.746109 
	C158.443512,117.872070 165.602219,117.802322 173.100632,113.514717 
	C178.716095,110.303772 184.682510,107.620674 190.711639,105.262352 
	C193.045258,104.349556 196.460281,104.015533 198.566788,105.061287 
	C212.688797,112.072044 220.980377,123.502296 222.614182,139.330124 
	C222.781357,140.949585 221.724701,143.537537 220.418076,144.333527 
	C210.101242,150.618530 202.369339,159.338608 195.720245,169.222778 
	C194.626923,170.848053 192.658112,171.887848 191.581329,173.519821 
	C190.425018,175.272293 189.091431,177.422745 189.139694,179.367126 
	C189.364716,188.432480 186.610260,193.240158 178.496628,197.335464 
	C176.862274,198.160385 175.287567,199.557785 174.277008,201.083191 
	C170.540070,206.723938 165.813141,210.275955 158.696320,210.174225 
	C157.073944,210.151031 155.428375,211.298096 153.808884,211.945099 
	C153.516754,212.061798 153.331329,212.428360 153.043488,212.575485 
	C143.969879,217.213165 133.615341,218.449570 124.576881,223.544662 
	C122.389984,224.777435 117.377220,221.586227 113.965424,219.840225 
	C111.856819,218.761154 110.317657,216.569351 108.307327,214.673874 
	C103.254105,219.040558 97.999649,221.362061 91.819862,217.693878 
	C91.676674,217.608902 91.511803,217.548660 91.391083,217.439301 
	C85.587860,212.182602 79.792725,206.916962 73.984688,201.665604 
	C72.895248,200.680573 71.823387,199.652969 70.620720,198.822769 
	C69.398766,197.979279 67.722588,197.631454 66.770576,196.587555 
	C62.798653,192.232254 58.726959,187.912369 55.277184,183.155045 
	C52.771034,179.699020 52.434044,174.813705 55.401997,171.952591 
	C60.918327,166.634827 59.650757,161.614578 56.463272,155.750793 
M151.911819,170.577881 
	C157.921402,176.585052 163.795624,182.739059 170.038223,188.493484 
	C171.549561,189.886627 175.161728,191.187286 176.264465,190.391571 
	C178.720459,188.619431 180.856216,185.710770 181.800644,182.831680 
	C182.265869,181.413391 180.064880,178.784241 178.577820,177.151703 
	C176.927353,175.339798 174.534714,174.222214 172.777451,172.486267 
	C162.706039,162.537155 152.547134,152.665100 142.806931,142.397873 
	C138.961914,138.344818 134.993073,137.393524 129.844955,138.557388 
	C124.169640,139.840424 118.448822,141.116318 112.677055,141.732788 
	C104.172668,142.641129 97.337189,138.966232 92.422714,132.222015 
	C88.997223,127.521156 90.698891,123.173904 95.743614,119.607635 
	C90.134483,115.401573 85.275841,111.373543 79.982788,108.034050 
	C78.481361,107.086777 75.335983,107.452415 73.588402,108.401505 
	C63.562485,113.846497 55.906960,121.850449 50.083679,131.612061 
	C48.358891,134.503357 48.571793,137.051117 51.217667,139.625336 
	C55.028721,143.333160 59.789757,146.881073 61.724789,151.509277 
	C64.628342,158.453949 68.791191,162.560974 75.763573,164.949951 
	C78.466766,165.876160 80.064407,170.020096 82.768333,170.954727 
	C91.209557,173.872513 94.380371,182.507004 101.340668,187.016373 
	C104.500412,189.063477 106.785172,192.737564 108.898132,196.037720 
	C110.633446,198.748047 112.163445,201.898621 112.646614,205.029633 
	C113.375351,209.751923 117.232964,215.979645 121.813461,216.518173 
	C124.214088,216.800430 126.867531,214.932312 129.406799,214.035324 
	C128.601852,212.134888 128.252258,209.777390 126.898087,208.428223 
	C123.993973,205.534912 120.571335,203.162048 117.361015,200.576065 
	C117.795769,200.047363 118.230530,199.518646 118.665283,198.989944 
	C119.839828,197.487671 121.014381,195.985413 123.006332,193.437668 
	C127.704575,198.600708 131.504166,202.777802 135.305664,206.953156 
	C138.107697,210.030746 141.486984,210.700180 145.293442,209.214981 
	C149.452423,207.592239 149.833771,206.013992 146.736740,202.839340 
	C142.083328,198.069260 137.403214,193.320450 132.592255,188.711014 
	C130.421432,186.631119 130.981125,185.188110 132.843353,183.341660 
	C134.836197,181.365738 136.205093,182.085983 137.846283,183.751755 
	C143.575729,189.566986 149.323883,195.366608 155.186707,201.046463 
	C158.234787,203.999405 162.805923,203.670395 165.913422,200.651932 
	C169.541519,197.127777 166.902359,194.894714 164.420151,192.453369 
	C158.481171,186.612106 152.637115,180.674469 146.728943,174.801666 
	C145.195648,173.277557 144.017944,171.971497 146.076340,169.816910 
	C148.152145,167.644119 149.729523,168.062729 151.911819,170.577881 
M156.782120,146.717667 
	C163.144409,153.079819 169.506042,159.442642 175.869171,165.803955 
	C182.514206,172.447037 183.392883,172.410812 189.899582,165.227600 
	C190.346756,164.733948 190.815353,164.254211 191.214111,163.723068 
	C197.700272,155.083206 203.959213,146.278290 213.649689,140.664200 
	C214.828033,139.981552 215.389389,136.809753 214.994568,135.074097 
	C212.910614,125.913063 207.458862,118.884224 200.001221,113.378242 
	C197.003784,111.165230 194.002869,110.644485 190.333649,112.749130 
	C185.298477,115.637299 179.873596,117.868706 174.538910,120.206268 
	C167.981522,123.079613 161.515182,126.211906 154.082474,122.323441 
	C149.230301,119.784988 144.066284,117.804565 138.934525,115.857231 
	C136.852936,115.067329 134.233536,114.197960 132.291016,114.787872 
	C121.798111,117.974358 111.409035,121.516380 101.053268,125.133652 
	C97.232193,126.468361 97.740089,128.838394 100.478821,130.978104 
	C104.595459,134.194321 109.180763,135.734985 114.491486,134.611023 
	C120.026535,133.439590 125.573921,132.302841 131.151703,131.363434 
	C137.029800,130.373413 142.294159,131.182404 146.454681,136.264099 
	C149.395584,139.856155 152.983139,142.918793 156.782120,146.717667 
M69.671509,189.789215 
	C74.239540,193.086716 79.942299,195.098801 82.235512,200.988281 
	C82.431519,201.491699 83.249481,201.882950 83.857826,202.074692 
	C87.783165,203.311966 90.540215,205.617996 92.769547,209.258728 
	C93.857956,211.036240 97.734474,212.851776 99.314026,212.187851 
	C101.897842,211.101776 104.500435,208.298859 105.405663,205.644089 
	C105.945267,204.061554 103.383614,201.295959 101.986366,199.216599 
	C100.771561,197.408768 99.343956,195.710327 97.819046,194.150604 
	C92.637367,188.850754 87.374527,183.630142 82.123985,178.398041 
	C81.911491,178.186295 81.513840,178.085159 81.194839,178.067139 
	C78.082375,177.891205 76.469986,176.189911 74.803589,173.525528 
	C73.507584,171.453354 69.689888,168.829529 68.235779,169.435104 
	C65.346031,170.638596 63.010937,173.689178 61.105091,176.433746 
	C60.514332,177.284485 61.734776,180.814011 62.667229,181.059250 
	C67.076324,182.218918 67.513077,186.135468 69.671509,189.789215 
z"/>
<path fill="#040200" opacity="1.000000" stroke="none" 
	d="
M94.916824,37.911156 
	C100.910912,31.656052 108.076668,29.050659 116.251030,29.007832 
	C126.074295,28.956367 135.903610,28.793108 145.718933,29.074820 
	C150.074463,29.199829 151.848770,27.805338 151.512497,23.426777 
	C151.384384,21.758722 151.988174,20.034456 152.510895,16.748774 
	C161.175339,23.765701 168.768951,29.915413 177.222946,36.761913 
	C169.155869,42.761246 162.081848,48.172108 154.828049,53.330166 
	C152.483917,54.997047 151.184784,53.656197 151.009628,50.982811 
	C150.827621,48.205128 151.472977,43.834503 150.075729,43.010475 
	C147.533386,41.511135 143.750397,41.931561 140.480438,41.886345 
	C132.490021,41.775864 124.495667,41.768429 116.505287,41.884296 
	C107.522354,42.014557 101.856995,47.058716 100.923210,56.055981 
	C100.176636,63.249401 94.844391,59.970047 91.358742,60.404770 
	C87.173416,60.926750 87.116211,57.877068 87.408424,54.752583 
	C88.002289,48.402973 90.275993,42.836498 94.916824,37.911156 
z"/>
<path fill="#040200" opacity="1.000000" stroke="none" 
	d="
M110.823265,98.437408 
	C105.032028,94.802910 99.318413,91.216728 94.117592,86.998329 
	C86.078651,80.477951 86.231041,80.299713 94.764824,73.983635 
	C98.644066,71.112503 102.470001,68.167747 106.393242,65.358521 
	C107.803680,64.348587 109.428604,63.638203 112.229607,62.084396 
	C112.229607,65.679466 112.357262,68.067406 112.198395,70.436142 
	C111.983589,73.638824 112.861931,75.490219 116.534538,75.447632 
	C127.020996,75.326019 137.515884,75.599602 147.995117,75.294136 
	C155.964142,75.061844 161.167511,69.961838 162.427826,62.042622 
	C163.266159,56.774784 165.409012,55.758209 172.746674,56.884518 
	C177.600998,57.629639 176.036041,61.272076 175.745972,63.894566 
	C174.262222,77.308853 163.208176,87.577293 149.451904,88.051979 
	C139.141983,88.407738 128.805435,88.373558 118.492447,88.088943 
	C113.720184,87.957222 111.159866,89.074768 111.790634,94.355568 
	C111.938553,95.593918 111.369736,96.917862 110.823265,98.437408 
z"/>
<path fill="#7B4000" opacity="1.000000" stroke="none" 
	d="
M151.661011,170.330688 
	C149.729523,168.062729 148.152145,167.644119 146.076340,169.816910 
	C144.017944,171.971497 145.195648,173.277557 146.728943,174.801666 
	C152.637115,180.674469 158.481171,186.612106 164.420151,192.453369 
	C166.902359,194.894714 169.541519,197.127777 165.913422,200.651932 
	C162.805923,203.670395 158.234787,203.999405 155.186707,201.046463 
	C149.323883,195.366608 143.575729,189.566986 137.846283,183.751755 
	C136.205093,182.085983 134.836197,181.365738 132.843353,183.341660 
	C130.981125,185.188110 130.421432,186.631119 132.592255,188.711014 
	C137.403214,193.320450 142.083328,198.069260 146.736740,202.839340 
	C149.833771,206.013992 149.452423,207.592239 145.293442,209.214981 
	C141.486984,210.700180 138.107697,210.030746 135.305664,206.953156 
	C131.504166,202.777802 127.704575,198.600708 123.006332,193.437668 
	C121.014381,195.985413 119.839828,197.487671 118.665283,198.989944 
	C118.230530,199.518646 117.795769,200.047363 117.361015,200.576065 
	C120.571335,203.162048 123.993973,205.534912 126.898087,208.428223 
	C128.252258,209.777390 128.601852,212.134888 129.406799,214.035324 
	C126.867531,214.932312 124.214088,216.800430 121.813461,216.518173 
	C117.232964,215.979645 113.375351,209.751923 112.646614,205.029633 
	C112.163445,201.898621 110.633446,198.748047 108.898132,196.037720 
	C106.785172,192.737564 104.500412,189.063477 101.340668,187.016373 
	C94.380371,182.507004 91.209557,173.872513 82.768333,170.954727 
	C80.064407,170.020096 78.466766,165.876160 75.763573,164.949951 
	C68.791191,162.560974 64.628342,158.453949 61.724789,151.509277 
	C59.789757,146.881073 55.028721,143.333160 51.217667,139.625336 
	C48.571793,137.051117 48.358891,134.503357 50.083679,131.612061 
	C55.906960,121.850449 63.562485,113.846497 73.588402,108.401505 
	C75.335983,107.452415 78.481361,107.086777 79.982788,108.034050 
	C85.275841,111.373543 90.134483,115.401573 95.743614,119.607635 
	C90.698891,123.173904 88.997223,127.521156 92.422714,132.222015 
	C97.337189,138.966232 104.172668,142.641129 112.677055,141.732788 
	C118.448822,141.116318 124.169640,139.840424 129.844955,138.557388 
	C134.993073,137.393524 138.961914,138.344818 142.806931,142.397873 
	C152.547134,152.665100 162.706039,162.537155 172.777451,172.486267 
	C174.534714,174.222214 176.927353,175.339798 178.577820,177.151703 
	C180.064880,178.784241 182.265869,181.413391 181.800644,182.831680 
	C180.856216,185.710770 178.720459,188.619431 176.264465,190.391571 
	C175.161728,191.187286 171.549561,189.886627 170.038223,188.493484 
	C163.795624,182.739059 157.921402,176.585052 151.661011,170.330688 
z"/>
<path fill="#7B4000" opacity="1.000000" stroke="none" 
	d="
M156.532074,146.467712 
	C152.983139,142.918793 149.395584,139.856155 146.454681,136.264099 
	C142.294159,131.182404 137.029800,130.373413 131.151703,131.363434 
	C125.573921,132.302841 120.026535,133.439590 114.491486,134.611023 
	C109.180763,135.734985 104.595459,134.194321 100.478821,130.978104 
	C97.740089,128.838394 97.232193,126.468361 101.053268,125.133652 
	C111.409035,121.516380 121.798111,117.974358 132.291016,114.787872 
	C134.233536,114.197960 136.852936,115.067329 138.934525,115.857231 
	C144.066284,117.804565 149.230301,119.784988 154.082474,122.323441 
	C161.515182,126.211906 167.981522,123.079613 174.538910,120.206268 
	C179.873596,117.868706 185.298477,115.637299 190.333649,112.749130 
	C194.002869,110.644485 197.003784,111.165230 200.001221,113.378242 
	C207.458862,118.884224 212.910614,125.913063 214.994568,135.074097 
	C215.389389,136.809753 214.828033,139.981552 213.649689,140.664200 
	C203.959213,146.278290 197.700272,155.083206 191.214111,163.723068 
	C190.815353,164.254211 190.346756,164.733948 189.899582,165.227600 
	C183.392883,172.410812 182.514206,172.447037 175.869171,165.803955 
	C169.506042,159.442642 163.144409,153.079819 156.532074,146.467712 
z"/>
<path fill="#7A3F00" opacity="1.000000" stroke="none" 
	d="
M69.447357,189.488708 
	C67.513077,186.135468 67.076324,182.218918 62.667229,181.059250 
	C61.734776,180.814011 60.514332,177.284485 61.105091,176.433746 
	C63.010937,173.689178 65.346031,170.638596 68.235779,169.435104 
	C69.689888,168.829529 73.507584,171.453354 74.803589,173.525528 
	C76.469986,176.189911 78.082375,177.891205 81.194839,178.067139 
	C81.513840,178.085159 81.911491,178.186295 82.123985,178.398041 
	C87.374527,183.630142 92.637367,188.850754 97.819046,194.150604 
	C99.343956,195.710327 100.771561,197.408768 101.986366,199.216599 
	C103.383614,201.295959 105.945267,204.061554 105.405663,205.644089 
	C104.500435,208.298859 101.897842,211.101776 99.314026,212.187851 
	C97.734474,212.851776 93.857956,211.036240 92.769547,209.258728 
	C90.540215,205.617996 87.783165,203.311966 83.857826,202.074692 
	C83.249481,201.882950 82.431519,201.491699 82.235512,200.988281 
	C79.942299,195.098801 74.239540,193.086716 69.447357,189.488708 
z"/>
</svg>