<svg version="1.1" id="Layer_1" xmlns="http://www.w3.org/2000/svg" xmlns:xlink="http://www.w3.org/1999/xlink" x="0px" y="0px"
	 width="100%" viewBox="0 0 250 250" enable-background="new 0 0 250 250" xml:space="preserve">
<path fill="#030002" opacity="1.000000" stroke="none" 
	d="
M1.000000,92.000000 
	C1.000000,61.333340 1.000000,31.166677 1.000000,1.000012 
	C84.333313,1.000008 167.666626,1.000008 250.999954,1.000004 
	C250.999969,84.333298 250.999969,167.666595 250.999985,250.999908 
	C167.666718,250.999939 84.333435,250.999939 1.000075,250.999969 
	C1.000000,198.166672 1.000000,145.333328 1.000000,92.000000 
M12.174234,119.499908 
	C12.174336,144.999878 12.103396,170.500244 12.241793,195.999466 
	C12.265939,200.448181 12.564181,205.065369 13.774203,209.308640 
	C19.379402,228.964752 33.966770,239.437500 55.458004,239.462906 
	C102.124580,239.518066 148.791336,239.515778 195.457779,239.422470 
	C199.914429,239.413574 204.495026,239.114792 208.803070,238.066772 
	C225.571487,233.987595 239.477463,218.559967 239.283783,196.473419 
	C238.871643,149.477051 239.217926,102.474464 239.134323,55.474640 
	C239.087173,28.967678 222.516907,12.552339 195.946976,12.530231 
	C149.280380,12.491401 102.613663,12.489194 55.947163,12.569837 
	C51.644169,12.577272 47.215290,12.764454 43.061855,13.767079 
	C24.121494,18.339224 12.316073,33.980286 12.202394,54.500084 
	C12.084210,75.832756 12.174890,97.166580 12.174234,119.499908 
z"/>
<path fill="#9A006E" opacity="1.000000" stroke="none" 
	d="
M12.174234,118.999908 
	C12.174890,97.166580 12.084210,75.832756 12.202394,54.500084 
	C12.316073,33.980286 24.121494,18.339224 43.061855,13.767079 
	C47.215290,12.764454 51.644169,12.577272 55.947163,12.569837 
	C102.613663,12.489194 149.280380,12.491401 195.946976,12.530231 
	C222.516907,12.552339 239.087173,28.967678 239.134323,55.474640 
	C239.217926,102.474464 238.871643,149.477051 239.283783,196.473419 
	C239.477463,218.559967 225.571487,233.987595 208.803070,238.066772 
	C204.495026,239.114792 199.914429,239.413574 195.457779,239.422470 
	C148.791336,239.515778 102.124580,239.518066 55.458004,239.462906 
	C33.966770,239.437500 19.379402,228.964752 13.774203,209.308640 
	C12.564181,205.065369 12.265939,200.448181 12.241793,195.999466 
	C12.103396,170.500244 12.174336,144.999878 12.174234,118.999908 
M104.722458,206.771500 
	C113.314774,215.961105 123.629066,219.292343 135.914978,215.963989 
	C151.453720,211.754410 167.039581,207.706131 182.481094,203.166443 
	C184.377518,202.608902 186.569031,199.564743 186.785446,197.481903 
	C187.296341,192.564972 187.085602,187.484741 186.473038,182.556793 
	C184.939789,170.221924 182.055496,158.095291 183.693314,145.402634 
	C184.176453,141.658417 181.970825,136.866837 179.564835,133.615204 
	C176.001450,128.799362 174.358429,124.080139 174.435333,118.059677 
	C174.724609,95.411430 174.631790,72.756760 174.509674,50.105427 
	C174.446396,38.368877 170.129898,34.184235 158.419220,34.153885 
	C136.933304,34.098198 115.447060,34.106552 93.961082,34.150818 
	C83.074593,34.173248 78.480782,38.813194 78.456314,49.696404 
	C78.423363,64.353500 78.408714,79.010826 78.465965,93.667740 
	C78.476898,96.465866 78.170227,98.531624 74.601540,98.596970 
	C70.313423,98.675491 67.274620,100.729446 66.470451,105.190254 
	C65.682114,109.563332 68.358467,111.936752 71.759224,113.814148 
	C72.629471,114.294563 73.411552,115.009155 74.333977,115.307930 
	C78.707535,116.724556 79.287842,120.321793 78.103935,123.674553 
	C77.560547,125.213402 74.471786,126.305824 72.360420,126.739502 
	C68.580269,127.515953 65.065170,128.337814 64.099648,132.689651 
	C63.111717,137.142532 65.869637,139.627686 68.248695,140.877396 
	C66.718521,143.881577 64.263878,146.594269 64.114708,149.428299 
	C63.795574,155.491592 69.674530,155.703720 73.775162,157.310730 
	C70.354004,163.333389 70.131439,167.916962 74.324715,169.912857 
	C78.909088,172.094894 78.392937,175.331284 78.460732,178.932770 
	C78.510773,181.591370 78.428261,184.289368 78.854172,186.896393 
	C79.795967,192.661240 83.927666,196.909485 89.618843,196.868454 
	C94.880989,196.830505 98.451347,198.739395 101.220070,202.940857 
	C102.033714,204.175522 103.212845,205.169342 104.722458,206.771500 
z"/>
<path fill="#080006" opacity="1.000000" stroke="none" 
	d="
M104.473465,206.522522 
	C103.212845,205.169342 102.033714,204.175522 101.220070,202.940857 
	C98.451347,198.739395 94.880989,196.830505 89.618843,196.868454 
	C83.927666,196.909485 79.795967,192.661240 78.854172,186.896393 
	C78.428261,184.289368 78.510773,181.591370 78.460732,178.932770 
	C78.392937,175.331284 78.909088,172.094894 74.324715,169.912857 
	C70.131439,167.916962 70.354004,163.333389 73.775162,157.310730 
	C69.674530,155.703720 63.795574,155.491592 64.114708,149.428299 
	C64.263878,146.594269 66.718521,143.881577 68.248695,140.877396 
	C65.869637,139.627686 63.111717,137.142532 64.099648,132.689651 
	C65.065170,128.337814 68.580269,127.515953 72.360420,126.739502 
	C74.471786,126.305824 77.560547,125.213402 78.103935,123.674553 
	C79.287842,120.321793 78.707535,116.724556 74.333977,115.307930 
	C73.411552,115.009155 72.629471,114.294563 71.759224,113.814148 
	C68.358467,111.936752 65.682114,109.563332 66.470451,105.190254 
	C67.274620,100.729446 70.313423,98.675491 74.601540,98.596970 
	C78.170227,98.531624 78.476898,96.465866 78.465965,93.667740 
	C78.408714,79.010826 78.423363,64.353500 78.456314,49.696404 
	C78.480782,38.813194 83.074593,34.173248 93.961082,34.150818 
	C115.447060,34.106552 136.933304,34.098198 158.419220,34.153885 
	C170.129898,34.184235 174.446396,38.368877 174.509674,50.105427 
	C174.631790,72.756760 174.724609,95.411430 174.435333,118.059677 
	C174.358429,124.080139 176.001450,128.799362 179.564835,133.615204 
	C181.970825,136.866837 184.176453,141.658417 183.693314,145.402634 
	C182.055496,158.095291 184.939789,170.221924 186.473038,182.556793 
	C187.085602,187.484741 187.296341,192.564972 186.785446,197.481903 
	C186.569031,199.564743 184.377518,202.608902 182.481094,203.166443 
	C167.039581,207.706131 151.453720,211.754410 135.914978,215.963989 
	C123.629066,219.292343 113.314774,215.961105 104.473465,206.522522 
M134.806702,48.948185 
	C129.815048,49.017834 124.776039,49.517395 119.851860,48.974770 
	C117.409866,48.705673 113.583885,46.915676 113.141518,45.130474 
	C111.604454,38.927456 107.614754,38.739365 102.697411,39.154644 
	C99.886070,39.392063 97.038116,39.176689 94.207008,39.203144 
	C85.962875,39.280182 83.565025,41.640656 83.559723,50.004009 
	C83.532066,93.640160 83.532043,137.276352 83.557755,180.912506 
	C83.563324,190.367889 85.315674,192.119644 94.597916,192.133011 
	C113.584602,192.160355 132.571381,192.149185 151.558075,192.127945 
	C153.325485,192.125961 155.092712,191.938766 155.665802,191.905945 
	C158.127457,177.210663 160.338409,163.288452 162.841644,149.418976 
	C163.864761,143.750275 162.760849,138.980072 159.142029,135.174332 
	C156.936325,136.899277 155.064560,139.532913 152.853073,139.858414 
	C147.632217,140.626785 142.247208,140.413300 136.934738,140.302307 
	C135.982224,140.282379 135.059219,138.850540 134.122589,138.070618 
	C135.163086,137.222946 136.120209,135.810043 137.260910,135.641785 
	C139.871918,135.256653 142.572571,135.466843 145.236908,135.458023 
	C153.495361,135.430649 155.153671,133.244064 152.971390,125.155846 
	C152.625702,123.874611 151.759262,122.656181 151.711441,121.386932 
	C151.570038,117.635674 151.043274,113.708427 151.912354,110.154510 
	C153.195969,104.905563 156.741852,104.095284 160.785706,107.754265 
	C163.548065,110.253723 165.911224,113.194405 168.619385,116.117538 
	C168.960114,115.384064 169.322357,114.968063 169.322464,114.551956 
	C169.328171,92.072105 169.405975,69.591331 169.205063,47.113079 
	C169.158615,41.914932 166.346237,39.547230 160.804077,39.281731 
	C155.818649,39.042904 150.808197,39.348976 145.819366,39.149776 
	C142.974304,39.036179 141.960739,40.257950 140.867050,42.782032 
	C139.864243,45.096355 137.436813,46.793392 134.806702,48.948185 
M129.288025,39.197559 
	C125.102631,39.197559 120.917244,39.197559 115.345505,39.197559 
	C117.089973,41.636627 117.833870,43.662846 118.688789,43.710827 
	C123.949684,44.006084 129.239090,43.940468 134.508362,43.729408 
	C135.084015,43.706352 136.068298,41.941952 135.979965,41.075226 
	C135.909622,40.385025 134.571350,39.559647 133.650711,39.289738 
	C132.582520,38.976574 131.355698,39.204571 129.288025,39.197559 
z"/>
<path fill="#98006D" opacity="1.000000" stroke="none" 
	d="
M135.221893,48.855301 
	C137.436813,46.793392 139.864243,45.096355 140.867050,42.782032 
	C141.960739,40.257950 142.974304,39.036179 145.819366,39.149776 
	C150.808197,39.348976 155.818649,39.042904 160.804077,39.281731 
	C166.346237,39.547230 169.158615,41.914932 169.205063,47.113079 
	C169.405975,69.591331 169.328171,92.072105 169.322464,114.551956 
	C169.322357,114.968063 168.960114,115.384064 168.619385,116.117538 
	C165.911224,113.194405 163.548065,110.253723 160.785706,107.754265 
	C156.741852,104.095284 153.195969,104.905563 151.912354,110.154510 
	C151.043274,113.708427 151.570038,117.635674 151.711441,121.386932 
	C151.759262,122.656181 152.625702,123.874611 152.971390,125.155846 
	C155.153671,133.244064 153.495361,135.430649 145.236908,135.458023 
	C142.572571,135.466843 139.871918,135.256653 137.260910,135.641785 
	C136.120209,135.810043 135.163086,137.222946 134.122589,138.070618 
	C135.059219,138.850540 135.982224,140.282379 136.934738,140.302307 
	C142.247208,140.413300 147.632217,140.626785 152.853073,139.858414 
	C155.064560,139.532913 156.936325,136.899277 159.142029,135.174332 
	C162.760849,138.980072 163.864761,143.750275 162.841644,149.418976 
	C160.338409,163.288452 158.127457,177.210663 155.665802,191.905945 
	C155.092712,191.938766 153.325485,192.125961 151.558075,192.127945 
	C132.571381,192.149185 113.584602,192.160355 94.597916,192.133011 
	C85.315674,192.119644 83.563324,190.367889 83.557755,180.912506 
	C83.532043,137.276352 83.532066,93.640160 83.559723,50.004009 
	C83.565025,41.640656 85.962875,39.280182 94.207008,39.203144 
	C97.038116,39.176689 99.886070,39.392063 102.697411,39.154644 
	C107.614754,38.739365 111.604454,38.927456 113.141518,45.130474 
	C113.583885,46.915676 117.409866,48.705673 119.851860,48.974770 
	C124.776039,49.517395 129.815048,49.017834 135.221893,48.855301 
M106.388725,87.691612 
	C106.388725,99.418083 106.388725,111.144554 106.388725,122.871025 
	C106.562607,122.871674 106.736481,122.872314 106.910362,122.872963 
	C106.910362,110.919838 106.910362,98.966705 107.865799,86.950172 
	C119.521927,86.950172 131.178055,86.950172 142.834183,86.950172 
	C131.590240,86.127151 120.349274,86.109291 109.108734,86.169342 
	C108.397209,86.173141 107.688927,86.783478 106.388725,87.691612 
M135.457672,111.242332 
	C133.949249,108.862984 132.440811,106.483635 130.764343,103.839241 
	C129.375656,107.801277 128.198151,111.160797 126.988594,114.611771 
	C134.204102,115.922508 138.027084,119.084244 138.003983,123.802643 
	C139.964554,122.796730 141.735687,121.888008 143.897430,120.778870 
	C141.154037,117.478271 138.681793,114.503914 136.078568,110.575699 
	C138.292831,105.778931 140.776794,110.324532 142.709305,110.764618 
	C141.127808,108.304611 139.644897,105.997971 138.336792,103.963219 
	C137.659760,106.322487 136.901917,108.963310 135.457672,111.242332 
M112.229012,76.080437 
	C109.065292,76.093498 105.894966,75.981651 102.739403,76.148766 
	C97.945358,76.402641 94.838524,78.851151 94.540474,83.793739 
	C94.270515,88.270470 94.330460,92.785431 94.592117,97.263245 
	C94.659027,98.408211 96.039551,99.476425 96.816551,100.579895 
	C97.738564,99.441322 99.329735,98.372383 99.456810,97.151100 
	C99.834160,93.524506 99.749817,89.834129 99.628990,86.175858 
	C99.508011,82.513046 101.119705,81.072113 104.731895,81.229897 
	C108.386879,81.389549 112.074356,81.416557 115.708405,81.079330 
	C116.829056,80.975334 117.821121,79.485664 118.872055,78.630463 
	C117.956459,77.850380 117.141899,76.859360 116.093246,76.357079 
	C115.257408,75.956741 114.136024,76.152534 112.229012,76.080437 
M154.873322,100.352127 
	C156.110046,99.284111 158.319107,98.293327 158.411179,97.134399 
	C158.764450,92.686798 158.513977,88.182434 158.345901,83.704613 
	C158.161697,78.797829 155.004333,76.602631 150.586380,76.248886 
	C146.457291,75.918259 142.264847,75.893158 138.142380,76.237480 
	C136.756271,76.353264 135.499435,78.016632 134.183502,78.972656 
	C135.466675,79.729134 136.698349,81.005890 138.043243,81.139038 
	C141.335724,81.465012 144.684906,81.374565 148.003082,81.243919 
	C151.808746,81.094093 153.360703,82.754608 153.400497,86.562256 
	C153.446976,91.008904 153.948502,95.450813 154.873322,100.352127 
M107.611542,140.638748 
	C109.773552,140.626617 112.002403,140.934723 114.076599,140.501816 
	C115.760010,140.150467 117.257736,138.909424 118.837814,138.062958 
	C117.293495,137.169342 115.837738,135.997543 114.177223,135.468948 
	C112.816078,135.035645 111.211060,135.379852 109.714424,135.358902 
	C99.055000,135.209793 99.676399,136.825668 99.637039,125.029572 
	C99.630936,123.200401 99.938255,121.275978 99.463707,119.573097 
	C99.099350,118.265610 97.732872,117.237389 96.812050,116.084976 
	C96.018875,117.196419 94.680794,118.243309 94.539970,119.432037 
	C94.189964,122.386620 94.353531,125.406021 94.368416,128.399109 
	C94.419289,138.626221 96.355400,140.538223 107.611542,140.638748 
M108.616600,181.626358 
	C108.268753,184.993546 110.658516,184.835495 112.832817,184.841568 
	C121.461914,184.865692 130.094421,184.974747 138.717178,184.740448 
	C140.252029,184.698715 141.746613,183.174835 143.259796,182.335358 
	C141.693954,181.493454 140.147079,179.967575 138.559113,179.923538 
	C129.936615,179.684464 121.303505,179.767639 112.675377,179.861496 
	C111.458679,179.874725 110.249245,180.555084 108.616600,181.626358 
M143.571365,90.989754 
	C141.077774,84.734306 136.100876,89.814476 132.124725,87.608040 
	C132.124725,92.262314 132.124725,95.958572 132.124725,99.651726 
	C136.024307,99.651726 139.563965,99.651726 143.613464,99.651726 
	C143.613464,96.781937 143.613464,94.323296 143.571365,90.989754 
M111.844490,88.093628 
	C107.924095,89.173271 107.092636,93.088501 109.388962,99.731789 
	C112.767548,99.731789 116.151794,99.731789 119.467613,99.731789 
	C121.355484,88.672859 121.008781,88.095573 111.844490,88.093628 
M126.943245,95.684395 
	C126.206039,99.620819 125.468842,103.557251 124.731636,107.493675 
	C125.295403,107.595657 125.859169,107.697639 126.422935,107.799622 
	C131.844925,102.862549 129.641815,96.378716 129.902374,90.208954 
	C128.085999,90.208954 126.799118,90.208954 125.452644,90.208954 
	C125.969086,91.889771 126.425476,93.375183 126.943245,95.684395 
M119.495964,108.288818 
	C120.293671,107.265846 121.091377,106.242874 122.393478,104.573074 
	C119.559723,103.535187 117.198189,102.670258 114.517952,101.688599 
	C114.870171,104.255096 114.645729,106.321487 115.517761,107.688309 
	C116.111206,108.618469 118.239716,108.569260 119.495964,108.288818 
M118.287743,123.320068 
	C119.061539,119.765953 119.835342,116.211838 120.786644,111.842438 
	C116.975334,111.842438 114.444839,111.445038 112.137993,111.991577 
	C110.755699,112.319061 108.846695,114.005302 108.676689,115.281036 
	C107.644241,123.028442 108.227814,123.542465 115.847824,123.486900 
	C116.343773,123.483284 116.839546,123.454430 118.287743,123.320068 
z"/>
<path fill="#98006D" opacity="1.000000" stroke="none" 
	d="
M129.742874,39.197613 
	C131.355698,39.204571 132.582520,38.976574 133.650711,39.289738 
	C134.571350,39.559647 135.909622,40.385025 135.979965,41.075226 
	C136.068298,41.941952 135.084015,43.706352 134.508362,43.729408 
	C129.239090,43.940468 123.949684,44.006084 118.688789,43.710827 
	C117.833870,43.662846 117.089973,41.636627 115.345505,39.197559 
	C120.917244,39.197559 125.102631,39.197559 129.742874,39.197613 
z"/>
<path fill="#170010" opacity="1.000000" stroke="none" 
	d="
M112.685211,76.082069 
	C114.136024,76.152534 115.257408,75.956741 116.093246,76.357079 
	C117.141899,76.859360 117.956459,77.850380 118.872055,78.630463 
	C117.821121,79.485664 116.829056,80.975334 115.708405,81.079330 
	C112.074356,81.416557 108.386879,81.389549 104.731895,81.229897 
	C101.119705,81.072113 99.508011,82.513046 99.628990,86.175858 
	C99.749817,89.834129 99.834160,93.524506 99.456810,97.151100 
	C99.329735,98.372383 97.738564,99.441322 96.816559,100.579895 
	C96.039551,99.476425 94.659027,98.408211 94.592117,97.263245 
	C94.330460,92.785431 94.270515,88.270470 94.540474,83.793739 
	C94.838524,78.851151 97.945358,76.402641 102.739403,76.148766 
	C105.894966,75.981651 109.065292,76.093498 112.685211,76.082069 
z"/>
<path fill="#170010" opacity="1.000000" stroke="none" 
	d="
M154.562958,100.123451 
	C153.948502,95.450813 153.446976,91.008904 153.400497,86.562256 
	C153.360703,82.754608 151.808746,81.094093 148.003082,81.243919 
	C144.684906,81.374565 141.335724,81.465012 138.043243,81.139038 
	C136.698349,81.005890 135.466675,79.729134 134.183502,78.972656 
	C135.499435,78.016632 136.756271,76.353264 138.142380,76.237480 
	C142.264847,75.893158 146.457291,75.918259 150.586380,76.248886 
	C155.004333,76.602631 158.161697,78.797829 158.345901,83.704613 
	C158.513977,88.182434 158.764450,92.686798 158.411179,97.134399 
	C158.319107,98.293327 156.110046,99.284111 154.562958,100.123451 
z"/>
<path fill="#170010" opacity="1.000000" stroke="none" 
	d="
M107.153198,140.638397 
	C96.355400,140.538223 94.419289,138.626221 94.368416,128.399109 
	C94.353531,125.406021 94.189964,122.386620 94.539970,119.432037 
	C94.680794,118.243309 96.018875,117.196419 96.812057,116.084976 
	C97.732872,117.237389 99.099350,118.265610 99.463707,119.573097 
	C99.938255,121.275978 99.630936,123.200401 99.637039,125.029572 
	C99.676399,136.825668 99.055000,135.209793 109.714424,135.358902 
	C111.211060,135.379852 112.816078,135.035645 114.177223,135.468948 
	C115.837738,135.997543 117.293495,137.169342 118.837814,138.062958 
	C117.257736,138.909424 115.760010,140.150467 114.076599,140.501816 
	C112.002403,140.934723 109.773552,140.626617 107.153198,140.638397 
z"/>
<path fill="#080006" opacity="1.000000" stroke="none" 
	d="
M108.826523,181.276520 
	C110.249245,180.555084 111.458679,179.874725 112.675377,179.861496 
	C121.303505,179.767639 129.936615,179.684464 138.559113,179.923538 
	C140.147079,179.967575 141.693954,181.493454 143.259796,182.335358 
	C141.746613,183.174835 140.252029,184.698715 138.717178,184.740448 
	C130.094421,184.974747 121.461914,184.865692 112.832817,184.841568 
	C110.658516,184.835495 108.268753,184.993546 108.826523,181.276520 
z"/>
<path fill="#170010" opacity="1.000000" stroke="none" 
	d="
M136.209549,111.529564 
	C138.681793,114.503914 141.154037,117.478271 143.897430,120.778870 
	C141.735687,121.888008 139.964554,122.796730 138.003983,123.802643 
	C138.027084,119.084244 134.204102,115.922508 126.988594,114.611771 
	C128.198151,111.160797 129.375656,107.801277 130.764343,103.839241 
	C132.440811,106.483635 133.949249,108.862984 135.797272,111.386948 
	C136.136871,111.531555 136.209549,111.529564 136.209549,111.529564 
z"/>
<path fill="#170010" opacity="1.000000" stroke="none" 
	d="
M143.592407,91.427208 
	C143.613464,94.323296 143.613464,96.781937 143.613464,99.651726 
	C139.563965,99.651726 136.024307,99.651726 132.124725,99.651726 
	C132.124725,95.958572 132.124725,92.262314 132.124725,87.608040 
	C136.100876,89.814476 141.077774,84.734306 143.592407,91.427208 
M135.075165,97.914375 
	C137.125916,97.914375 139.176651,97.914375 141.389221,97.914375 
	C141.389221,95.030983 141.389221,92.822357 141.389221,90.344803 
	C138.824463,90.344803 136.589920,90.344803 133.670227,90.344803 
	C133.896851,92.869843 134.108368,95.226456 135.075165,97.914375 
z"/>
<path fill="#170010" opacity="1.000000" stroke="none" 
	d="
M112.287613,88.088654 
	C121.008781,88.095573 121.355484,88.672859 119.467613,99.731789 
	C116.151794,99.731789 112.767548,99.731789 109.388962,99.731789 
	C107.092636,93.088501 107.924095,89.173271 112.287613,88.088654 
M118.345543,94.423958 
	C118.629997,87.265259 113.690460,90.884850 110.482430,90.245567 
	C110.482430,93.021278 110.482430,95.363037 110.482430,98.095680 
	C113.452515,97.139587 117.314392,100.511276 118.345543,94.423958 
z"/>
<path fill="#080006" opacity="1.000000" stroke="none" 
	d="
M126.912560,95.272491 
	C126.425476,93.375183 125.969086,91.889771 125.452644,90.208954 
	C126.799118,90.208954 128.085999,90.208954 129.902374,90.208954 
	C129.641815,96.378716 131.844925,102.862549 126.422935,107.799622 
	C125.859169,107.697639 125.295403,107.595657 124.731636,107.493675 
	C125.468842,103.557251 126.206039,99.620819 126.912560,95.272491 
z"/>
<path fill="#170010" opacity="1.000000" stroke="none" 
	d="
M136.140472,111.567841 
	C136.901917,108.963310 137.659760,106.322487 138.336792,103.963219 
	C139.644897,105.997971 141.127808,108.304611 142.709305,110.764618 
	C140.776794,110.324532 138.292831,105.778931 136.144058,111.052628 
	C136.209549,111.529564 136.136871,111.531555 136.140472,111.567841 
z"/>
<path fill="#170010" opacity="1.000000" stroke="none" 
	d="
M119.588882,108.623398 
	C118.239716,108.569260 116.111206,108.618469 115.517761,107.688309 
	C114.645729,106.321487 114.870171,104.255096 114.517952,101.688599 
	C117.198189,102.670258 119.559723,103.535187 122.393478,104.573074 
	C121.091377,106.242874 120.293671,107.265846 119.588882,108.623398 
z"/>
<path fill="#030002" opacity="1.000000" stroke="none" 
	d="
M117.811569,123.378693 
	C116.839546,123.454430 116.343773,123.483284 115.847824,123.486900 
	C108.227814,123.542465 107.644241,123.028442 108.676689,115.281036 
	C108.846695,114.005302 110.755699,112.319061 112.137993,111.991577 
	C114.444839,111.445038 116.975334,111.842438 120.786644,111.842438 
	C119.835342,116.211838 119.061539,119.765953 117.811569,123.378693 
M118.086098,120.767929 
	C119.019104,113.350822 117.909744,112.413193 110.403152,114.246681 
	C110.403152,116.642265 110.403152,119.026009 110.403152,121.879326 
	C113.086617,121.714325 115.351913,121.575043 118.086098,120.767929 
z"/>
<path fill="#170010" opacity="1.000000" stroke="none" 
	d="
M106.910362,87.013580 
	C106.910362,98.966705 106.910362,110.919838 106.910362,122.872963 
	C106.736481,122.872314 106.562607,122.871674 106.388725,122.871025 
	C106.388725,111.144554 106.388725,99.418083 106.670113,87.374741 
	C106.951500,87.057869 106.910362,87.013580 106.910362,87.013580 
z"/>
<path fill="#170010" opacity="1.000000" stroke="none" 
	d="
M106.965317,87.084747 
	C107.688927,86.783478 108.397209,86.173141 109.108734,86.169342 
	C120.349274,86.109291 131.590240,86.127151 142.834183,86.950172 
	C131.178055,86.950172 119.521927,86.950172 107.388077,86.981873 
	C106.910362,87.013580 106.951500,87.057869 106.965317,87.084747 
z"/>
<path fill="#98006D" opacity="1.000000" stroke="none" 
	d="
M134.697510,97.748718 
	C134.108368,95.226456 133.896851,92.869843 133.670227,90.344803 
	C136.589920,90.344803 138.824463,90.344803 141.389221,90.344803 
	C141.389221,92.822357 141.389221,95.030983 141.389221,97.914375 
	C139.176651,97.914375 137.125916,97.914375 134.697510,97.748718 
M135.091888,94.326324 
	C135.247223,97.558144 137.466263,97.147209 139.224121,96.242683 
	C139.868347,95.911171 139.659256,93.921356 139.839432,92.688004 
	C138.269104,92.956985 136.698776,93.225960 135.091888,94.326324 
z"/>
<path fill="#98006D" opacity="1.000000" stroke="none" 
	d="
M118.333420,94.833679 
	C117.314392,100.511276 113.452515,97.139587 110.482430,98.095680 
	C110.482430,95.363037 110.482430,93.021278 110.482430,90.245567 
	C113.690460,90.884850 118.629997,87.265259 118.333420,94.833679 
M112.138840,95.959595 
	C113.696419,95.640366 115.254005,95.321129 116.811584,95.001892 
	C116.117065,93.934021 115.422554,92.866158 114.728035,91.798286 
	C113.777107,92.917664 112.826180,94.037041 112.138840,95.959595 
z"/>
<path fill="#98006D" opacity="1.000000" stroke="none" 
	d="
M117.851654,121.101837 
	C115.351913,121.575043 113.086617,121.714325 110.403152,121.879326 
	C110.403152,119.026009 110.403152,116.642265 110.403152,114.246681 
	C117.909744,112.413193 119.019104,113.350822 117.851654,121.101837 
M114.346581,120.027199 
	C117.576729,119.880295 117.189377,117.647743 116.313469,115.870934 
	C116.000755,115.236588 113.981232,115.443657 112.740776,115.266670 
	C112.995674,116.842087 113.250580,118.417496 114.346581,120.027199 
z"/>
<path fill="#080006" opacity="1.000000" stroke="none" 
	d="
M135.110168,93.910629 
	C136.698776,93.225960 138.269104,92.956985 139.839432,92.688004 
	C139.659256,93.921356 139.868347,95.911171 139.224121,96.242683 
	C137.466263,97.147209 135.247223,97.558144 135.110168,93.910629 
z"/>
<path fill="#170010" opacity="1.000000" stroke="none" 
	d="
M112.007050,95.558014 
	C112.826180,94.037041 113.777107,92.917664 114.728035,91.798286 
	C115.422554,92.866158 116.117065,93.934021 116.811584,95.001892 
	C115.254005,95.321129 113.696419,95.640366 112.007050,95.558014 
z"/>
<path fill="#080006" opacity="1.000000" stroke="none" 
	d="
M113.926025,120.010056 
	C113.250580,118.417496 112.995674,116.842087 112.740776,115.266670 
	C113.981232,115.443657 116.000755,115.236588 116.313469,115.870934 
	C117.189377,117.647743 117.576729,119.880295 113.926025,120.010056 
z"/>
</svg>